<svg width="204" height="269" viewBox="0 0 204 269" fill="none" xmlns="http://www.w3.org/2000/svg">
<g clip-path="url(#clip0_58260_5132)">
<path d="M170.587 34.5686C180.145 34.5686 187.894 26.8302 187.894 17.2843C187.894 7.73845 180.145 0 170.587 0C161.028 0 153.279 7.73845 153.279 17.2843C153.279 26.8302 161.028 34.5686 170.587 34.5686Z" fill="#FF6884"/>
<path d="M129.519 246.255C127.14 232.813 125.97 219.176 125.791 205.529C125.612 191.978 126.403 178.428 127.921 164.964C129.459 151.327 131.762 137.787 134.564 124.356C137.365 110.936 140.665 97.6287 144.225 84.3922C147.785 71.1557 151.616 57.9679 155.469 44.8017C155.941 43.1891 156.412 41.5765 156.889 39.9639C157.181 38.9573 155.615 38.5298 155.323 39.5309C151.448 52.762 147.569 65.9877 143.927 79.2892C140.27 92.6394 136.851 106.06 133.919 119.589C131.02 132.95 128.598 146.419 126.891 159.985C125.184 173.552 124.182 187.238 124.144 200.929C124.106 214.62 125.022 228.122 127.102 241.553C127.368 243.268 127.655 244.973 127.953 246.683C128.137 247.711 129.703 247.273 129.519 246.25V246.255Z" fill="#F2F2F2"/>
<path d="M153.908 46.225C152.96 41.4412 153.816 36.5113 154.006 31.6356C154.196 26.7598 153.545 21.4728 150.218 17.9012C147.569 15.0493 143.673 13.7722 139.955 12.6088C138.996 12.3057 137.875 12.0297 137.046 12.5979C136.189 13.1878 136.081 14.3891 136.065 15.4281C135.946 21.9869 136.151 28.7296 138.649 34.8013C141.147 40.873 146.382 46.2033 152.89 47.0854" fill="#F2F2F2"/>
<path d="M140.362 92.2226C139.413 87.4389 140.269 82.509 140.459 77.6333C140.649 72.7575 139.999 67.4705 136.671 63.8989C134.022 61.047 130.126 59.7699 126.408 58.6064C125.449 58.3034 124.328 58.0274 123.499 58.5956C122.643 59.1855 122.534 60.3868 122.518 61.4258C122.399 67.9846 122.605 74.7273 125.103 80.799C127.601 86.8707 132.835 92.201 139.343 93.0831" fill="#F2F2F2"/>
<path d="M156.185 40.7377C160.292 38.0969 165.202 37.0849 169.808 35.4777C174.413 33.8705 179.106 31.3163 181.214 26.9168C182.899 23.4101 182.655 19.3244 182.379 15.439C182.308 14.4378 182.157 13.2906 181.322 12.7332C180.455 12.1542 179.301 12.4951 178.326 12.8577C172.17 15.1576 165.971 17.82 161.23 22.3657C156.488 26.9113 153.448 33.7352 155.014 40.1046" fill="#F2F2F2"/>
<path d="M146.431 76.9948C150.538 74.354 155.448 73.342 160.054 71.7348C164.659 70.1276 169.352 67.5734 171.46 63.1738C173.145 59.6672 172.901 55.5815 172.625 51.696C172.554 50.6949 172.403 49.5477 171.568 48.9903C170.701 48.4113 169.547 48.7522 168.572 49.1148C162.416 51.4147 156.217 54.0771 151.476 58.6228C146.734 63.1684 143.695 69.9923 145.261 76.3616" fill="#F2F2F2"/>
<path d="M87.2902 89.6631L83.4375 65.6198L109.447 55.0349L113.3 91.5896L87.2902 89.6631Z" fill="#FFB6B6"/>
<path d="M65.957 133.626C65.957 133.626 65.6319 198.066 41.5676 187.232C29.0504 181.599 10.5781 157.842 10.5781 157.842L18.213 150.542L39.0479 167.935L42.971 133.339L65.957 133.615V133.626Z" fill="#FFB6B6"/>
<path d="M76.0857 97.7965C76.0857 97.7965 60.1386 93.2887 51.5283 105.67C42.918 118.052 38.5234 164.114 38.5234 164.114L61.2819 175.478L76.0857 97.7965Z" fill="#E6E6E6"/>
<path d="M162.583 132.057L172.7 170.262L197.236 242.884L184.458 250.125L152.342 177.86L144.225 139.303L162.583 132.057Z" fill="#FFB6B6"/>
<path d="M113.826 77.6117L84.7924 78.1312L82.3973 86.8112L59.1133 100.259L61.5354 183.948L133.604 190.441L143.986 133.485L146.609 101.152L116.264 88.1641L113.826 77.6117Z" fill="#E6E6E6"/>
<path d="M128.646 106.72C128.646 106.72 141.727 93.8732 151.665 102.824C161.603 111.774 173.519 171.068 173.519 171.068L152.489 181.399L128.646 106.72Z" fill="#E6E6E6"/>
<path d="M129.812 114.68C129.812 114.68 117.891 114.139 108.137 116.845C98.3837 119.551 70.7484 113.598 70.7484 113.598C77.408 136.245 72.9809 159.921 61.8076 184.218C47.0579 202.298 63.6228 236.601 38.2363 254.838H143.987L140.108 208.299L134.147 190.983C134.147 190.983 137.398 187.736 136.314 186.653C135.231 185.571 121.684 133.08 129.812 114.68Z" fill="#8E4D30"/>
<path d="M78.3344 85.9994L71.832 119.01L81.0438 121.715L78.8763 109.81L82.1275 84.376L78.3344 85.9994Z" fill="#3F3D56"/>
<path d="M116.807 85.4584L120.486 129.562L125.477 129.291L122.225 87.623L116.807 85.4584Z" fill="#3F3D56"/>
<path d="M136.92 190.982C136.92 190.982 107.865 198.829 83.4814 196.123L60.9126 181.382L59.9102 183.948C59.9102 183.948 79.4824 208.451 94.0803 207.022C108.678 205.593 138.481 196.935 138.481 194.77C138.481 192.606 136.92 190.982 136.92 190.982Z" fill="#3F3D56"/>
<path d="M16.4931 157.326C19.7227 154.857 19.2355 148.804 15.4048 143.806C11.5742 138.808 5.85076 136.757 2.62115 139.226C-0.608451 141.695 -0.121223 147.748 3.7094 152.746C7.54003 157.744 13.2635 159.795 16.4931 157.326Z" fill="#FFB6B6"/>
<path d="M199.669 263.036C203.931 260.949 204.759 253.908 201.52 247.309C198.28 240.711 192.199 237.053 187.937 239.14C183.675 241.227 182.847 248.268 186.087 254.866C189.327 261.465 195.408 265.123 199.669 263.036Z" fill="#FFB6B6"/>
<path d="M134.846 196.47C138.053 200.501 138.081 206.47 142.34 209.782C144.106 211.156 146.647 211.887 148.82 211.086C150.972 210.296 152.191 208.305 152.435 206.091C152.695 203.737 151.714 201.497 150.305 199.657C148.782 197.671 146.826 195.793 144.708 194.451C142.746 193.207 140.356 192.557 138.091 193.309C135.805 194.067 134.45 195.912 134.396 198.315C134.352 199.993 134.591 201.697 134.716 203.364L135.089 208.451L135.859 218.89C135.935 219.923 137.56 219.934 137.484 218.89L136.282 202.563C136.184 201.27 136.038 199.971 136.021 198.678C136.005 197.628 136.184 196.6 136.943 195.831C138.276 194.484 140.389 194.365 142.09 194.954C144.204 195.685 145.948 197.346 147.493 198.905C148.994 200.425 150.468 202.255 150.793 204.43C151.053 206.162 150.554 208.245 148.977 209.225C147.249 210.296 144.946 209.722 143.412 208.57C141.402 207.06 140.346 204.56 139.473 202.287C138.536 199.841 137.647 197.39 136 195.322C135.35 194.505 134.206 195.658 134.851 196.47H134.846Z" fill="#3F3D56"/>
<path d="M134.461 194.776C133.009 196.605 132.136 198.726 131.313 200.891C130.516 202.985 129.709 205.199 128.213 206.914C126.913 208.408 124.951 209.506 122.908 209.198C120.941 208.9 119.76 207.157 119.625 205.263C119.473 203.164 120.459 201.248 121.776 199.668C123.201 197.958 124.935 196.275 126.859 195.133C128.533 194.137 130.565 193.65 132.407 194.511C133.204 194.884 133.887 195.501 134.206 196.34C134.64 197.487 134.423 198.818 134.336 200.009C133.887 206.118 133.437 212.233 132.987 218.343C132.911 219.387 134.537 219.382 134.613 218.343C135.068 212.185 135.518 206.032 135.973 199.874C136.07 198.521 136.227 197.092 135.734 195.793C135.355 194.798 134.661 193.986 133.767 193.412C131.871 192.189 129.46 192.206 127.427 193.044C125.103 194.002 123.147 195.81 121.44 197.612C119.771 199.381 118.324 201.481 118.037 203.948C117.793 206.059 118.46 208.391 120.183 209.739C122.058 211.205 124.588 211.092 126.663 210.134C132.266 207.547 132.158 200.263 135.615 195.923C136.26 195.111 135.117 193.959 134.466 194.776H134.461Z" fill="#3F3D56"/>
<path d="M37.4238 123.571C37.4238 123.571 25.1397 135.195 4.45117 123.571L7.68612 162.312C7.68612 162.312 7.97873 162.404 8.49893 162.55C8.87281 163.909 9.90236 165.029 11.3004 165.467C15.8033 166.89 24.4624 168.828 30.3145 165.148C31.5337 164.38 32.2544 163.021 32.2544 161.576V161.463C32.7096 161.133 33.1431 160.775 33.5495 160.37L37.4293 123.566L37.4238 123.571Z" fill="#3F3D56"/>
<path d="M20.9348 129.383C30.0384 129.383 37.4184 126.781 37.4184 123.571C37.4184 120.362 30.0384 117.76 20.9348 117.76C11.8311 117.76 4.45117 120.362 4.45117 123.571C4.45117 126.781 11.8311 129.383 20.9348 129.383Z" fill="#8E4D30"/>
<path d="M195.648 225.308C195.648 225.308 183.364 236.932 162.676 225.308L165.911 264.049C165.911 264.049 166.203 264.141 166.724 264.287C167.097 265.645 168.127 266.765 169.525 267.203C174.028 268.627 182.687 270.564 188.539 266.884C189.758 266.116 190.479 264.757 190.479 263.313V263.199C190.934 262.869 191.368 262.512 191.774 262.106L195.654 225.302L195.648 225.308Z" fill="#3F3D56"/>
<path d="M179.159 231.12C188.263 231.12 195.643 228.517 195.643 225.308C195.643 222.098 188.263 219.496 179.159 219.496C170.056 219.496 162.676 222.098 162.676 225.308C162.676 228.517 170.056 231.12 179.159 231.12Z" fill="#8E4D30"/>
<path d="M93.8647 73.3473C108.511 73.3473 120.384 61.4901 120.384 46.8635C120.384 32.2369 108.511 20.3796 93.8647 20.3796C79.2187 20.3796 67.3457 32.2369 67.3457 46.8635C67.3457 61.4901 79.2187 73.3473 93.8647 73.3473Z" fill="#FFB6B6"/>
<path d="M85.9633 13.5233C91.2736 12.3165 95.2021 6.68855 99.5967 7.28381C109.139 8.57175 117.381 16.4292 118.383 17.5602C122.556 22.2737 123.807 27.0845 125.243 32.6313C126.766 38.5027 125.2 47.2152 123.699 53.2545C121.504 62.0914 115.403 63.8502 116.151 69.6946C116.676 73.7857 119.982 75.4091 123.699 79.2838C130.732 86.6217 132.683 95.1936 134.677 103.949C139.424 124.805 132.591 145.834 129.876 145.742C129.302 145.721 128.809 144.357 127.817 141.63C124.788 133.274 126.278 130.72 124.387 127.928C121.011 122.933 113.788 127.479 105.866 122.446C99.6237 118.479 97.4996 111.461 96.2642 107.375C95.5543 105.026 92.5524 95.1124 96.9523 85.4529C101.027 76.5077 106.955 76.1072 111.285 65.5764C112.195 63.3577 115.208 57.5999 112.043 53.2545C110.439 51.052 110.759 63.5417 108.364 61.4962C102.534 56.5284 105.124 36.2407 99.6942 30.6452C97.0986 27.9665 93.1647 26.9221 90.0923 27.2198C82.7879 27.9233 69.8102 35.0231 68.6668 42.8427C66.8299 55.4245 71.0023 60.9171 81.1731 70.3818C82.2731 71.4046 78.117 70.8581 76.3722 70.3818C67.4964 67.9683 64.0284 56.5014 63.3403 53.9417C61.3137 46.4306 62.8417 40.2344 64.0284 35.4452C65.5403 29.3194 67.1659 22.7282 72.9476 18.3179C76.3668 15.7095 79.8672 14.914 85.9795 13.5233H85.9633Z" fill="#2F2E41"/>
</g>
<defs>
<clipPath id="clip0_58260_5132">
<rect width="203" height="269" fill="white" transform="translate(0.5)"/>
</clipPath>
</defs>
</svg>
