<svg width="500" height="418" viewBox="0 0 500 418" fill="none" xmlns="http://www.w3.org/2000/svg">
<g clip-path="url(#clip0_58260_5063)">
<path d="M23.2334 398.31C30.1689 411.191 44.8886 416.72 44.8886 416.72C44.8886 416.72 48.3635 401.366 41.428 388.485C34.4925 375.604 19.7729 370.075 19.7729 370.075C19.7729 370.075 16.2979 385.429 23.2334 398.31Z" fill="#2F2E41"/>
<path d="M28.0003 394.072C40.5217 401.616 45.3441 416.601 45.3441 416.601C45.3441 416.601 29.8653 419.355 17.3438 411.81C4.8224 404.266 0 389.281 0 389.281C0 389.281 15.4789 386.528 28.0003 394.072Z" fill="#8E4D30"/>
<path d="M308.732 20.0669H230.607V21.1846H308.732V20.0669Z" fill="#F2F2F2"/>
<path d="M287.526 20.9052H286.41V31.2438H287.526V20.9052Z" fill="#F2F2F2"/>
<path d="M253.487 20.9052H252.371V31.2438H253.487V20.9052Z" fill="#F2F2F2"/>
<path d="M348.354 73.716H270.229V74.8337H348.354V73.716Z" fill="#F2F2F2"/>
<path d="M292.55 63.6568H291.434V73.9954H292.55V63.6568Z" fill="#F2F2F2"/>
<path d="M326.589 63.6568H325.473V73.9954H326.589V63.6568Z" fill="#F2F2F2"/>
<path d="M452.148 98.864H374.023V99.9817H452.148V98.864Z" fill="#F2F2F2"/>
<path d="M396.345 88.8048H395.229V99.1434H396.345V88.8048Z" fill="#F2F2F2"/>
<path d="M430.384 88.8048H429.268V99.1434H430.384V88.8048Z" fill="#F2F2F2"/>
<path d="M444.336 358.168H366.211V359.286H444.336V358.168Z" fill="#F2F2F2"/>
<path d="M388.532 348.109H387.416V358.447H388.532V348.109Z" fill="#F2F2F2"/>
<path d="M422.571 348.109H421.455V358.447H422.571V348.109Z" fill="#F2F2F2"/>
<path d="M310.965 178.779H232.84V179.896H310.965V178.779Z" fill="#F2F2F2"/>
<path d="M255.161 168.72H254.045V179.058H255.161V168.72Z" fill="#F2F2F2"/>
<path d="M289.202 168.72H288.086V179.058H289.202V168.72Z" fill="#F2F2F2"/>
<path d="M335.518 313.46H257.393V314.578H335.518V313.46Z" fill="#F2F2F2"/>
<path d="M279.714 303.401H278.598V313.74H279.714V303.401Z" fill="#F2F2F2"/>
<path d="M313.755 303.401H312.639V313.74H313.755V303.401Z" fill="#F2F2F2"/>
<path d="M460.518 272.665H382.393V273.782H460.518V272.665Z" fill="#F2F2F2"/>
<path d="M404.714 262.605H403.598V272.944H404.714V262.605Z" fill="#F2F2F2"/>
<path d="M438.755 262.605H437.639V272.944H438.755V262.605Z" fill="#F2F2F2"/>
<path d="M202.043 392.412H69.9082V391.46H201.092V345.288H81.0165L75.1833 333.118L76.0405 332.707L81.6147 344.336H202.043V392.412Z" fill="#2F2E41"/>
<path d="M87.4932 415.736C93.0057 415.736 97.4746 411.26 97.4746 405.74C97.4746 400.219 93.0057 395.744 87.4932 395.744C81.9806 395.744 77.5117 400.219 77.5117 405.74C77.5117 411.26 81.9806 415.736 87.4932 415.736Z" fill="#3F3D56"/>
<path d="M185.882 415.736C191.394 415.736 195.863 411.26 195.863 405.74C195.863 400.219 191.394 395.744 185.882 395.744C180.369 395.744 175.9 400.219 175.9 405.74C175.9 411.26 180.369 415.736 185.882 415.736Z" fill="#3F3D56"/>
<path d="M301.857 199.634C305.269 199.634 308.036 196.863 308.036 193.446C308.036 190.028 305.269 187.258 301.857 187.258C298.444 187.258 295.678 190.028 295.678 193.446C295.678 196.863 298.444 199.634 301.857 199.634Z" fill="#3F3D56"/>
<path d="M216.174 329.581H67.6539L35.5176 224.386H249.27L249.075 225.005L216.174 329.581ZM68.3571 328.629H215.477L247.974 225.338H36.8024L68.3571 328.629Z" fill="#2F2E41"/>
<path d="M204.582 324.107H74.1309L45.9043 230.811H233.65L233.48 231.361L204.582 324.107Z" fill="#F2F2F2"/>
<path d="M251.933 214.988L251.014 214.743L257.287 191.066H293.776V192.018H258.018L251.933 214.988Z" fill="#2F2E41"/>
<path d="M238.588 256.277H45.9023V257.229H238.588V256.277Z" fill="#2F2E41"/>
<path d="M227.554 291.35H56.6172V292.302H227.554V291.35Z" fill="#2F2E41"/>
<path d="M142.867 224.862H141.916V329.105H142.867V224.862Z" fill="#2F2E41"/>
<path d="M185.427 224.832L178.604 329.072L179.552 329.134L186.376 224.894L185.427 224.832Z" fill="#2F2E41"/>
<path d="M99.3745 224.831L98.4258 224.892L105.21 329.135L106.159 329.074L99.3745 224.831Z" fill="#2F2E41"/>
<path d="M500 416.339H0V417.457H500V416.339Z" fill="#2F2E41"/>
<path d="M332.26 34.5791C332.26 34.5791 340.417 57.8305 335.397 61.4077C330.377 64.9848 352.34 94.1981 352.34 94.1981L378.695 87.0439L364.263 62.6C364.263 62.6 362.38 38.1562 362.38 34.579C362.38 31.0019 332.26 34.5791 332.26 34.5791Z" fill="#A0616A"/>
<path opacity="0.1" d="M332.26 34.5791C332.26 34.5791 340.417 57.8305 335.397 61.4077C330.377 64.9848 352.34 94.1981 352.34 94.1981L378.695 87.0439L364.263 62.6C364.263 62.6 362.38 38.1562 362.38 34.579C362.38 31.0019 332.26 34.5791 332.26 34.5791Z" fill="black"/>
<path d="M318.568 200.32C318.568 200.32 316.187 230.13 318.568 245.631C320.949 261.132 324.521 304.057 324.521 304.057C324.521 304.057 324.521 385.139 337.619 386.332C350.716 387.524 360.241 388.717 361.432 383.947C362.622 379.178 355.478 376.793 359.05 374.408C362.622 372.023 363.813 363.677 359.05 354.138C354.288 344.598 359.05 248.016 359.05 248.016L381.673 308.827C381.673 308.827 384.054 358.907 386.436 366.061C388.817 373.216 384.054 386.332 392.389 387.524C400.723 388.717 410.249 381.562 415.011 379.178C419.774 376.793 407.867 376.793 410.249 375.6C412.63 374.408 419.774 370.831 417.393 369.638C415.011 368.446 412.63 311.212 412.63 311.212C412.63 311.212 406.081 188.993 397.747 184.223C389.412 179.454 384.054 187.669 384.054 187.669L318.568 200.32Z" fill="#2F2E41"/>
<path d="M339.999 381.562V391.101C339.999 391.101 329.283 417.031 339.999 417.031C350.715 417.031 359.049 419.718 359.049 416.141V383.947L339.999 381.562Z" fill="#2F2E41"/>
<path d="M410.248 381.545V391.084C410.248 391.084 420.964 417.015 410.248 417.015C399.532 417.015 391.197 419.702 391.197 416.124V383.93L410.248 381.545Z" fill="#2F2E41"/>
<path d="M348.93 51.8686C360.766 51.8686 370.362 42.2594 370.362 30.4057C370.362 18.5521 360.766 8.94287 348.93 8.94287C337.093 8.94287 327.498 18.5521 327.498 30.4057C327.498 42.2594 337.093 51.8686 348.93 51.8686Z" fill="#A0616A"/>
<path d="M342.381 70.3505C342.381 70.3505 348.335 88.2362 357.86 84.6591L367.385 81.0819L384.054 195.551C384.054 195.551 370.957 214.629 351.907 202.705C332.856 190.781 342.381 70.3505 342.381 70.3505Z" fill="#8E4D30"/>
<path d="M359.051 66.7734L364.409 55.4458C364.409 55.4458 395.961 70.3506 400.724 75.1201C405.486 79.8896 405.486 87.0439 405.486 87.0439L397.152 116.853C397.152 116.853 399.533 182.434 399.533 184.819C399.533 187.204 407.868 200.32 401.914 195.551C395.961 190.781 394.77 186.012 390.008 193.166C385.245 200.32 374.529 208.667 374.529 208.667L359.051 66.7734Z" fill="#3F3D56"/>
<path d="M400.723 152.625L397.151 186.012C397.151 186.012 375.719 205.09 380.482 206.282C385.244 207.474 387.626 202.705 387.626 202.705C387.626 202.705 395.96 211.052 400.723 206.282C405.485 201.513 417.392 156.202 417.392 156.202L400.723 152.625Z" fill="#A0616A"/>
<path d="M349.386 0.0725778C344.635 -0.0975178 339.55 -0.181658 335.544 2.3824C333.701 3.66919 332.085 5.254 330.761 7.07197C326.859 12.0113 323.488 18.2261 324.937 24.3545L326.62 23.697C326.62 25.3329 326.257 26.9483 325.557 28.4263C325.794 27.7361 326.588 28.8519 326.376 29.5501L324.521 35.6419C327.57 34.5228 331.361 36.7885 331.825 40.0062C332.037 32.9306 332.77 24.817 338.501 20.674C341.392 18.5846 345.05 17.9468 348.569 17.3804C351.816 16.8579 355.22 16.3596 358.33 17.4301C361.44 18.5005 364.088 21.6857 363.383 24.9023C364.817 24.4077 366.421 25.4085 367.129 26.7513C367.838 28.0942 367.875 29.6783 367.897 31.197C369.425 32.2788 371.165 30.1306 371.788 28.363C373.25 24.2139 374.55 19.7974 373.762 15.4688C372.974 11.1402 369.452 7.00353 365.058 6.98885C365.592 6.40225 365.876 5.63092 365.852 4.838L362.231 4.53159C363.15 4.40123 363.995 3.95483 364.622 3.26885C363.168 4.87102 351.737 0.156745 349.386 0.0725778Z" fill="#2F2E41"/>
<path d="M348.334 63.1963C348.334 63.1963 338.641 53.6843 335.153 54.2669C331.664 54.8496 326.902 63.1963 326.902 63.1963C326.902 63.1963 298.326 72.7353 299.517 82.2744C300.707 91.8134 313.805 138.316 313.805 138.316C313.805 138.316 324.52 194.358 314.995 200.32C305.47 206.282 360.24 221.783 361.431 214.629C362.621 207.475 365.003 135.932 361.431 125.2C357.859 114.469 348.334 63.1963 348.334 63.1963Z" fill="#3F3D56"/>
<path d="M390.008 82.2744H404.73C404.73 82.2744 415.012 127.585 416.202 132.354C417.393 137.124 419.774 159.779 418.584 159.779C417.393 159.779 393.58 155.01 393.58 158.587L390.008 82.2744Z" fill="#3F3D56"/>
<path d="M389.508 194.478H333.147C327.647 169.14 327.187 144.659 333.147 121.269H389.508C380.413 144.238 379.844 168.552 389.508 194.478Z" fill="#F2F2F2"/>
<path d="M310.232 163.356L326.902 170.511C326.902 170.511 359.049 175.28 359.049 162.164C359.049 149.048 326.902 156.202 326.902 156.202L316.185 152.771L310.232 163.356Z" fill="#A0616A"/>
<path d="M313.805 75.1201L299.517 78.6972L288.801 141.893C288.801 141.893 285.229 158.587 291.182 159.779C297.136 160.972 313.805 170.511 313.805 170.511C313.805 170.511 316.186 152.625 320.949 152.625L309.042 143.086L316.186 101.352L313.805 75.1201Z" fill="#3F3D56"/>
<path d="M111.746 197.221H33.6211V198.338H111.746V197.221Z" fill="#F2F2F2"/>
<path d="M55.9422 187.161H54.8262V197.5H55.9422V187.161Z" fill="#F2F2F2"/>
<path d="M89.9833 187.161H88.8672V197.5H89.9833V187.161Z" fill="#F2F2F2"/>
<path d="M139.09 31.8026H60.9648V32.9203H139.09V31.8026Z" fill="#F2F2F2"/>
<path d="M117.884 32.6409H116.768V42.9795H117.884V32.6409Z" fill="#F2F2F2"/>
<path d="M83.8446 32.6409H82.7285V42.9795H83.8446V32.6409Z" fill="#F2F2F2"/>
<path d="M217.773 141.895H139.648V143.013H217.773V141.895Z" fill="#F2F2F2"/>
<path d="M196.567 142.733H195.451V153.072H196.567V142.733Z" fill="#F2F2F2"/>
<path d="M162.526 142.733H161.41V153.072H162.526V142.733Z" fill="#F2F2F2"/>
<path d="M84.9609 141.336H6.83594V142.454H84.9609V141.336Z" fill="#F2F2F2"/>
<path d="M63.7547 142.174H62.6387V152.513H63.7547V142.174Z" fill="#F2F2F2"/>
<path d="M29.7137 142.174H28.5977V152.513H29.7137V142.174Z" fill="#F2F2F2"/>
<path d="M178.711 85.4517H100.586V86.5694H178.711V85.4517Z" fill="#F2F2F2"/>
<path d="M122.907 75.3925H121.791V85.7311H122.907V75.3925Z" fill="#F2F2F2"/>
<path d="M156.946 75.3925H155.83V85.7311H156.946V75.3925Z" fill="#F2F2F2"/>
</g>
<defs>
<clipPath id="clip0_58260_5063">
<rect width="500" height="418" fill="white"/>
</clipPath>
</defs>
</svg>
