<svg width="500" height="500" viewBox="0 0 500 500" fill="none" xmlns="http://www.w3.org/2000/svg">
<path d="M424.211 131.63L421.781 127.63C402.261 95.87 367.111 76.63 329.871 78.52C324.633 78.7812 319.424 79.4499 314.291 80.52C280.041 87.76 250.241 113.34 237.881 146.09C230.621 165.35 228.59 187.53 214.801 202.82C196.861 222.72 166.4 223.35 139.62 222.52C112.84 221.69 82.3605 222.4 64.5005 242.38C53.3205 255 49.7705 272.74 50.6705 289.5C53.0605 333.86 84.3605 373.5 124.171 393.24C163.98 412.98 210.861 414.73 254.43 406.05C315.43 393.9 373.51 360.54 408.431 309C443.351 257.46 452.131 187.25 424.211 131.63Z" fill="#EBEBEB"/>
<path d="M470.5 403.77C470.5 403.91 371.77 404.03 250.01 404.03C128.25 404.03 29.5 403.91 29.5 403.77C29.5 403.63 128.21 403.51 250.01 403.51C371.81 403.51 470.5 403.63 470.5 403.77Z" fill="#263238"/>
<path d="M323.921 257.56C323.521 259.27 315.011 336.75 315.011 336.75L307.311 347.7L305.221 364.46L321.221 404.03H202.841C202.841 404.03 200.971 383.12 201.131 377.53C201.291 371.94 204.131 351.43 204.131 351.43L203.861 330.6L199.381 239.81L239.481 226.87C263.711 222.7 299.371 240.87 299.371 240.87L323.921 257.56Z" fill="#8E4D30"/>
<path d="M308.54 199.81C313.81 199.48 317.85 195.08 320.75 190.67C323.47 186.55 325.75 181.93 325.81 177C325.81 172.72 324.13 168.64 322.45 164.7C320.77 160.76 318.96 156.54 316.25 153.07C313.54 149.6 309.7 146.78 305.32 146.24" fill="#263238"/>
<path d="M246.941 220.46L247.001 219.15L250.091 143.5L251.801 139.21L289.641 134C292.575 133.771 295.525 134.14 298.312 135.083C301.1 136.026 303.667 137.524 305.86 139.486C308.052 141.449 309.824 143.835 311.069 146.502C312.313 149.168 313.005 152.059 313.101 155C313.581 168.77 313.641 185.6 311.721 195.81C307.881 216.29 292.001 218.48 292.001 218.48C292.001 218.48 291.731 223.85 291.431 231.62C291.211 237.48 286.031 254.39 280.161 254.56C277.641 254.63 270.761 252.44 267.481 251.96C246.791 248.94 246.941 220.46 246.941 220.46Z" fill="#FFBE9D"/>
<path d="M306.11 166.94C306.1 167.63 305.82 168.288 305.33 168.774C304.84 169.26 304.18 169.535 303.49 169.54C303.153 169.557 302.816 169.507 302.498 169.392C302.181 169.277 301.889 169.1 301.641 168.871C301.394 168.642 301.194 168.365 301.055 168.057C300.915 167.75 300.839 167.418 300.83 167.08C300.841 166.39 301.121 165.732 301.61 165.246C302.1 164.76 302.76 164.485 303.45 164.48C303.787 164.463 304.125 164.513 304.442 164.628C304.76 164.743 305.051 164.92 305.299 165.149C305.547 165.378 305.746 165.655 305.885 165.963C306.025 166.27 306.101 166.602 306.11 166.94Z" fill="#263238"/>
<path d="M309.211 163.59C308.871 163.93 306.911 162.39 304.061 162.32C301.211 162.25 299.061 163.61 298.791 163.25C298.641 163.1 298.991 162.48 299.921 161.85C301.174 161.026 302.653 160.614 304.151 160.67C305.633 160.705 307.065 161.209 308.241 162.11C309.091 162.81 309.371 163.44 309.211 163.59Z" fill="#263238"/>
<path d="M278.26 166.67C278.25 167.36 277.97 168.018 277.48 168.504C276.991 168.99 276.33 169.265 275.64 169.27C275.303 169.287 274.966 169.237 274.648 169.122C274.331 169.007 274.04 168.83 273.792 168.601C273.544 168.372 273.344 168.095 273.205 167.787C273.066 167.48 272.989 167.148 272.98 166.81C272.991 166.12 273.271 165.462 273.761 164.976C274.25 164.49 274.911 164.215 275.6 164.21C275.938 164.193 276.275 164.243 276.592 164.358C276.91 164.473 277.201 164.65 277.449 164.879C277.697 165.108 277.897 165.385 278.036 165.693C278.175 166 278.252 166.332 278.26 166.67Z" fill="#263238"/>
<path d="M281.221 163.35C280.881 163.69 278.911 162.15 276.071 162.08C273.231 162.01 271.071 163.37 270.801 163.01C270.651 162.86 271.001 162.24 271.931 161.61C273.184 160.785 274.663 160.373 276.161 160.43C277.642 160.465 279.075 160.969 280.251 161.87C281.101 162.57 281.381 163.2 281.221 163.35Z" fill="#263238"/>
<path d="M291 184.74C291 184.58 292.77 184.32 295.65 184.04C296.38 183.98 297.07 183.85 297.21 183.36C297.288 182.61 297.138 181.854 296.78 181.19L294.78 175.6C292.02 167.6 290.03 161.1 290.36 160.99C290.69 160.88 293.18 167.25 295.95 175.21C296.61 177.21 297.25 179.04 297.85 180.83C298.287 181.721 298.393 182.738 298.15 183.7C298.034 183.947 297.864 184.165 297.653 184.338C297.442 184.511 297.195 184.635 296.93 184.7C296.524 184.797 296.107 184.841 295.69 184.83C292.76 184.94 291 184.9 291 184.74Z" fill="#263238"/>
<path d="M292 218.48C282.284 218.359 272.792 215.544 264.58 210.35C264.58 210.35 270.89 224.7 291.58 223.35L292 218.48Z" fill="#EB996E"/>
<path d="M289.572 191.57C289.046 190.879 288.354 190.333 287.56 189.983C286.766 189.634 285.896 189.491 285.032 189.57C284.402 189.609 283.786 189.775 283.221 190.057C282.655 190.338 282.153 190.73 281.742 191.21C281.353 191.677 281.115 192.251 281.059 192.857C281.004 193.462 281.134 194.07 281.432 194.6C281.879 195.116 282.47 195.487 283.129 195.665C283.788 195.843 284.486 195.821 285.132 195.6C286.491 195.164 287.749 194.46 288.832 193.53C289.158 193.312 289.44 193.034 289.662 192.71C289.768 192.554 289.825 192.369 289.825 192.18C289.825 191.991 289.768 191.806 289.662 191.65" fill="#EB996E"/>
<path d="M282.53 186.48C283 186.48 282.92 189.55 285.53 191.82C288.14 194.09 291.41 193.82 291.43 194.27C291.43 194.46 290.68 194.85 289.28 194.85C287.471 194.827 285.728 194.165 284.36 192.98C283.045 191.845 282.223 190.241 282.07 188.51C282 187.21 282.32 186.46 282.53 186.48Z" fill="#263238"/>
<path d="M282.26 152.22C281.96 152.98 279.13 152.54 275.78 152.85C272.43 153.16 269.7 153.99 269.28 153.29C269.09 152.95 269.58 152.29 270.69 151.52C272.168 150.642 273.827 150.112 275.541 149.97C277.254 149.828 278.978 150.077 280.58 150.7C281.79 151.23 282.39 151.85 282.26 152.22Z" fill="#263238"/>
<path d="M308.391 155.32C307.871 155.96 305.931 155.23 303.571 155.14C301.211 155.05 299.201 155.45 298.761 154.76C298.571 154.43 298.901 153.76 299.761 153.2C300.954 152.5 302.328 152.169 303.709 152.249C305.09 152.329 306.417 152.817 307.521 153.65C308.361 154.34 308.621 155 308.391 155.32Z" fill="#263238"/>
<path d="M246.74 166.62C242.724 169.082 239.201 172.27 236.35 176.02C233.07 180.13 230.94 185.45 231.76 190.65C232.89 197.86 239.14 202.98 244.95 207.4C248.29 207.88 250.78 204.19 251.3 200.85C251.82 197.51 251.36 193.9 252.94 190.91C254.36 188.23 257.16 186.59 259.03 184.2C262.51 179.76 262.28 173.51 261.43 167.93C260.58 162.35 261.43 153.93 268.6 145.93C268.6 146 251.16 152.81 246.74 166.62Z" fill="#263238"/>
<path d="M240.561 185.19C243.561 180.86 242.801 174.51 239.331 170.5C235.861 166.49 230.261 164.75 224.981 165.2C221.141 165.53 217.251 167.04 214.771 169.99C212.291 172.94 211.541 177.49 213.601 180.75C214.741 182.55 216.721 184.25 216.271 186.34C215.821 188.43 213.451 189.1 211.771 190.28C210.328 191.364 209.262 192.874 208.724 194.596C208.186 196.319 208.202 198.167 208.771 199.88C209.394 201.57 210.432 203.077 211.79 204.26C213.148 205.443 214.782 206.265 216.541 206.65C220.099 207.367 223.797 206.702 226.881 204.79C226.881 208 230.331 210.45 233.521 210.18C236.711 209.91 239.421 207.58 241.131 204.87C243.429 200.938 244.521 196.417 244.271 191.87C244.021 187.346 243.328 182.858 242.201 178.47" fill="#263238"/>
<path d="M245.84 208.38C245.671 208.302 245.513 208.201 245.37 208.08L244.07 207.14C242.96 206.31 241.35 205.14 239.48 203.46C237.253 201.56 235.286 199.374 233.63 196.96C231.579 193.969 230.392 190.471 230.2 186.85C230.114 184.97 230.41 183.092 231.07 181.33C231.713 179.697 232.663 178.204 233.87 176.93C235.96 174.887 238.267 173.08 240.75 171.54C242.38 170.469 243.934 169.286 245.4 168C245.91 167.53 246.29 167.15 246.54 166.88C246.659 166.739 246.793 166.612 246.94 166.5C246.94 166.5 246.84 166.67 246.61 166.95C246.282 167.372 245.925 167.769 245.54 168.14C244.118 169.501 242.587 170.742 240.96 171.85C238.533 173.42 236.274 175.236 234.22 177.27C233.065 178.502 232.158 179.945 231.55 181.52C230.922 183.22 230.639 185.029 230.72 186.84C230.901 190.363 232.035 193.771 234 196.7C235.62 199.094 237.535 201.275 239.7 203.19C241.53 204.85 243.1 206.1 244.17 206.98L245.4 207.98C245.561 208.097 245.708 208.231 245.84 208.38Z" fill="#455A64"/>
<path d="M231.14 182.28C231.05 182.33 230.53 181.22 229.21 179.82C227.52 177.966 225.317 176.658 222.88 176.061C220.444 175.464 217.885 175.607 215.53 176.47C213.72 177.11 212.74 177.84 212.69 177.76C212.64 177.68 212.89 177.53 213.34 177.21C213.987 176.776 214.677 176.411 215.4 176.12C217.812 175.137 220.474 174.941 223.004 175.561C225.535 176.18 227.805 177.583 229.49 179.57C229.999 180.159 230.442 180.803 230.81 181.49C230.965 181.732 231.077 182 231.14 182.28Z" fill="#455A64"/>
<path d="M215.09 187.76C215.03 187.76 215.4 186.76 216.75 185.92C217.537 185.453 218.406 185.141 219.31 185C220.398 184.832 221.5 184.769 222.6 184.81C224.592 184.864 226.569 185.177 228.48 185.74C229.284 185.924 230.054 186.234 230.76 186.66C229.957 186.514 229.162 186.324 228.38 186.09C226.477 185.644 224.534 185.39 222.58 185.33C220.65 185.145 218.705 185.459 216.93 186.24C216.242 186.648 215.621 187.161 215.09 187.76Z" fill="#455A64"/>
<path d="M211.65 204.1C211.65 204.01 213.08 204.04 215.33 203.6C218.248 203.034 221.016 201.87 223.46 200.18C225.88 198.459 227.922 196.26 229.46 193.72C230.64 191.77 231.11 190.41 231.2 190.45C231.157 190.794 231.066 191.131 230.93 191.45C230.611 192.308 230.226 193.14 229.78 193.94C228.302 196.599 226.238 198.886 223.745 200.629C221.252 202.372 218.395 203.525 215.39 204C214.487 204.141 213.574 204.212 212.66 204.21C212.32 204.233 211.978 204.195 211.65 204.1Z" fill="#455A64"/>
<path d="M232.141 182C232.141 181.95 232.751 182.54 234.011 183.23C235.815 184.17 237.838 184.612 239.871 184.51C241.263 184.461 242.639 184.198 243.951 183.73C245.455 183.166 246.859 182.366 248.111 181.36C250.938 178.979 253.188 175.987 254.691 172.61C256.171 169.208 257.441 165.718 258.491 162.16C259.379 159.24 260.489 156.392 261.811 153.64C262.71 151.783 263.828 150.041 265.141 148.45C265.611 147.9 266.001 147.45 266.281 147.22C266.415 147.08 266.562 146.953 266.721 146.84C266.721 146.84 266.181 147.44 265.301 148.58C264.064 150.202 263.004 151.952 262.141 153.8C260.873 156.556 259.807 159.4 258.951 162.31C257.921 165.896 256.655 169.411 255.161 172.83C253.629 176.284 251.314 179.334 248.401 181.74C247.106 182.765 245.654 183.572 244.101 184.13C242.743 184.602 241.318 184.856 239.881 184.88C237.781 184.96 235.702 184.447 233.881 183.4C233.594 183.247 233.322 183.066 233.071 182.86C232.874 182.727 232.69 182.576 232.521 182.41C232.381 182.285 232.254 182.148 232.141 182Z" fill="#455A64"/>
<path d="M261.491 163.42C261.541 163.42 261.131 164.02 260.671 165.19C260.079 166.86 259.742 168.61 259.671 170.38C259.619 173.042 259.321 175.693 258.781 178.3C257.893 181.493 256.068 184.345 253.541 186.49C251.041 188.676 247.918 190.023 244.611 190.34C241.929 190.572 239.23 190.157 236.741 189.13C235.071 188.449 233.529 187.489 232.181 186.29C231.826 185.979 231.492 185.645 231.181 185.29C231.06 185.169 230.952 185.035 230.861 184.89C230.911 184.89 231.361 185.39 232.341 186.17C233.713 187.295 235.256 188.193 236.911 188.83C239.356 189.783 241.99 190.15 244.601 189.9C247.799 189.568 250.815 188.251 253.231 186.13C255.683 184.054 257.465 181.298 258.351 178.21C258.909 175.637 259.244 173.021 259.351 170.39C259.462 168.591 259.86 166.822 260.531 165.15C260.732 164.703 260.966 164.272 261.231 163.86C261.301 163.704 261.388 163.556 261.491 163.42Z" fill="#455A64"/>
<path d="M320.751 189.33C320.751 189.33 321.091 189.02 321.621 188.41C322.382 187.547 322.976 186.55 323.371 185.47C323.96 183.873 324.202 182.168 324.081 180.47C323.902 178.379 323.322 176.341 322.371 174.47C320.371 170.47 317.671 167.4 315.881 165.06C315.17 164.131 314.522 163.156 313.941 162.14C313.707 161.778 313.519 161.388 313.381 160.98C313.658 161.309 313.903 161.664 314.111 162.04C314.561 162.72 315.251 163.69 316.171 164.83C318.011 167.1 320.821 170.15 322.841 174.24C323.819 176.158 324.403 178.253 324.561 180.4C324.666 182.161 324.379 183.923 323.721 185.56C323.26 186.665 322.58 187.665 321.721 188.5C321.493 188.721 321.249 188.925 320.991 189.11C320.861 189.29 320.761 189.35 320.751 189.33Z" fill="#455A64"/>
<path d="M317.791 195.19C318.783 194.122 319.615 192.917 320.261 191.61C320.907 190.176 321.247 188.623 321.261 187.05C321.26 185.121 320.865 183.212 320.101 181.44C319.304 179.661 318.403 177.931 317.401 176.26C316.531 174.68 315.781 173.26 315.171 172.01C314.561 170.76 314.101 169.79 313.801 169.09C313.616 168.736 313.478 168.359 313.391 167.97C313.617 168.285 313.815 168.619 313.981 168.97L315.501 171.81C316.151 173.01 316.931 174.43 317.821 176C318.858 177.672 319.78 179.413 320.581 181.21C321.372 183.047 321.768 185.03 321.741 187.03C321.701 188.662 321.316 190.268 320.611 191.74C320.126 192.722 319.488 193.619 318.721 194.4C318.511 194.608 318.291 194.805 318.061 194.99C317.891 195.14 317.801 195.2 317.791 195.19Z" fill="#455A64"/>
<path d="M245.762 169.27C252.612 157.58 262.192 146.71 275.372 143.56C281.805 141.971 288.496 141.716 295.031 142.811C301.567 143.907 307.808 146.33 313.372 149.93V126.88L296.922 73.78L284.112 67L253.832 84.32L246.002 148.19L245.762 169.27Z" fill="#8E4D30"/>
<g opacity="0.7">
<path d="M245.762 169.27C252.612 157.58 262.192 146.71 275.372 143.56C281.805 141.971 288.496 141.716 295.031 142.811C301.567 143.907 307.808 146.33 313.372 149.93V126.88L296.922 73.78L284.112 67L253.832 84.32L246.002 148.19L245.762 169.27Z" fill="white"/>
</g>
<path d="M312.741 127.72C312.487 127.632 312.243 127.518 312.011 127.38C311.541 127.15 310.881 126.75 310.011 126.38C307.491 125.152 304.859 124.167 302.151 123.44C298.138 122.354 294.008 121.759 289.851 121.67C287.398 121.614 284.944 121.704 282.501 121.94C279.882 122.135 277.291 122.608 274.771 123.35C269.937 124.942 265.362 127.233 261.191 130.15C257.763 132.495 254.66 135.283 251.961 138.44C250.151 140.59 248.591 142.938 247.311 145.44C246.931 146.31 246.621 147 246.381 147.52C246.291 147.772 246.173 148.013 246.031 148.24C246.094 147.982 246.181 147.731 246.291 147.49C246.481 147 246.741 146.27 247.131 145.35C248.352 142.799 249.876 140.405 251.671 138.22C254.363 135.002 257.474 132.16 260.921 129.77C265.118 126.8 269.736 124.474 274.621 122.87C277.177 122.122 279.805 121.646 282.461 121.45C284.921 121.218 287.392 121.138 289.861 121.21C294.054 121.324 298.216 121.959 302.251 123.1C304.968 123.867 307.599 124.912 310.101 126.22C311.001 126.65 311.651 127.08 312.101 127.34C312.324 127.45 312.538 127.577 312.741 127.72Z" fill="#263238"/>
<path d="M292.731 121.55C292.591 121.55 290.441 109.44 287.941 94.45C285.441 79.46 283.521 67.29 283.661 67.27C283.801 67.25 285.952 79.38 288.452 94.37C290.952 109.36 292.872 121.53 292.731 121.55Z" fill="#263238"/>
<path d="M272.661 123.74C272.521 123.74 272.741 112.23 273.171 98.03C273.601 83.83 274.051 72.33 274.171 72.33C274.291 72.33 274.081 83.85 273.661 98.05C273.241 112.25 272.811 123.75 272.661 123.74Z" fill="#263238"/>
<path d="M255.58 133.31C255.557 133.127 255.557 132.943 255.58 132.76C255.58 132.34 255.58 131.82 255.64 131.19C255.71 129.83 255.84 127.85 256.03 125.42C256.41 120.56 257.03 113.84 258.03 106.42C259.03 99 260.031 92.42 260.821 87.56C261.241 85.15 261.601 83.21 261.881 81.87C262.011 81.25 262.121 80.75 262.201 80.34C262.225 80.157 262.275 79.9785 262.351 79.81C262.373 79.9927 262.373 80.1773 262.351 80.36C262.281 80.77 262.21 81.28 262.12 81.91C261.9 83.33 261.591 85.26 261.231 87.62C260.481 92.44 259.52 99.11 258.59 106.49C257.66 113.87 256.94 120.57 256.47 125.42C256.24 127.8 256.05 129.74 255.92 131.17C255.85 131.81 255.8 132.32 255.75 132.74C255.722 132.937 255.665 133.129 255.58 133.31Z" fill="#263238"/>
<path d="M295.651 125.44C295.732 126.211 295.732 126.989 295.651 127.76C295.531 129.38 295.391 131.25 295.241 133.32C295.091 135.39 294.941 137.26 294.821 138.88C294.807 139.655 294.71 140.426 294.531 141.18C294.41 140.413 294.383 139.634 294.451 138.86C294.451 137.43 294.561 135.46 294.721 133.28C294.881 131.1 295.091 129.14 295.281 127.72C295.315 126.948 295.44 126.183 295.651 125.44Z" fill="#263238"/>
<path d="M200.221 352.85C198.961 351.01 195.571 349.37 193.351 349.13C185.671 348.29 178.671 351.6 172.611 356.4L171.421 358.57C168.161 361.11 164.761 364.01 163.751 368.02C162.828 372.197 162.362 376.462 162.361 380.74C162.456 383.011 163.377 385.17 164.951 386.81C166.4 388.414 168.415 389.393 170.571 389.54C174.649 389.857 178.728 388.944 182.281 386.92C185.812 384.888 188.926 382.208 191.461 379.02C196.194 373.234 199.411 366.361 200.821 359.02C201.221 357 201.421 354.62 200.221 352.85Z" fill="#8E4D30"/>
<g opacity="0.4">
<path d="M200.221 352.85C198.961 351.01 195.571 349.37 193.351 349.13C185.671 348.29 178.671 351.6 172.611 356.4L171.421 358.57C168.161 361.11 164.761 364.01 163.751 368.02C162.828 372.197 162.362 376.462 162.361 380.74C162.456 383.011 163.377 385.17 164.951 386.81C166.4 388.414 168.415 389.393 170.571 389.54C174.649 389.857 178.728 388.944 182.281 386.92C185.812 384.888 188.926 382.208 191.461 379.02C196.194 373.234 199.411 366.361 200.821 359.02C201.221 357 201.421 354.62 200.221 352.85Z" fill="black"/>
</g>
<path d="M199.391 239.81C198.181 240.21 138.251 325.15 136.641 330.81C135.031 336.47 126.261 349.92 138.641 362.55C146.319 370.326 154.503 377.585 163.141 384.28C160.361 362.87 181.431 345.61 196.141 350.09L184.891 342.46L210.601 308.31" fill="#8E4D30"/>
<path d="M323.92 257.56C323.92 257.56 333.35 269.35 335.7 276.98C337.7 283.5 348.4 313.67 348.4 313.67L367.87 361.92C367.87 361.92 364.87 366.18 364.2 369.79C363.92 371.23 361.45 393.4 355.55 402.79L324.32 388.79L320.38 360.84L315 336.75L320.56 271.9L323.92 257.56Z" fill="#8E4D30"/>
<path d="M236.271 227.55C236.271 227.55 244.271 220.17 246.491 219.13C246.491 219.13 249.031 227.8 256.491 231.9C263.951 236 268.761 240.42 268.761 241.01V251.76C268.761 251.76 238.191 243.41 236.271 227.55Z" fill="#8E4D30"/>
<path d="M241.381 282.24L300.781 278.65L298.001 244.72L295.451 239L291.451 231.78C291.245 234.221 290.26 236.532 288.641 238.37C285.37 241.688 281.155 243.916 276.571 244.75L275.401 251.75L245.301 239.32C245.301 239.32 241.381 280.32 241.381 281.26" fill="#8E4D30"/>
<path d="M276.551 244.72C276.567 244.873 276.567 245.027 276.551 245.18C276.501 245.51 276.431 245.96 276.351 246.53C276.158 247.75 275.885 249.5 275.531 251.78V251.87H275.431L251.001 252.62L247.001 252.73L244.911 252.79C244.235 252.771 243.56 252.859 242.911 253.05C242.256 253.278 241.66 253.653 241.17 254.145C240.68 254.637 240.308 255.233 240.081 255.89C239.862 256.577 239.784 257.302 239.851 258.02C239.851 258.78 239.851 259.54 239.851 260.3C239.981 266.42 240.121 272.9 240.261 279.6C240.721 298.38 241.011 315.39 240.921 327.7C240.921 333.86 240.821 338.84 240.741 342.28C240.691 343.97 240.661 345.28 240.631 346.28C240.631 346.71 240.631 347.05 240.631 347.28C240.644 347.396 240.644 347.514 240.631 347.63C240.616 347.514 240.616 347.396 240.631 347.28C240.631 347.02 240.631 346.68 240.631 346.28C240.631 345.34 240.631 344.01 240.631 342.28C240.631 338.81 240.631 333.84 240.631 327.71C240.631 315.4 240.281 298.4 239.821 279.62C239.691 272.92 239.561 266.44 239.431 260.32V258.04C239.372 257.266 239.464 256.489 239.701 255.75C239.951 255.023 240.362 254.363 240.904 253.819C241.446 253.275 242.106 252.861 242.831 252.61C243.536 252.404 244.268 252.313 245.001 252.34L247.081 252.29L251.081 252.19L275.521 251.65L275.411 251.75C275.811 249.477 276.118 247.733 276.331 246.52L276.591 245.18C276.567 245.028 276.554 244.874 276.551 244.72Z" fill="#263238"/>
<path d="M246.751 267.4C248.154 267.4 249.291 266.263 249.291 264.86C249.291 263.457 248.154 262.32 246.751 262.32C245.348 262.32 244.211 263.457 244.211 264.86C244.211 266.263 245.348 267.4 246.751 267.4Z" fill="#263238"/>
<path d="M261.001 262.13C261.001 262.29 258.141 262.66 254.661 263.47C251.181 264.28 248.431 265.2 248.381 265.06C250.324 264.072 252.398 263.364 254.541 262.96C256.646 262.388 258.82 262.109 261.001 262.13Z" fill="#263238"/>
<path d="M256.691 267.18C255.195 266.95 253.713 266.64 252.251 266.25C250.754 266.023 249.272 265.712 247.811 265.32C250.874 265.252 253.912 265.888 256.691 267.18Z" fill="#263238"/>
<path d="M246.751 296.12C248.154 296.12 249.291 294.983 249.291 293.58C249.291 292.177 248.154 291.04 246.751 291.04C245.348 291.04 244.211 292.177 244.211 293.58C244.211 294.983 245.348 296.12 246.751 296.12Z" fill="#263238"/>
<path d="M261.001 290.86C261.001 291.01 258.141 291.38 254.661 292.19C251.181 293 248.431 293.92 248.381 293.78C250.324 292.792 252.398 292.088 254.541 291.69C256.645 291.113 258.819 290.833 261.001 290.86Z" fill="#263238"/>
<path d="M256.691 295.9C255.195 295.67 253.713 295.36 252.251 294.97C250.754 294.743 249.272 294.432 247.811 294.04C250.874 293.972 253.912 294.608 256.691 295.9Z" fill="#263238"/>
<path d="M246.751 324.85C248.154 324.85 249.291 323.713 249.291 322.31C249.291 320.907 248.154 319.77 246.751 319.77C245.348 319.77 244.211 320.907 244.211 322.31C244.211 323.713 245.348 324.85 246.751 324.85Z" fill="#263238"/>
<path d="M261.001 319.58C261.001 319.73 258.141 320.1 254.661 320.91C251.181 321.72 248.431 322.64 248.381 322.5C250.324 321.512 252.398 320.808 254.541 320.41C256.645 319.833 258.819 319.553 261.001 319.58Z" fill="#263238"/>
<path d="M256.691 324.62C255.195 324.39 253.713 324.08 252.251 323.69C250.754 323.463 249.272 323.152 247.811 322.76C249.34 322.641 250.879 322.783 252.361 323.18C253.876 323.406 255.341 323.893 256.691 324.62Z" fill="#263238"/>
<path d="M207.001 316C207.021 315.752 207.068 315.508 207.141 315.27C207.261 314.75 207.431 314.07 207.641 313.22C208.081 311.43 208.741 308.86 209.491 305.67C210.241 302.48 211.071 298.67 211.721 294.37C212.447 289.74 212.755 285.055 212.641 280.37C212.479 275.68 211.678 271.034 210.261 266.56C209.113 262.906 207.45 259.434 205.321 256.25C203.888 254.103 202.21 252.129 200.321 250.37C199.681 249.72 199.091 249.31 198.741 248.98C198.543 248.831 198.361 248.66 198.201 248.47C198.411 248.595 198.612 248.735 198.801 248.89C199.181 249.2 199.801 249.59 200.461 250.22C202.418 251.94 204.154 253.894 205.631 256.04C207.823 259.232 209.541 262.725 210.731 266.41C212.184 270.922 213.005 275.613 213.171 280.35C213.283 285.078 212.948 289.805 212.171 294.47C211.501 298.77 210.621 302.59 209.831 305.78C209.041 308.97 208.321 311.53 207.831 313.3C207.591 314.14 207.391 314.82 207.241 315.3C207.177 315.539 207.097 315.772 207.001 316Z" fill="#263238"/>
<path d="M206.001 315.14C205.85 314.707 205.736 314.262 205.661 313.81C205.471 312.95 205.251 311.69 205.021 310.12C204.442 306.036 204.178 301.914 204.231 297.79C204.291 293.663 204.672 289.548 205.371 285.48C205.641 283.93 205.901 282.67 206.121 281.82C206.203 281.365 206.33 280.919 206.501 280.49C206.484 280.951 206.424 281.41 206.321 281.86C206.161 282.72 205.961 283.98 205.741 285.54C205.144 289.601 204.81 293.696 204.741 297.8C204.694 301.899 204.908 305.998 205.381 310.07C205.561 311.64 205.721 312.9 205.851 313.77C205.953 314.219 206.003 314.679 206.001 315.14Z" fill="#263238"/>
<path d="M149.15 341.2C149.657 341.033 150.175 340.902 150.7 340.81C152.085 340.405 153.425 339.862 154.7 339.19C156.33 338.35 158.18 337.19 160.29 335.92C162.545 334.46 165.045 333.42 167.67 332.85C170.361 332.415 173.12 332.868 175.53 334.14C177.461 335.169 179.244 336.454 180.83 337.96C181.899 338.953 182.901 340.015 183.83 341.14C184.202 341.539 184.537 341.971 184.83 342.43C184.431 342.073 184.057 341.689 183.71 341.28C182.722 340.228 181.68 339.227 180.59 338.28C178.996 336.839 177.225 335.606 175.32 334.61C172.995 333.409 170.344 332.988 167.76 333.41C165.192 333.974 162.744 334.99 160.53 336.41C158.42 337.63 156.53 338.78 154.86 339.59C153.544 340.246 152.154 340.743 150.72 341.07C150.327 341.152 149.93 341.212 149.53 341.25C149.402 341.249 149.275 341.232 149.15 341.2Z" fill="#263238"/>
<path d="M169.86 320.39C170.192 320.471 170.511 320.596 170.81 320.76C171.181 320.906 171.539 321.083 171.88 321.29C172.347 321.54 172.801 321.814 173.24 322.11C174.395 322.867 175.476 323.731 176.47 324.69C178.916 327.043 180.817 329.904 182.04 333.07C182.542 334.365 182.921 335.704 183.17 337.07C183.274 337.589 183.351 338.113 183.4 338.64C183.453 339.035 183.479 339.432 183.48 339.83C183.53 340.161 183.53 340.499 183.48 340.83C183.38 340.83 183.34 339.38 182.84 337.12C182.542 335.799 182.138 334.505 181.63 333.25C180.983 331.725 180.203 330.259 179.3 328.87C178.374 327.499 177.322 326.217 176.16 325.04C175.201 324.083 174.164 323.206 173.06 322.42C171.14 321.07 169.82 320.48 169.86 320.39Z" fill="#263238"/>
<g opacity="0.4">
<path d="M183.001 339.58C181.187 335.449 178.265 331.9 174.558 329.327C170.852 326.753 166.506 325.256 162.001 325C160.787 324.883 159.563 325.072 158.441 325.55C157.886 325.801 157.418 326.21 157.094 326.726C156.771 327.242 156.606 327.841 156.621 328.45C156.773 329.023 156.866 329.609 156.901 330.2C156.751 331.53 155.101 332.01 153.811 332.38C151.295 333.098 149.054 334.558 147.381 336.57C146.511 337.57 145.811 339.18 146.641 340.26C147.331 341.14 148.641 341.14 149.751 340.94C153.871 340.22 157.541 338 161.301 336.18C165.061 334.36 169.301 332.89 173.381 333.81C177.891 334.81 181.241 338.51 184.271 342" fill="black"/>
</g>
<path d="M315.001 336.75C314.891 336.907 314.767 337.054 314.631 337.19L313.481 338.37C312.991 338.88 312.371 339.49 311.621 340.17C310.871 340.85 310.041 341.66 309.061 342.47C306.792 344.408 304.425 346.231 301.971 347.93C295.948 352.106 289.428 355.516 282.561 358.08C279.391 359.24 276.491 360.15 274.021 360.78C272.791 361.12 271.661 361.35 270.671 361.57C269.681 361.79 268.831 361.96 268.121 362.07L266.511 362.33C266.325 362.376 266.133 362.397 265.941 362.39C266.117 362.312 266.302 362.258 266.491 362.23L268.091 361.87C268.781 361.73 269.631 361.54 270.611 361.29C271.591 361.04 272.711 360.79 273.921 360.42C276.371 359.75 279.251 358.81 282.391 357.63C289.198 355.034 295.675 351.648 301.691 347.54C304.461 345.64 306.871 343.81 308.821 342.18C309.821 341.4 310.661 340.62 311.421 339.96C312.181 339.3 312.831 338.71 313.341 338.22L314.551 337.11C314.687 336.973 314.838 336.852 315.001 336.75Z" fill="#263238"/>
<path d="M324.32 271C324.319 271.225 324.296 271.45 324.25 271.67C324.18 272.16 324.08 272.8 323.96 273.59L322.86 280.59C321.94 286.52 320.73 294.74 319.49 303.82C318.25 312.9 317.17 321.09 316.36 327.1L315.42 334.15C315.3 334.94 315.21 335.58 315.14 336.07C315.119 336.294 315.075 336.515 315.01 336.73C314.984 336.504 314.984 336.276 315.01 336.05C315.05 335.557 315.11 334.917 315.19 334.13C315.38 332.39 315.64 329.99 315.97 327.05C316.66 321.05 317.69 312.84 318.97 303.75C320.25 294.66 321.48 286.45 322.49 280.53C323.01 277.53 323.43 275.17 323.77 273.53C323.92 272.75 324.05 272.12 324.15 271.63C324.18 271.414 324.237 271.202 324.32 271Z" fill="#263238"/>
<path d="M290.48 369.86C290.615 369.504 290.797 369.168 291.02 368.86C291.4 368.27 291.96 367.42 292.67 366.37C294.1 364.29 296.13 361.45 298.46 358.37C300.79 355.29 302.99 352.59 304.63 350.67C305.44 349.67 306.11 348.94 306.63 348.41C307.15 347.88 307.38 347.61 307.41 347.64C307.239 347.963 307.031 348.265 306.79 348.54L304.91 351C303.36 353 301.21 355.72 298.91 358.78C296.61 361.84 294.51 364.64 293.01 366.67L291.19 369C290.99 369.315 290.752 369.604 290.48 369.86Z" fill="#263238"/>
<path d="M354.85 349C354.303 348.813 353.769 348.593 353.25 348.34C352.25 347.9 350.75 347.27 348.88 346.62C344.018 344.865 338.879 344.001 333.71 344.07C332.259 344.102 330.826 344.397 329.48 344.94C328.24 345.476 327.11 346.239 326.15 347.19C324.523 348.856 323.248 350.832 322.4 353C321.799 354.449 321.272 355.928 320.82 357.43C320.672 357.99 320.481 358.539 320.25 359.07C320.332 358.495 320.455 357.927 320.62 357.37C321.009 355.839 321.49 354.333 322.06 352.86C322.892 350.642 324.172 348.62 325.82 346.92C326.813 345.916 327.987 345.108 329.28 344.54C330.679 343.969 332.17 343.657 333.68 343.62C338.912 343.522 344.114 344.436 349 346.31C350.48 346.861 351.929 347.492 353.34 348.2C353.84 348.44 354.22 348.66 354.48 348.8C354.612 348.849 354.736 348.917 354.85 349Z" fill="#263238"/>
<path d="M347.37 333.34C347.37 333.45 345.8 333.4 343.37 333.83C341.928 334.084 340.51 334.459 339.13 334.95C335.75 336.17 332.654 338.065 330.03 340.52C328.962 341.525 327.982 342.619 327.1 343.79C325.6 345.79 324.93 347.21 324.83 347.16C324.934 346.811 325.078 346.475 325.26 346.16C325.443 345.768 325.65 345.387 325.88 345.02C326.162 344.525 326.469 344.044 326.8 343.58C327.66 342.36 328.631 341.221 329.7 340.18C332.332 337.627 335.498 335.69 338.97 334.51C340.382 334.041 341.835 333.706 343.31 333.51C343.94 333.4 344.52 333.38 345.02 333.34C345.45 333.317 345.88 333.317 346.31 333.34C346.662 333.303 347.018 333.303 347.37 333.34Z" fill="#263238"/>
<path d="M355.411 396.71C354.925 393.442 353.625 390.348 351.631 387.713C349.638 385.078 347.014 382.986 344.001 381.63C339.231 379.5 332.651 379.01 328.121 381.63C323.591 384.25 317.531 390.69 318.761 395.76L329.151 413.21C331.827 415.149 335.022 416.242 338.325 416.347C341.629 416.452 344.887 415.565 347.681 413.8C350.416 411.937 352.584 409.356 353.948 406.341C355.312 403.326 355.818 399.994 355.411 396.71Z" fill="#8E4D30"/>
<g opacity="0.4">
<path d="M355.411 396.71C354.925 393.442 353.625 390.348 351.631 387.713C349.638 385.078 347.014 382.986 344.001 381.63C339.231 379.5 332.651 379.01 328.121 381.63C323.591 384.25 317.531 390.69 318.761 395.76L329.151 413.21C331.827 415.149 335.022 416.242 338.325 416.347C341.629 416.452 344.887 415.565 347.681 413.8C350.416 411.937 352.584 409.356 353.948 406.341C355.312 403.326 355.818 399.994 355.411 396.71Z" fill="black"/>
</g>
<path d="M352.17 409.43C352.17 409.43 352.54 408.73 353.17 407.49C354.041 405.701 354.644 403.794 354.96 401.83C355.414 398.915 355.153 395.932 354.2 393.14C353.915 392.337 353.581 391.552 353.2 390.79C352.802 390.001 352.351 389.239 351.85 388.51C349.774 385.401 346.818 382.981 343.36 381.56C338.943 379.888 334.067 379.888 329.65 381.56C327.779 382.235 326.015 383.174 324.41 384.35C323.28 385.2 322.7 385.73 322.66 385.69C322.781 385.542 322.915 385.405 323.06 385.28C323.444 384.892 323.851 384.528 324.28 384.19C325.861 382.924 327.629 381.912 329.52 381.19C334.013 379.419 339.005 379.387 343.52 381.1C345.295 381.811 346.951 382.789 348.43 384C349.907 385.215 351.197 386.64 352.26 388.23C352.764 388.985 353.221 389.77 353.63 390.58C354.015 391.364 354.349 392.173 354.63 393C355.592 395.864 355.823 398.924 355.3 401.9C354.943 403.892 354.268 405.813 353.3 407.59C352.96 408.21 352.63 408.67 352.43 408.98C352.365 409.141 352.277 409.293 352.17 409.43Z" fill="#263238"/>
<path d="M323.601 384.89C323.451 384.89 322.241 378.07 320.881 369.6C319.521 361.13 318.541 354.25 318.681 354.22C318.821 354.19 320.041 361.05 321.401 369.52C322.761 377.99 323.741 384.87 323.601 384.89Z" fill="#263238"/>
<g opacity="0.4">
<path d="M316.82 344.92L322.13 344.55C325.648 339.149 331.159 335.356 337.46 334C338.909 333.621 340.427 333.59 341.89 333.91C342.619 334.079 343.292 334.434 343.842 334.94C344.392 335.447 344.802 336.088 345.03 336.8C345.215 337.524 345.109 338.291 344.735 338.937C344.361 339.584 343.749 340.059 343.03 340.26C344.506 340.647 345.885 341.337 347.08 342.285C348.274 343.234 349.259 344.421 349.97 345.77C350.27 346.34 350.49 347.12 350.04 347.58C349.697 347.839 349.267 347.954 348.84 347.9C346.39 347.9 343.96 347.35 341.51 347.24C339.058 346.99 336.593 347.571 334.51 348.89C332.51 350.32 331.43 352.65 330.51 354.89C327.137 362.969 324.642 371.387 323.07 380C321.84 375.13 321.73 370 320.84 365.38C319.57 358.83 318.34 352.13 316.84 344.94" fill="black"/>
</g>
<g opacity="0.4">
<path d="M201.651 389.08C208.261 396.13 217.181 399.43 226.731 400.99C236.281 402.55 246.031 401.99 255.731 401.45C258.111 401.31 260.931 400.9 261.971 398.75C262.711 397.22 262.201 395.41 261.611 393.83C257.351 382.56 248.931 373.45 240.701 364.66C237.701 361.44 234.481 358.1 230.271 356.8C225.641 355.38 220.381 356.63 215.991 354.59C210.711 352.14 208.561 345.92 206.931 340.33L203.571 328.83C204.311 341.36 204.181 351.43 204.181 351.43C204.181 351.43 200.721 374.59 201.181 379.84C201.641 385.09 201.651 389.08 201.651 389.08Z" fill="black"/>
</g>
<path d="M267.481 246.12C267.035 246.072 266.596 245.975 266.171 245.83C265.331 245.62 264.171 245.25 262.671 244.73C258.869 243.366 255.222 241.603 251.791 239.47C248.357 237.337 245.157 234.85 242.241 232.05C241.131 230.97 240.241 230.05 239.711 229.4C239.391 229.084 239.109 228.732 238.871 228.35C239.23 228.625 239.564 228.929 239.871 229.26C240.471 229.88 241.371 230.74 242.511 231.78C248.435 237.209 255.319 241.485 262.811 244.39C264.241 244.95 265.421 245.39 266.241 245.64C266.668 245.764 267.083 245.924 267.481 246.12Z" fill="#263238"/>
<path d="M295.361 240.57C295.279 240.837 295.15 241.087 294.981 241.31C294.598 241.962 294.167 242.583 293.691 243.17C290.538 247.092 286.209 249.896 281.341 251.17C280.613 251.369 279.871 251.513 279.121 251.6C278.849 251.661 278.569 251.677 278.291 251.65C278.291 251.56 279.441 251.37 281.241 250.82C283.585 250.088 285.818 249.042 287.881 247.71C289.932 246.367 291.79 244.748 293.401 242.9C294.641 241.51 295.281 240.52 295.361 240.57Z" fill="#263238"/>
<path d="M300.002 246.74C298.471 250.659 295.577 253.895 291.852 255.85C293.428 254.541 294.933 253.149 296.362 251.68C297.66 250.098 298.875 248.449 300.002 246.74Z" fill="#263238"/>
<path d="M247.541 365.65L248.161 365.52C250.381 365.09 257.741 363.75 258.931 364.94C260.321 366.34 270.291 376.13 270.291 376.13C270.291 376.13 268.371 379.28 262.071 376.13C255.771 372.98 247.541 365.65 247.541 365.65Z" fill="#FFBE9D"/>
<path d="M233.401 345.76C234.484 345.04 235.804 344.765 237.085 344.992C238.366 345.219 239.511 345.931 240.281 346.98L270.671 387.29L262.881 393L232.191 353.08C231.764 352.529 231.456 351.897 231.285 351.222C231.115 350.546 231.085 349.843 231.199 349.156C231.312 348.469 231.566 347.813 231.945 347.228C232.324 346.644 232.82 346.144 233.401 345.76Z" fill="#263238"/>
<path d="M163.91 372.75C163.91 372.75 200 378.61 205 379C210 379.39 223.69 393.91 227.66 395.3C231.63 396.69 242.38 396.49 242.38 396.49C242.38 396.49 261.86 397.49 262.46 396.49C263.06 395.49 264.25 395.69 262.46 391.91C261.351 389.594 260.011 387.397 258.46 385.35C258.46 385.35 263.46 391.51 264.83 391.71C266.2 391.91 269.2 392.27 269 389.61C268.8 386.95 263.63 376.01 263.63 376.01C263.63 376.01 261.45 370.9 257.47 369.77C253.49 368.64 236.19 360.3 236.19 360.3H217.69L196.11 350.04C196.11 350.04 183.05 345.84 170.62 359.55C168.199 362.273 166.358 365.462 165.21 368.92L163.91 372.75Z" fill="#FFBE9D"/>
<path d="M267.101 384.25C266.876 383.925 266.694 383.572 266.561 383.2C266.211 382.4 265.781 381.42 265.281 380.26C264.781 379.1 264.111 377.5 263.431 375.88C262.868 374.064 261.77 372.461 260.281 371.28C259.468 370.72 258.6 370.244 257.691 369.86L255.141 368.72C253.501 368 252.021 367.38 250.781 366.86L247.781 365.63C247.411 365.501 247.056 365.333 246.721 365.13C247.111 365.193 247.493 365.297 247.861 365.44C248.571 365.68 249.611 366.04 250.861 366.51C252.111 366.98 253.631 367.58 255.281 368.28L257.851 369.4C258.798 369.786 259.701 370.276 260.541 370.86C262.11 372.104 263.259 373.801 263.831 375.72C264.481 377.35 265.061 378.84 265.571 380.13C266.081 381.42 266.391 382.31 266.701 383.13C266.872 383.489 267.006 383.864 267.101 384.25Z" fill="#EB996E"/>
<path d="M249 374.23C249.697 374.641 250.338 375.138 250.91 375.71C252.341 377.01 253.678 378.41 254.91 379.9C256.164 381.387 257.307 382.965 258.33 384.62C258.795 385.278 259.172 385.994 259.45 386.75C258.918 386.149 258.44 385.503 258.02 384.82C257.17 383.61 255.96 381.96 254.51 380.23C253.06 378.5 251.66 377.03 250.61 375.98C250.023 375.446 249.484 374.86 249 374.23Z" fill="#EB996E"/>
<path d="M259.271 396.79C259.002 396.737 258.745 396.635 258.511 396.49C257.848 396.155 257.213 395.767 256.611 395.33C254.671 393.843 252.903 392.142 251.341 390.26C249.471 388.11 247.801 386.15 246.621 384.71C245.941 383.965 245.322 383.166 244.771 382.32C245.541 382.972 246.251 383.691 246.891 384.47C248.151 385.85 249.891 387.77 251.731 389.91C253.277 391.764 254.984 393.477 256.831 395.03C258.281 396.19 259.311 396.72 259.271 396.79Z" fill="#EB996E"/>
<path d="M248.551 396.77C247.891 396.548 247.265 396.235 246.691 395.84C245.252 394.988 243.863 394.053 242.531 393.04C241.203 392.03 239.928 390.952 238.711 389.81C238.173 389.365 237.693 388.854 237.281 388.29C237.391 388.17 239.761 390.29 242.851 392.63C245.941 394.97 248.631 396.64 248.551 396.77Z" fill="#EB996E"/>
<path d="M307.761 411.77C307.761 411.77 304.591 406.87 304.151 405.12C303.711 403.37 304.151 395.04 298.311 396.35V397C298.461 397.71 298.311 414.65 298.311 414.65L307.761 411.77Z" fill="#FFBE9D"/>
<path d="M232.93 420.64C232.93 420.64 227.54 470.38 285.78 468.93C333.26 467.75 332.43 421.47 332.43 421.47L232.93 420.64Z" fill="#8E4D30"/>
<path d="M281.811 434.23C311.784 434.23 336.081 428.356 336.081 421.11C336.081 413.864 311.784 407.99 281.811 407.99C251.839 407.99 227.541 413.864 227.541 421.11C227.541 428.356 251.839 434.23 281.811 434.23Z" fill="#8E4D30"/>
<path opacity="0.4" d="M282.621 428.93C310.13 428.93 332.431 425.218 332.431 420.64C332.431 416.062 310.13 412.35 282.621 412.35C255.111 412.35 232.811 416.062 232.811 420.64C232.811 425.218 255.111 428.93 282.621 428.93Z" fill="black"/>
<path d="M334.242 424.86L334.002 425L333.332 425.42C332.742 425.79 331.842 426.3 330.662 426.9C327.303 428.581 323.777 429.905 320.142 430.85C314.751 432.211 309.28 433.233 303.762 433.91C296.996 434.672 290.189 435.006 283.382 434.91C276.152 434.85 269.252 434.61 263.002 434.06C257.457 433.602 251.953 432.746 246.532 431.5C242.879 430.659 239.295 429.543 235.812 428.16C234.572 427.69 233.642 427.23 233.002 426.95L232.292 426.61C232.122 426.54 232.042 426.49 232.052 426.48C232.14 426.503 232.227 426.533 232.312 426.57L233.052 426.86C233.702 427.11 234.632 427.53 235.882 427.97C239.384 429.275 242.972 430.334 246.622 431.14C252.032 432.331 257.519 433.146 263.042 433.58C269.282 434.1 276.162 434.33 283.392 434.39C290.176 434.475 296.959 434.142 303.702 433.39C309.203 432.743 314.66 431.762 320.042 430.45C323.668 429.545 327.195 428.282 330.572 426.68C331.752 426.1 332.672 425.63 333.272 425.29L333.972 424.91C334.152 424.89 334.232 424.85 334.242 424.86Z" fill="#263238"/>
<path d="M301 419.52C301 419.52 306.94 399.61 309 396.96C310.69 394.77 322.66 385.71 326.77 382.64C327.783 381.876 328.934 381.316 330.16 380.99C334.23 379.92 338.3 379.2 345 382.1C347.114 383.036 349.015 384.393 350.586 386.088C352.158 387.783 353.367 389.781 354.14 391.96L331.79 405.85L330.92 415.25L312.92 410.66C313.007 409.715 312.823 408.765 312.39 407.92C312.39 407.92 306.67 421.78 301 419.52Z" fill="#FFBE9D"/>
<path d="M279.421 405.38C277.151 402.38 275.261 399.49 273.761 397.04C272.261 394.59 271.191 392.53 270.481 391.04C270.155 390.268 269.763 389.525 269.311 388.82C269.542 389.626 269.84 390.412 270.201 391.17C271.114 393.262 272.142 395.301 273.281 397.28C274.987 400.2 276.843 403.03 278.841 405.76C281.081 408.85 283.711 412.13 286.501 415.52C290.401 420.2 294.001 424.57 296.931 428.4H297.741C294.811 424.4 291.121 419.87 287.111 415.05C284.321 411.68 281.691 408.43 279.421 405.38Z" fill="#F5F5F5"/>
<path d="M265.141 391.12C265.392 391.914 265.706 392.686 266.081 393.43C266.731 394.91 267.671 397.04 268.781 399.69C271.664 406.598 274.178 413.655 276.311 420.83C277.091 423.64 277.921 426.37 278.901 428.9H279.701C278.701 426.33 277.881 423.55 277.061 420.62C274.937 413.41 272.342 406.349 269.291 399.48C268.111 396.85 267.091 394.75 266.361 393.31C266.013 392.548 265.605 391.816 265.141 391.12Z" fill="#F5F5F5"/>
<path d="M267.102 388.73C267.397 389.517 267.755 390.28 268.172 391.01C268.912 392.46 270.002 394.54 271.372 397.1C274.122 402.21 277.972 409.26 282.662 416.79C285.382 421.17 288.112 425.18 290.662 428.69H291.502C288.962 425.08 286.162 420.93 283.362 416.4C278.682 408.89 274.762 401.9 271.892 396.86L268.472 390.86C268.074 390.114 267.616 389.401 267.102 388.73Z" fill="#F5F5F5"/>
<path d="M310.832 422.91C308.856 418.241 305.836 414.087 302.002 410.77C298.569 407.796 294.889 405.119 291.002 402.77C287.412 400.5 284.002 398.44 281.102 396.35C276.454 393.057 272.229 389.205 268.522 384.88C267.212 383.35 266.242 382.11 265.602 381.27L264.862 380.27C264.788 380.154 264.697 380.049 264.592 379.96C264.646 380.089 264.717 380.21 264.802 380.32L265.472 381.32C266.082 382.2 267.002 383.47 268.292 385.04C271.933 389.469 276.131 393.408 280.782 396.76C283.712 398.89 287.082 400.99 290.652 403.28C294.494 405.635 298.13 408.312 301.522 411.28C305.27 414.535 308.222 418.606 310.152 423.18C310.727 424.542 311.172 425.955 311.482 427.4L312.262 427.32C311.922 425.809 311.443 424.333 310.832 422.91Z" fill="#F5F5F5"/>
<path d="M309.002 426.21C307.698 422.915 305.897 419.84 303.662 417.09C300.908 413.751 297.789 410.732 294.362 408.09C290.772 405.24 287.182 402.78 283.982 400.47C280.782 398.16 277.982 396 275.702 394.06C273.916 392.529 272.22 390.896 270.622 389.17C270.069 388.499 269.478 387.862 268.852 387.26C268.941 387.471 269.062 387.666 269.212 387.84C269.462 388.2 269.862 388.72 270.392 389.37C271.912 391.188 273.563 392.893 275.332 394.47C277.96 396.799 280.703 398.995 283.552 401.05C286.742 403.4 290.312 405.88 293.872 408.7C297.253 411.304 300.347 414.261 303.102 417.52C305.32 420.193 307.133 423.179 308.482 426.38C308.662 426.81 308.812 427.23 308.962 427.64L309.482 427.59C309.362 427.16 309.222 426.7 309.002 426.21Z" fill="#F5F5F5"/>
<path d="M282.811 421.58C278.971 414.58 275.741 408.06 273.451 403.33L270.751 397.73C270.455 397.035 270.101 396.365 269.691 395.73C269.887 396.468 270.148 397.188 270.471 397.88C271.031 399.24 271.861 401.19 272.941 403.59C275.111 408.38 278.271 414.93 282.111 421.98C283.421 424.37 284.711 426.66 285.961 428.82H286.821C285.531 426.51 284.181 424.1 282.811 421.58Z" fill="#F5F5F5"/>
<path d="M290.8 412.6C285.414 407.298 280.319 401.706 275.54 395.85C273.71 393.6 272.27 391.75 271.26 390.47C270.777 389.762 270.239 389.093 269.65 388.47C270.048 389.217 270.506 389.929 271.02 390.6C271.95 391.94 273.32 393.85 275.11 396.15C279.772 402.148 284.83 407.827 290.25 413.15C293.41 416.28 296.62 419.04 299.31 421.75C301.258 423.662 303.016 425.759 304.56 428.01H305.22C303.678 425.574 301.87 423.317 299.83 421.28C297.13 418.48 293.94 415.71 290.8 412.6Z" fill="#F5F5F5"/>
<path d="M274.381 426.37C273.051 422.37 272.151 418.49 271.311 414.98C269.691 407.98 268.181 402.25 266.571 398.52C265.819 396.559 264.856 394.684 263.701 392.93C263.701 392.93 263.701 393.07 263.861 393.31L264.421 394.39C264.891 395.34 265.571 396.75 266.291 398.63C267.801 402.38 269.221 408.05 270.761 415.11C271.581 418.63 272.451 422.5 273.761 426.57C274.021 427.34 274.311 428.12 274.601 428.91H275.321C275.001 428.06 274.671 427.2 274.381 426.37Z" fill="#F5F5F5"/>
<path d="M314.681 414.29C314.761 414.279 314.841 414.279 314.921 414.29C315.154 414.278 315.388 414.278 315.621 414.29C316.231 414.34 317.131 414.44 318.281 414.6C321.537 415.048 324.751 415.761 327.891 416.73C328.924 417.095 329.927 417.54 330.891 418.06C331.432 418.344 331.9 418.747 332.261 419.24C332.441 419.518 332.56 419.832 332.608 420.16C332.656 420.487 332.633 420.822 332.541 421.14C332.432 421.458 332.261 421.752 332.037 422.005C331.814 422.257 331.544 422.462 331.241 422.61C330.694 422.969 330.115 423.277 329.511 423.53C328.273 424.06 327 424.504 325.701 424.86C319.942 426.427 314.071 427.553 308.141 428.23C297.371 429.378 286.528 429.678 275.711 429.13C271.561 428.97 268.211 428.77 265.891 428.63L263.221 428.44L262.531 428.38C262.452 428.397 262.37 428.397 262.291 428.38H263.231L265.901 428.47L275.721 428.8C286.518 429.25 297.333 428.916 308.081 427.8C313.984 427.12 319.829 426.01 325.571 424.48C326.851 424.132 328.107 423.701 329.331 423.19C329.914 422.954 330.474 422.663 331.001 422.32C331.518 422.076 331.923 421.643 332.131 421.11C332.209 420.849 332.229 420.575 332.191 420.306C332.153 420.037 332.058 419.779 331.911 419.55C331.588 419.108 331.171 418.743 330.691 418.48C329.749 417.968 328.769 417.526 327.761 417.16C324.645 416.165 321.46 415.403 318.231 414.88C317.091 414.69 316.231 414.55 315.601 414.47C314.971 414.39 314.681 414.31 314.681 414.29Z" fill="#263238"/>
<path d="M319.531 402C319.621 402.12 317.761 403.57 315.631 405.54C313.501 407.51 311.911 409.25 311.791 409.15C313.833 406.243 316.471 403.805 319.531 402Z" fill="#EB996E"/>
<path d="M319.091 409.88C318.063 409.491 316.98 409.264 315.881 409.21C314.783 409.312 313.708 409.582 312.691 410.01C312.691 409.96 312.911 409.66 313.471 409.34C314.201 408.926 315.023 408.703 315.861 408.69C316.704 408.67 317.539 408.859 318.291 409.24C318.861 409.54 319.131 409.83 319.091 409.88Z" fill="#EB996E"/>
<path d="M137.69 203.48C137.11 203.94 105.4 218.18 105.4 218.18C105.4 218.18 114.13 236.72 131.07 228.46C146.54 220.92 137.69 203.48 137.69 203.48Z" fill="#455A64"/>
<path d="M137.341 101.07C138.051 101.07 138.641 125.69 138.641 156.07C138.641 186.45 138.051 211.07 137.341 211.07C136.631 211.07 136.031 186.46 136.031 156.07C136.031 125.68 136.621 101.07 137.341 101.07Z" fill="#455A64"/>
<path d="M114.77 175.34C114.19 175.8 82.4805 190.04 82.4805 190.04C82.4805 190.04 91.2105 208.58 108.16 200.32C123.63 192.78 114.77 175.34 114.77 175.34Z" fill="#455A64"/>
<path d="M114.421 99.21C115.141 99.21 115.721 117.95 115.721 141.06C115.721 164.17 115.141 182.91 114.421 182.91C113.701 182.91 113.121 164.17 113.121 141.06C113.121 117.95 113.701 99.21 114.421 99.21Z" fill="#455A64"/>
<path d="M87.0012 147.59C86.4112 148.04 54.7012 162.28 54.7012 162.28C54.7012 162.28 63.4412 180.82 80.3812 172.56C95.8712 165 87.0012 147.59 87.0012 147.59Z" fill="#455A64"/>
<path d="M86.6613 102C87.3813 102 87.9613 113.89 87.9613 128.55C87.9613 143.21 87.3813 155.11 86.6613 155.11C85.9413 155.11 85.3613 143.22 85.3613 128.55C85.3613 113.88 85.9413 102 86.6613 102Z" fill="#455A64"/>
<path d="M175.06 208.53C192.954 208.53 207.46 194.024 207.46 176.13C207.46 158.236 192.954 143.73 175.06 143.73C157.166 143.73 142.66 158.236 142.66 176.13C142.66 194.024 157.166 208.53 175.06 208.53Z" fill="#455A64"/>
<path d="M173.851 147.36L171.311 105.69H183.251L179.941 147.36H173.851Z" fill="#455A64"/>
<path d="M188.691 198.86L188.481 199.01L187.821 199.39C187.531 199.55 187.181 199.78 186.741 199.99L185.201 200.68C181.862 202.032 178.283 202.692 174.681 202.62C169.321 202.529 164.106 200.867 159.681 197.84C157.078 196.031 154.853 193.732 153.131 191.07C149.401 185.319 147.93 178.391 149.001 171.62C149.485 168.489 150.576 165.483 152.211 162.77C155.03 158.192 159.129 154.541 164.001 152.27C167.263 150.738 170.8 149.88 174.401 149.75H176.001C176.491 149.75 176.901 149.83 177.231 149.85L177.981 149.94C178.068 149.93 178.155 149.93 178.241 149.94H178.001H177.241C176.911 149.94 176.501 149.88 176.011 149.88H174.341C170.786 150.094 167.305 150.994 164.091 152.53C159.32 154.83 155.321 158.467 152.581 163C150.984 165.666 149.921 168.618 149.451 171.69C148.421 178.337 149.87 185.131 153.521 190.78C155.199 193.393 157.37 195.656 159.911 197.44C163.56 199.939 167.758 201.521 172.148 202.052C176.538 202.583 180.992 202.047 185.131 200.49L186.671 199.84C187.121 199.64 187.471 199.44 187.771 199.29L188.451 198.95L188.691 198.86Z" fill="#263238"/>
<path d="M45.1602 51.79L56.6302 93.29H105.22L116.7 51.79H45.1602Z" fill="#455A64"/>
<path d="M114.421 60C114.421 60.15 99.4214 60.27 80.9314 60.27C62.4414 60.27 47.4414 60.16 47.4414 60C47.4414 59.84 62.4414 59.74 80.9314 59.74C99.4214 59.74 114.421 59.87 114.421 60Z" fill="#263238"/>
<path d="M123.33 62.49H113.33L114.93 58.15H123.28C123.856 58.15 124.408 58.3786 124.814 58.7856C125.221 59.1926 125.45 59.7445 125.45 60.32C125.45 60.887 125.228 61.4315 124.832 61.837C124.436 62.2426 123.897 62.477 123.33 62.49Z" fill="#263238"/>
<path d="M38.4513 62.49H48.4013L46.8113 58.15H38.4513C37.8757 58.15 37.3238 58.3786 36.9168 58.7856C36.5099 59.1926 36.2812 59.7445 36.2812 60.32C36.2812 60.8955 36.5099 61.4475 36.9168 61.8544C37.3238 62.2614 37.8757 62.49 38.4513 62.49Z" fill="#263238"/>
<path d="M214.351 92.73H32.8809V105.7H214.351V92.73Z" fill="#8E4D30"/>
<path d="M449.12 277.42C447.786 276.9 446.3 276.93 444.988 277.503C443.676 278.077 442.645 279.147 442.12 280.48L434.07 302.05L444.07 305.73L452.19 284.37C452.697 283.041 452.659 281.565 452.084 280.264C451.51 278.962 450.444 277.94 449.12 277.42Z" fill="#8E4D30"/>
<path d="M448.901 284.24C448.901 284.695 448.766 285.14 448.512 285.519C448.259 285.897 447.899 286.192 447.479 286.366C447.058 286.54 446.595 286.585 446.148 286.495C445.702 286.405 445.292 286.185 444.971 285.863C444.65 285.54 444.431 285.129 444.344 284.683C444.256 284.236 444.303 283.773 444.479 283.353C444.654 282.933 444.951 282.574 445.33 282.323C445.71 282.071 446.155 281.938 446.611 281.94C446.913 281.939 447.212 281.997 447.491 282.113C447.77 282.228 448.024 282.397 448.237 282.611C448.45 282.825 448.618 283.079 448.732 283.359C448.846 283.639 448.903 283.938 448.901 284.24Z" fill="#FAFAFA"/>
<path d="M443.2 298.38C443.202 298.835 443.068 299.281 442.817 299.661C442.565 300.04 442.207 300.336 441.787 300.512C441.367 300.688 440.904 300.735 440.457 300.647C440.01 300.559 439.599 300.341 439.277 300.02C438.954 299.699 438.734 299.289 438.645 298.842C438.555 298.396 438.6 297.933 438.774 297.512C438.948 297.091 439.242 296.732 439.621 296.478C439.999 296.225 440.444 296.09 440.9 296.09C441.508 296.09 442.091 296.331 442.522 296.76C442.953 297.189 443.197 297.772 443.2 298.38Z" fill="#FAFAFA"/>
<path d="M434.09 302.05L418.58 342.51L437.67 342.27L453.24 308.84L434.09 302.05Z" fill="#E0E0E0"/>
<path d="M448.51 342.51H395.01V404.04H448.51V342.51Z" fill="#8E4D30"/>
<path d="M448.51 357.83C448.51 357.98 436.51 358.1 421.76 358.1C407.01 358.1 395 358 395 357.83C395 357.66 407 357.57 421.75 357.57C436.5 357.57 448.51 357.69 448.51 357.83Z" fill="white"/>
<path d="M448.51 364.46C448.51 364.6 436.51 364.72 421.76 364.72C407.01 364.72 395 364.6 395 364.46C395 364.32 407 364.2 421.75 364.2C436.5 364.2 448.51 364.31 448.51 364.46Z" fill="white"/>
<path d="M448.51 371.08C448.51 371.23 436.51 371.34 421.76 371.34C407.01 371.34 395.01 371.23 395.01 371.08C395.01 370.93 407.01 370.82 421.76 370.82C436.51 370.82 448.51 370.94 448.51 371.08Z" fill="white"/>
<path d="M448.51 377.71C448.51 377.85 436.51 377.97 421.76 377.97C407.01 377.97 395.01 377.85 395.01 377.71C395.01 377.57 407.01 377.45 421.76 377.45C436.51 377.45 448.51 377.56 448.51 377.71Z" fill="white"/>
<path d="M448.51 384.33C448.51 384.47 436.51 384.59 421.76 384.59C407.01 384.59 395.01 384.47 395.01 384.33C395.01 384.19 407.01 384.07 421.76 384.07C436.51 384.07 448.51 384.19 448.51 384.33Z" fill="white"/>
<path d="M448.51 391C448.51 391.15 436.51 391.26 421.76 391.26C407.01 391.26 395 391.1 395 391C395 390.9 407 390.74 421.75 390.74C436.5 390.74 448.51 390.81 448.51 391Z" fill="white"/>
<path d="M363.57 308.64L399.34 311.5C399.34 311.5 400.34 294.13 383.6 292.29C366.86 290.45 363.57 308.64 363.57 308.64Z" fill="#455A64"/>
<path d="M409.15 342.51C408.47 342.74 404.75 333.83 400.85 322.6C396.95 311.37 394.33 302.06 395.01 301.83C395.69 301.6 399.4 310.51 403.31 321.74C407.22 332.97 409.83 342.27 409.15 342.51Z" fill="#455A64"/>
<path d="M411.289 460.34C411.058 460.416 410.82 460.469 410.579 460.5L408.529 460.84L407.049 461.07C406.499 461.14 405.909 461.18 405.269 461.25C403.989 461.36 402.539 461.55 400.929 461.57L398.399 461.65C397.519 461.65 396.599 461.65 395.649 461.65C393.749 461.65 391.729 461.46 389.649 461.29C380.39 460.396 371.35 457.931 362.919 454C361.009 453.06 359.169 452.19 357.529 451.22C356.709 450.75 355.899 450.32 355.149 449.85L352.999 448.44C351.619 447.6 350.469 446.69 349.429 445.95C348.909 445.57 348.429 445.23 347.989 444.89L346.829 443.89L345.239 442.56C345.049 442.412 344.871 442.248 344.709 442.07C344.926 442.18 345.127 442.318 345.309 442.48L346.959 443.73L348.139 444.65C348.579 444.98 349.069 445.31 349.599 445.65C350.649 446.37 351.809 447.25 353.199 448.07L355.339 449.4C356.089 449.86 356.899 450.27 357.719 450.73C359.359 451.68 361.189 452.53 363.099 453.46C367.309 455.355 371.654 456.933 376.099 458.18C380.549 459.366 385.082 460.215 389.659 460.72C391.769 460.9 393.779 461.11 395.659 461.12C396.609 461.12 397.519 461.21 398.389 461.19L400.919 461.14C402.519 461.14 403.969 460.98 405.249 460.9C405.879 460.9 406.479 460.82 407.019 460.76L408.499 460.58L410.559 460.33C410.802 460.315 411.046 460.319 411.289 460.34Z" fill="#455A64"/>
<path d="M368.709 456.4C361.209 455.4 351.409 458.3 345.789 463.4C353.759 462.329 361.501 459.965 368.709 456.4Z" fill="#455A64"/>
<path d="M369.089 456.49C371.839 449.43 367.779 439.49 367.779 439.49C366.989 438.15 367.339 448.66 369.089 456.49Z" fill="#455A64"/>
<path d="M357.249 450.89C359.249 445.71 356.339 438.43 356.339 438.43C355.779 437.43 356.009 445.16 357.249 450.89Z" fill="#455A64"/>
<path d="M379.69 459C381.69 453.82 378.78 446.54 378.78 446.54C378.21 445.54 378.44 453.27 379.69 459Z" fill="#455A64"/>
<path d="M357.48 451C351.89 450.26 344.6 452.42 340.43 456.2C346.358 455.407 352.118 453.651 357.48 451Z" fill="#455A64"/>
<path d="M380.83 459.79C372.9 459.9 363.2 464.4 358.15 470.51C366.244 468.196 373.905 464.575 380.83 459.79Z" fill="#455A64"/>
<path d="M411.049 421.92C409.432 419.492 407.188 417.546 404.555 416.29C401.921 415.034 398.997 414.515 396.093 414.786C393.188 415.058 390.411 416.111 388.056 417.834C385.702 419.556 383.857 421.884 382.719 424.57C380.903 429.169 380.985 434.301 382.949 438.84C384.941 443.328 388.183 447.147 392.289 449.84C402.859 457.04 418.189 456.71 428.009 448.52C431.659 445.52 434.589 441.33 435.259 436.63C435.648 433.896 435.264 431.107 434.151 428.579C433.039 426.052 431.242 423.885 428.963 422.325C426.684 420.765 424.014 419.873 421.255 419.75C418.496 419.627 415.757 420.278 413.349 421.63" fill="#8E4D30"/>
<path d="M411.09 421.9C410.739 420.614 409.944 419.494 408.845 418.74C407.746 417.986 406.416 417.645 405.09 417.78L408.63 421.99C407.667 422.122 406.758 422.507 405.993 423.106C405.229 423.706 404.638 424.497 404.28 425.4C404.12 425.83 404.07 426.4 404.48 426.66C404.625 426.708 404.779 426.724 404.931 426.706C405.082 426.689 405.229 426.639 405.36 426.56L409.66 424.78C409.955 427.179 410.834 429.469 412.22 431.45C413.203 429.344 413.754 427.063 413.84 424.74L418.59 426.84C418.214 425.473 417.438 424.25 416.36 423.33C417.776 423.061 419.132 422.536 420.36 421.78C420.73 421.55 421.13 421.16 420.97 420.78C420.81 420.4 420.45 420.39 420.12 420.36C416.983 420.062 413.829 420.718 411.07 422.24" fill="#455A64"/>
<path d="M410.78 423.68C411.516 418.874 411.112 413.961 409.6 409.34C410.73 409.09 412.12 408.92 412.86 409.82C413.226 410.386 413.394 411.058 413.34 411.73C413.394 416.279 412.53 420.793 410.8 425" fill="#455A64"/>
<path d="M387.72 440.89C387.439 440.68 387.19 440.431 386.98 440.15C386.365 439.413 385.831 438.612 385.39 437.76C383.887 434.925 383.356 431.676 383.88 428.51C384.404 425.345 385.953 422.439 388.29 420.24C388.978 419.573 389.739 418.985 390.56 418.49C390.853 418.295 391.168 418.137 391.5 418.02C390.466 418.785 389.481 419.613 388.55 420.5C386.352 422.696 384.897 425.525 384.389 428.59C383.882 431.656 384.347 434.803 385.72 437.59C386.316 438.731 386.984 439.833 387.72 440.89Z" fill="white"/>
<path d="M392.49 444.49C392.44 444.62 391.69 444.49 390.93 443.92C390.17 443.35 389.78 442.72 389.93 442.63C390.08 442.54 390.58 443 391.27 443.5C391.96 444 392.54 444.35 392.49 444.49Z" fill="white"/>
<path d="M191.529 367.05C191.089 367.15 194.319 383.37 194.319 383.37H202.579L206.229 367.7C201.494 366.076 196.39 365.85 191.529 367.05Z" fill="#455A64"/>
<path d="M186.549 458.36C186.549 458.36 174.389 424.3 176.089 415.06C177.789 405.82 181.439 403.87 184.359 400.95C187.279 398.03 189.709 395.6 190.439 392.68C191.169 389.76 190.439 378.09 190.439 378.09C190.439 378.09 188.249 374.68 188.979 373.47C189.709 372.26 207.709 373.47 207.709 373.47C207.607 374.954 207.102 376.382 206.249 377.6C206.249 377.6 205.769 391.22 206.499 392.68C207.229 394.14 218.419 406.55 220.119 412.87C221.819 419.19 213.399 458.36 213.399 458.36H186.549Z" fill="#F5F5F5"/>
<path d="M186.55 458.36H187.02H188.39H193.67L213.4 458.27L213.24 458.4C214.24 453.45 215.39 447.84 216.53 441.67C217.67 435.5 218.86 428.76 219.69 421.53C219.88 419.72 220.05 417.89 220.09 416.02C220.262 414.148 219.861 412.268 218.94 410.63C217.08 407.166 214.907 403.879 212.45 400.81C211.23 399.21 209.95 397.62 208.66 396.02C208.02 395.21 207.37 394.41 206.74 393.57C206.57 393.352 206.414 393.125 206.27 392.89C206.169 392.623 206.102 392.344 206.07 392.06C205.994 391.533 205.947 391.002 205.93 390.47C205.74 386.26 205.87 382 205.99 377.67V377.6V377.54C206.17 377.24 206.37 376.92 206.54 376.54C207.026 375.608 207.319 374.588 207.4 373.54L207.64 373.79C203.54 373.53 199.48 373.33 195.51 373.26C193.563 373.19 191.614 373.266 189.68 373.49C189.497 373.52 189.322 373.581 189.16 373.67C189.072 373.832 189.03 374.016 189.04 374.2C189.069 374.653 189.17 375.099 189.34 375.52C189.683 376.39 190.105 377.227 190.6 378.02V378.08V378.14C190.78 381.25 190.91 384.31 190.92 387.32C190.943 388.819 190.887 390.317 190.75 391.81C190.562 393.302 190.002 394.722 189.12 395.94C188.292 397.117 187.365 398.221 186.35 399.24C185.35 400.24 184.35 401.24 183.35 402.19C182.331 403.079 181.369 404.031 180.47 405.04C179.623 406.037 178.904 407.135 178.33 408.31C177.26 410.59 176.522 413.011 176.14 415.5C176.015 416.69 176.015 417.89 176.14 419.08C176.22 420.25 176.38 421.41 176.54 422.54C177.245 426.703 178.159 430.829 179.28 434.9C181.28 442.34 183.16 448.2 184.45 452.23C185.11 454.23 185.62 455.76 185.97 456.83C186.14 457.34 186.26 457.74 186.36 458.02C186.46 458.3 186.48 458.43 186.48 458.43C186.417 458.304 186.364 458.174 186.32 458.04L185.88 456.86C185.51 455.86 184.97 454.28 184.29 452.28C182.94 448.28 181 442.43 178.96 434.98C177.96 431.26 176.91 427.14 176.16 422.6C175.99 421.46 175.83 420.3 175.74 419.1C175.605 417.884 175.605 416.656 175.74 415.44C176.122 412.907 176.866 410.442 177.95 408.12C178.537 406.91 179.273 405.778 180.14 404.75C181.046 403.725 182.018 402.76 183.05 401.86C184.05 400.93 185.05 399.93 186 398.92C186.997 397.916 187.907 396.828 188.72 395.67C189.555 394.514 190.085 393.165 190.26 391.75C190.389 390.277 190.442 388.798 190.42 387.32C190.42 384.32 190.27 381.27 190.09 378.17V378.29C189.565 377.469 189.123 376.598 188.77 375.69C188.585 375.213 188.474 374.71 188.44 374.2C188.422 373.902 188.503 373.607 188.67 373.36C188.895 373.156 189.178 373.027 189.48 372.99C191.454 372.755 193.443 372.675 195.43 372.75C199.43 372.81 203.43 373.01 207.59 373.28H208V373.53C207.923 374.668 207.613 375.777 207.09 376.79C206.911 377.134 206.714 377.468 206.5 377.79V377.66C206.38 381.97 206.25 386.24 206.43 390.41C206.451 390.925 206.497 391.439 206.57 391.95C206.595 392.181 206.646 392.409 206.72 392.63C206.85 392.83 206.98 393.03 207.14 393.24C207.75 394.06 208.41 394.86 209.05 395.66C210.34 397.27 211.62 398.86 212.84 400.47C215.318 403.568 217.504 406.889 219.37 410.39C220.317 412.099 220.732 414.053 220.56 416C220.56 417.89 220.34 419.74 220.14 421.55C219.3 428.8 218.07 435.55 216.93 441.71C215.79 447.87 214.62 453.5 213.55 458.44V458.58H213.41L193.6 458.49H188.35H187.01L186.55 458.36Z" fill="#263238"/>
<path d="M211.07 454.83C214.152 443.449 216.194 431.811 217.17 420.06C217.28 418.72 217.28 417.17 216.26 416.28C215.02 415.2 213.13 415.78 211.56 416.28C206.946 417.744 202.034 418.006 197.29 417.04C192.68 416.04 188.1 413.98 183.46 414.75C182.87 414.8 182.296 414.968 181.772 415.244C181.248 415.521 180.785 415.9 180.41 416.36C179.66 417.48 179.84 418.95 180.05 420.28C181.88 431.72 185.61 444.86 188.64 454.83H211.07Z" fill="#8E4D30"/>
<path d="M214.12 417.69C213.869 418.04 213.577 418.359 213.25 418.64C212.392 419.451 211.469 420.191 210.49 420.85C207.26 423.074 203.544 424.491 199.652 424.98C195.761 425.469 191.81 425.016 188.13 423.66C187.018 423.264 185.941 422.776 184.91 422.2C184.52 422.013 184.157 421.774 183.83 421.49C183.83 421.4 185.45 422.38 188.25 423.32C191.889 424.544 195.758 424.93 199.567 424.45C203.376 423.971 207.028 422.637 210.25 420.55C212.77 419 214.05 417.61 214.12 417.69Z" fill="white"/>
</svg>
