<svg width="500" height="431" viewBox="0 0 500 431" fill="none" xmlns="http://www.w3.org/2000/svg">
<g clip-path="url(#clip0_58176_4940)">
<path d="M243.769 317.214C255.672 320.934 263.404 330.101 261.04 337.688C258.675 345.276 247.111 348.41 235.205 344.687C230.429 343.265 226.061 340.719 222.469 337.26L172.236 320.862L180.421 297.412L229.072 316.067C233.992 315.268 239.032 315.662 243.769 317.214Z" fill="#FFB6B6"/>
<path d="M136.158 145.157C124.18 143.736 113.151 151.845 110.92 163.719C102.962 206.07 86.0582 297.652 88.2842 299.882C91.1822 302.785 199.374 334.717 199.374 334.717L211.932 307.623L140.448 272.787L156.125 171.494C158.116 158.634 149.058 146.688 136.158 145.157Z" fill="#E6E6E6"/>
<path d="M266.502 361.267C254.888 365.811 243.134 363.492 240.248 356.087C237.362 348.683 244.438 338.999 256.056 334.455C260.673 332.576 265.671 331.832 270.633 332.285L320.084 313.653L328.317 337.086L278.693 352.965C275.35 356.668 271.169 359.515 266.502 361.267Z" fill="#A0616A"/>
<path d="M337.815 160.148C349.67 157.924 361.218 165.273 364.241 176.969C375.023 218.689 398.032 308.926 395.96 311.3C393.263 314.392 287.459 353.536 287.459 353.536L273.111 327.348L342.097 287.779L319.659 187.77C316.811 175.074 325.047 162.544 337.815 160.148Z" fill="#E6E6E6"/>
<path d="M127.674 151.241L133.566 114.353L93.7961 98.1228L87.9043 154.192L127.674 151.241Z" fill="#FFB6B6"/>
<path d="M359.947 157.047L354.055 120.159L393.825 103.929L399.716 159.998L359.947 157.047Z" fill="#A0616A"/>
<path d="M117.624 126.211C140.022 126.211 158.18 108.023 158.18 85.5856C158.18 63.1486 140.022 44.9598 117.624 44.9598C95.2258 44.9598 77.0684 63.1486 77.0684 85.5856C77.0684 108.023 95.2258 126.211 117.624 126.211Z" fill="#FFB6B6"/>
<path d="M114.387 30.9671C115.561 31.6533 117.133 30.6151 117.509 29.3071C117.885 27.9992 117.447 26.6105 117.012 25.3208L114.824 18.8285C113.272 14.224 111.625 9.45862 108.264 5.954C103.191 0.664352 95.1286 -0.681315 87.8711 0.293574C78.5509 1.54552 69.3551 6.60099 65.0215 14.9609C60.6879 23.3207 62.5329 34.9858 70.3634 40.2015C59.2032 53.015 55.3129 67.2952 55.9272 84.289C56.5415 101.283 75.0286 116.923 87.0847 128.894C89.7771 127.259 92.2247 119.597 90.7442 116.814C89.2636 114.031 91.3849 110.806 89.5513 108.242C87.7177 105.679 86.1837 109.761 88.0374 107.212C89.2071 105.603 84.6417 101.902 86.3804 100.94C94.7904 96.2829 97.5875 85.7822 102.869 77.7409C109.241 68.0417 120.145 61.4733 131.684 60.3836C138.041 59.7833 144.755 60.8705 149.965 64.5673C155.175 68.264 158.549 74.8701 157.34 81.1504C160.469 77.9677 162.027 73.3035 161.44 68.8754C160.852 64.4473 158.132 60.3526 154.282 58.0991C156.623 50.3437 154.618 41.4227 149.184 35.4212C143.75 29.4198 121.707 30.442 113.774 32.0214" fill="#2F2E41"/>
<path d="M113.156 60.619C102.649 61.7552 95.0623 70.8725 88.6561 79.2923C84.9638 84.1453 81.096 89.5046 81.1888 95.6057C81.2825 101.774 85.3996 107.065 87.3672 112.911C90.5833 122.466 87.4488 133.834 79.793 140.381C87.3578 141.819 95.5356 136.137 96.8415 128.536C98.3618 119.687 91.6654 111.146 92.4585 102.202C93.1572 94.3228 99.356 88.2585 104.626 82.367C109.896 76.4754 114.845 68.6575 112.421 61.1289" fill="#2F2E41"/>
<path d="M132.268 145.055L86.3522 132.476L39.0184 151.829L18.7324 312.461L134.652 316.332V290.422C134.652 290.422 154.938 265.046 151.074 228.274L147.21 191.503L132.268 145.055Z" fill="#E6E6E6"/>
<path d="M153.49 210.373L62.686 205.534L38.0531 275.69C38.0531 275.69 7.6242 317.783 2.79421 348.749C-2.03578 379.714 0.862211 423.259 0.862211 423.259H146.233L134.653 290.422C134.653 290.422 161.689 231.661 158.556 221.501C155.422 211.34 153.49 210.373 153.49 210.373Z" fill="#3F3D56"/>
<path d="M83.9386 132.96H61.7207V215.211H83.9386V132.96Z" fill="#3F3D56"/>
<path d="M152.525 151.345H130.307V219.082H152.525V151.345Z" fill="#3F3D56"/>
<path d="M353.421 152.797L399.336 140.217L446.67 159.57L466.956 320.203L351.036 324.073V298.163C351.036 298.163 339.178 271.674 350.553 236.5C361.662 202.148 338.479 199.245 338.479 199.245L353.421 152.797Z" fill="#E6E6E6"/>
<path d="M332.199 218.114L423.003 213.276L447.636 283.431C447.636 283.431 462.609 331.331 467.439 362.296C472.269 393.261 484.827 431 484.827 431H339.456L335.097 303.268L332.199 218.114Z" fill="#3F3D56"/>
<path d="M423.97 140.701H401.752V222.952H423.97V140.701Z" fill="#3F3D56"/>
<path d="M355.384 159.087H333.166V226.823H355.384V159.087Z" fill="#3F3D56"/>
<path d="M368.929 131.857C396.983 131.857 419.724 109.076 419.724 80.9748C419.724 52.8733 396.983 30.0925 368.929 30.0925C340.876 30.0925 318.135 52.8733 318.135 80.9748C318.135 109.076 340.876 131.857 368.929 131.857Z" fill="#A0616A"/>
<path d="M418.891 108.577C418.891 108.577 394.316 79.0365 384.486 81.4982C374.656 83.9599 380.8 87.6525 380.8 87.6525L356.225 60.5735C356.225 60.5735 336.565 53.1882 318.134 76.5747C318.134 76.5747 307.075 56.8809 318.134 45.803C329.192 34.7252 332.879 35.9561 335.336 29.8018C337.794 23.6474 354.996 18.724 354.996 18.724C354.996 18.724 354.009 9.86558 359.418 14.2948C364.826 18.724 378.333 18.724 378.333 18.724C378.333 18.724 378.41 13.8005 383.906 18.724C389.401 23.6474 395.545 21.1857 395.545 21.1857C395.545 21.1857 395.545 29.7048 399.846 29.7533C404.146 29.8018 411.519 23.6474 412.747 28.5709C413.976 33.4944 422.577 35.9561 423.806 50.7265C425.035 65.4969 418.891 108.577 418.891 108.577Z" fill="#2F2E41"/>
<path d="M230.505 184.522L269.832 258.996L264.441 261.852L225.114 187.378C224.543 186.297 224.956 184.955 226.035 184.384L227.516 183.599C228.595 183.027 229.934 183.441 230.505 184.522Z" fill="#3F3D56"/>
<path d="M296.024 287.141C286.019 284.557 275.552 289.133 270.531 298.179C264.244 309.507 257.062 318.799 259.467 296.652C262.115 272.269 247.835 252.576 259.057 246.63C270.279 240.684 281.867 258.756 300.106 275.118C317.009 290.283 307.262 290.043 296.024 287.141Z" fill="#3F3D56"/>
<path d="M238.111 199.588C249.453 194.4 261.318 196.057 264.613 203.289C267.907 210.52 261.384 220.584 250.037 225.772C245.533 227.907 240.584 228.93 235.604 228.756L187.271 250.128L177.742 227.194L226.402 208.56C229.533 204.675 233.548 201.599 238.111 199.588Z" fill="#FFB6B6"/>
<path d="M43.3374 143.404C33.471 150.354 30.661 163.766 36.9103 174.1C59.2004 210.959 107.63 290.46 110.773 290.632C114.866 290.856 216.711 242.304 216.711 242.304L208.01 213.731L131.567 235.58L75.7542 149.667C68.6688 138.76 53.9638 135.919 43.3374 143.404Z" fill="#E6E6E6"/>
<path d="M242.943 313.962L373.589 244.734L389.626 275.105C403.461 301.303 393.459 333.824 367.306 347.682L331.433 366.691C305.28 380.549 272.815 370.53 258.981 344.332L242.943 313.962Z" fill="#8E4D30"/>
<path d="M353.631 360.496C342.29 365.685 330.424 364.029 327.128 356.799C323.833 349.568 330.355 339.502 341.701 334.313C346.205 332.178 351.154 331.154 356.133 331.327L404.464 309.948L413.995 332.881L365.339 351.522C362.207 355.407 358.193 358.484 353.631 360.496Z" fill="#A0616A"/>
<path d="M451.927 155.801C463.904 154.38 474.933 162.49 477.164 174.363C485.123 216.714 502.026 308.296 499.8 310.526C496.902 313.429 388.71 345.362 388.71 345.362L376.152 318.267L447.636 283.431L431.959 182.138C429.969 169.279 439.026 157.332 451.927 155.801Z" fill="#E6E6E6"/>
</g>
<defs>
<clipPath id="clip0_58176_4940">
<rect width="500" height="431" fill="white"/>
</clipPath>
</defs>
</svg>
