<svg width="500" height="500" viewBox="0 0 500 500" fill="none" xmlns="http://www.w3.org/2000/svg">
<g clip-path="url(#clip0_58176_5310)">
<path d="M249.999 427.56C357.082 427.56 443.889 422.492 443.889 416.24C443.889 409.988 357.082 404.92 249.999 404.92C142.917 404.92 56.1094 409.988 56.1094 416.24C56.1094 422.492 142.917 427.56 249.999 427.56Z" fill="#F5F5F5"/>
<path d="M500.119 381.96H0.119141V382.21H500.119V381.96Z" fill="#E0E0E0"/>
<path d="M109.54 393.95H51.7695V394.2H109.54V393.95Z" fill="#E0E0E0"/>
<path d="M235.779 388.52H209.459V388.77H235.779V388.52Z" fill="#E0E0E0"/>
<path d="M296.678 388.39H245.398V388.64H296.678V388.39Z" fill="#E0E0E0"/>
<path d="M394.289 391.39H381.799V391.64H394.289V391.39Z" fill="#E0E0E0"/>
<path d="M338.67 391.39H288.85V391.64H338.67V391.39Z" fill="#E0E0E0"/>
<path d="M129.119 393.95H119.219V394.2H129.119V393.95Z" fill="#E0E0E0"/>
<path d="M445.699 391.39H402.449V391.64H445.699V391.39Z" fill="#E0E0E0"/>
<path d="M237.119 54.56H43.9988C42.7832 54.5611 41.5996 54.9495 40.6197 55.6687C39.6397 56.3879 38.9144 57.4007 38.5488 58.56C38.3841 59.0808 38.2998 59.6237 38.2988 60.17V331.65C38.2988 333.163 38.899 334.614 39.9677 335.684C41.0364 336.755 42.4862 337.357 43.9988 337.36H237.119C238.633 337.36 240.086 336.758 241.156 335.688C242.227 334.617 242.829 333.164 242.829 331.65V60.27C242.829 58.7556 242.227 57.3033 241.156 56.2324C240.086 55.1616 238.633 54.56 237.119 54.56ZM242.579 331.65C242.576 333.097 242 334.485 240.977 335.508C239.953 336.531 238.566 337.107 237.119 337.11H43.9988C42.5525 337.107 41.1663 336.531 40.1445 335.507C39.1227 334.484 38.5488 333.096 38.5488 331.65V60.22C38.5488 58.7736 39.1227 57.3864 40.1445 56.3627C41.1663 55.3391 42.5525 54.7626 43.9988 54.76H237.119C238.565 54.7653 239.951 55.3422 240.974 56.365C241.997 57.3878 242.574 58.7735 242.579 60.22V331.65Z" fill="#E0E0E0"/>
<path d="M453.429 54.56H260.329C258.824 54.5625 257.381 55.1581 256.312 56.2176C255.243 57.2771 254.635 58.7151 254.619 60.22V331.65C254.619 333.164 255.221 334.617 256.292 335.688C257.362 336.758 258.815 337.36 260.329 337.36H453.429C454.94 337.355 456.387 336.751 457.454 335.681C458.52 334.61 459.119 333.161 459.119 331.65V60.22C459.106 58.7178 458.501 57.2812 457.436 56.2217C456.371 55.1622 454.931 54.5652 453.429 54.56ZM458.889 331.65C458.887 333.097 458.31 334.485 457.287 335.508C456.264 336.531 454.876 337.107 453.429 337.11H260.329C258.881 337.11 257.492 336.535 256.468 335.511C255.444 334.487 254.869 333.098 254.869 331.65V60.22C254.872 58.7727 255.448 57.3855 256.471 56.3621C257.495 55.3387 258.882 54.7626 260.329 54.76H453.429C454.876 54.7653 456.261 55.3422 457.284 56.365C458.307 57.3878 458.884 58.7735 458.889 60.22V331.65Z" fill="#E0E0E0"/>
<path d="M371.148 103.69H476.998C476.998 103.69 470.608 92.11 457.428 95.69C457.428 95.69 459.028 76.34 448.638 73.24C438.248 70.14 432.638 82.11 432.638 82.11C432.638 82.11 425.448 59.74 411.868 62.54C398.288 65.34 392.698 88.54 392.698 88.54C392.698 88.54 372.748 81.32 371.148 103.69Z" fill="#F5F5F5"/>
<path d="M218.109 141.56H323.999C323.999 141.56 317.599 129.97 304.419 133.56C304.419 133.56 306.019 114.21 295.629 111.1C285.239 107.99 279.629 119.98 279.629 119.98C279.629 119.98 272.439 97.61 258.859 100.4C245.279 103.19 239.679 126.4 239.679 126.4C239.679 126.4 219.709 119.19 218.109 141.56Z" fill="#F5F5F5"/>
<path d="M216.188 70.2H38.6582V381.96H216.188V70.2Z" fill="#F5F5F5"/>
<path d="M186.608 169.76H74.0684V382.21H186.608V169.76Z" fill="#FAFAFA"/>
<path d="M179.5 176.51H82.1797V382.21H179.5V176.51Z" fill="#E6E6E6"/>
<path d="M222.619 72.47H38.6191V58.61C39.0823 57.4043 39.9082 56.372 40.9828 55.6555C42.0575 54.9391 43.328 54.5738 44.6191 54.61H216.329L216.409 54.81L220.919 67.68L222.619 72.47Z" fill="#EBEBEB"/>
<path d="M47.5401 80.84C52.6266 80.84 56.7501 77.0926 56.7501 72.47C56.7501 67.8474 52.6266 64.1 47.5401 64.1C42.4535 64.1 38.3301 67.8474 38.3301 72.47C38.3301 77.0926 42.4535 80.84 47.5401 80.84Z" fill="#EBEBEB"/>
<path d="M65.9698 80.84C71.0563 80.84 75.1798 77.0926 75.1798 72.47C75.1798 67.8474 71.0563 64.1 65.9698 64.1C60.8832 64.1 56.7598 67.8474 56.7598 72.47C56.7598 77.0926 60.8832 80.84 65.9698 80.84Z" fill="#EBEBEB"/>
<path d="M84.3995 80.84C89.486 80.84 93.6095 77.0926 93.6095 72.47C93.6095 67.8474 89.486 64.1 84.3995 64.1C79.3129 64.1 75.1895 67.8474 75.1895 72.47C75.1895 77.0926 79.3129 80.84 84.3995 80.84Z" fill="#EBEBEB"/>
<path d="M102.829 80.84C107.916 80.84 112.039 77.0926 112.039 72.47C112.039 67.8474 107.916 64.1 102.829 64.1C97.7426 64.1 93.6191 67.8474 93.6191 72.47C93.6191 77.0926 97.7426 80.84 102.829 80.84Z" fill="#EBEBEB"/>
<path d="M121.259 80.84C126.345 80.84 130.469 77.0926 130.469 72.47C130.469 67.8474 126.345 64.1 121.259 64.1C116.172 64.1 112.049 67.8474 112.049 72.47C112.049 77.0926 116.172 80.84 121.259 80.84Z" fill="#EBEBEB"/>
<path d="M139.689 80.84C144.775 80.84 148.899 77.0926 148.899 72.47C148.899 67.8474 144.775 64.1 139.689 64.1C134.602 64.1 130.479 67.8474 130.479 72.47C130.479 77.0926 134.602 80.84 139.689 80.84Z" fill="#EBEBEB"/>
<path d="M158.108 80.84C163.195 80.84 167.318 77.0926 167.318 72.47C167.318 67.8474 163.195 64.1 158.108 64.1C153.022 64.1 148.898 67.8474 148.898 72.47C148.898 77.0926 153.022 80.84 158.108 80.84Z" fill="#EBEBEB"/>
<path d="M176.54 80.84C181.627 80.84 185.75 77.0926 185.75 72.47C185.75 67.8474 181.627 64.1 176.54 64.1C171.454 64.1 167.33 67.8474 167.33 72.47C167.33 77.0926 171.454 80.84 176.54 80.84Z" fill="#EBEBEB"/>
<path d="M194.97 80.84C200.056 80.84 204.18 77.0926 204.18 72.47C204.18 67.8474 200.056 64.1 194.97 64.1C189.883 64.1 185.76 67.8474 185.76 72.47C185.76 77.0926 189.883 80.84 194.97 80.84Z" fill="#EBEBEB"/>
<path d="M222.62 72.47C222.62 77.09 218.49 80.84 213.4 80.84C208.31 80.84 204.18 77.09 204.18 72.47C204.18 67.85 208.31 64.1 213.4 64.1C214.839 64.0797 216.264 64.3869 217.566 64.9985C218.869 65.61 220.016 66.5099 220.92 67.63L222.62 72.47Z" fill="#EBEBEB"/>
<path d="M216.188 97.26H38.6582V100.18H216.188V97.26Z" fill="#FAFAFA"/>
<path d="M353.899 315.88H216.199V322.07H353.899V315.88Z" fill="#E0E0E0"/>
<path d="M245.159 381.95H224.369V285.46L234.759 276.58L245.159 285.46V381.95Z" fill="#E6E6E6"/>
<path d="M274.938 381.95H254.148V285.46L264.548 276.58L274.938 285.46V381.95Z" fill="#E6E6E6"/>
<path d="M304.729 381.95H283.939V285.46L294.329 276.58L304.729 285.46V381.95Z" fill="#E6E6E6"/>
<path d="M334.509 381.95H313.719V285.46L324.119 276.58L334.509 285.46V381.95Z" fill="#E6E6E6"/>
<path d="M364.29 381.95H343.51V285.46L353.9 276.58L364.29 285.46V381.95Z" fill="#E6E6E6"/>
<path d="M149.47 89.58C149.47 89.58 147.54 84.86 135.65 86.26C123.76 87.66 122.53 103.4 116.59 114.59C110.65 125.78 104.34 131.21 104.34 131.21C104.34 131.21 103.47 138.03 116.41 141.88C129.35 145.73 154.71 139.3 154.71 139.3C154.71 139.3 157.99 109.51 153.12 100.42C148.25 91.33 149.47 89.58 149.47 89.58Z" fill="#263238"/>
<path d="M184.23 387.15L168.12 388.15C168.12 388.15 161.29 326.07 153.77 280.87C153.77 280.72 153.77 280.55 153.7 280.38C150.62 261.93 147.43 246.38 144.55 239.09C144.55 239.09 140.85 296.96 139.75 322.65C138.65 348.34 133.52 393.29 133.52 393.29L118.63 395.5C118.63 395.5 116.17 306.02 117.63 289.12C119.09 272.22 112.44 209.62 123.9 194.12H165.35C165.35 194.12 181.4 282.06 182.56 306.44C183.72 330.82 184.23 387.15 184.23 387.15Z" fill="#263238"/>
<path d="M130.021 393.49L129.781 398.29L129.221 409.4L120.881 410.64L120.691 398.65L120.621 394.04L130.021 393.49Z" fill="#FF8B7B"/>
<path d="M180.65 405.66L171.32 408.26C171.32 408.26 171.1 402.65 170.88 397.26C170.74 393.79 170.6 390.41 170.51 388.68C170.51 388.01 170.45 387.6 170.43 387.51L180.49 386.51V389.67L180.56 396.81L180.65 405.66Z" fill="#FF8B7B"/>
<path d="M132.58 406.94C132.58 406.94 134.13 400.73 136.58 401.04C139.03 401.35 132.58 406.94 132.58 406.94Z" stroke="#8E4D30" stroke-miterlimit="10"/>
<path d="M133.281 406.94C133.281 406.94 139.111 402.83 140.191 404.94C141.271 407.05 133.281 406.94 133.281 406.94Z" stroke="#8E4D30" stroke-miterlimit="10"/>
<path d="M184.23 407.57C184.23 407.57 185.53 401 187 401C188.47 401 184.23 407.57 184.23 407.57Z" stroke="#8E4D30" stroke-miterlimit="10"/>
<path d="M183.92 409.61C183.92 409.61 187.34 402.88 189.13 404.33C190.92 405.78 183.92 409.61 183.92 409.61Z" stroke="#8E4D30" stroke-miterlimit="10"/>
<path d="M139.861 415C139.861 415 122.081 415.46 120.791 415.3C119.501 415.14 118.071 415.07 117.971 413.67C117.971 412.99 118.581 408.86 118.681 407.42C118.781 405.98 118.421 405.23 120.231 404.77C122.041 404.31 130.831 403.29 131.891 404.38C132.951 405.47 136.571 409.62 139.251 410.1C141.931 410.58 144.181 410.39 144.371 411.91C144.561 413.43 144.621 414.89 139.861 415Z" fill="#263238"/>
<path d="M191.051 415C191.051 415 173.281 415.46 171.981 415.3C170.681 415.14 169.401 414.75 169.191 414.1C168.981 413.45 169.781 408.86 169.871 407.42C169.961 405.98 169.611 405.23 171.421 404.77C173.231 404.31 182.021 403.29 183.081 404.38C184.141 405.47 187.761 409.62 190.451 410.1C193.141 410.58 195.371 410.39 195.561 411.91C195.751 413.43 195.811 414.89 191.051 415Z" fill="#263238"/>
<path opacity="0.3" d="M153.701 280.37C150.621 261.92 147.431 246.37 144.551 239.08L146.461 228.6C146.461 228.6 151.411 266 153.701 280.37Z" fill="black"/>
<path opacity="0.2" d="M130 393.49L129.76 398.29C127.42 398.38 122.76 398.55 120.67 398.65L120.6 394.04L130 393.49Z" fill="black"/>
<path opacity="0.2" d="M180.58 396.8L170.88 397.26C170.74 393.79 170.6 390.41 170.51 388.68L180.51 389.68L180.58 396.8Z" fill="black"/>
<path d="M186.98 386.5L185.49 394.11L167.73 395.49L165.4 386.5H186.98Z" fill="#8E4D30"/>
<path d="M135.911 388.98L134.351 396.5L115.811 397.38L115.821 388.98H135.911Z" fill="#8E4D30"/>
<path d="M190.9 170.89C186.9 172.8 175.9 174.89 175.9 174.89C175.9 174.89 168.7 156.28 166.8 145.7C166.203 141.918 164.397 138.431 161.651 135.762C158.905 133.094 155.367 131.388 151.57 130.9C146.71 130.27 126.19 130.48 118.99 131.96C111.79 133.44 110.54 144.01 109.9 150.36C109.26 156.71 105.25 180.36 108.63 187.36C112.01 194.36 123.86 191.58 123.86 191.58V194.12H165.32L164.32 174.72C164.32 174.72 168.24 185.02 174.32 185.44C180.4 185.86 194.2 175.72 194.2 175.72L190.9 170.89ZM117.9 181.74C117.9 181.74 118.36 169.66 119.18 166.18L120.43 172.63L122.19 181.74H117.9Z" fill="#8E4D30"/>
<path d="M144.27 179L150.79 171.11L159.94 169.71L161.34 177.84L154.34 180.4C154.34 180.4 150.97 184.46 144.24 183.76L144.27 179Z" fill="#FF8B7B"/>
<path d="M190.9 170.89L194.29 164.67L202.56 161.19L205.69 169.66L198.84 172.33C198.84 172.33 197.05 176.27 194.29 175.76L190.9 170.89Z" fill="#FF8B7B"/>
<path d="M144.41 123.32C144.365 124.039 144.365 124.761 144.41 125.48C144.51 126.85 144.25 129.36 146.94 130.68C145.55 133.68 142.2 141.2 140.17 143.75C137.08 141.22 129.82 131.01 129.82 131.01C129.82 131.01 134.92 125.48 131.26 115.06C131.26 115.06 126.12 111.3 127.15 109.23C128.33 106.82 131.68 108.12 132.39 109.14C131.64 108.04 128.15 95.97 132.39 91.53C135.03 88.76 137.67 88.73 142.59 88.53H143C146.15 88.42 148.49 88.53 148.49 88.53C149.56 89.682 150.502 90.946 151.3 92.3C153.531 95.9425 154.9 100.047 155.3 104.3C156.23 114.21 154.28 122.24 144.41 123.32Z" fill="#FF8B7B"/>
<path d="M147.13 111C147.13 111 142.65 112.52 141.02 109.12" stroke="#263238" stroke-width="0.5" stroke-linecap="round" stroke-linejoin="round"/>
<path d="M141.721 96.7C140.971 96.6779 140.231 96.8668 139.584 97.2452C138.937 97.6236 138.409 98.1762 138.061 98.84" stroke="#263238" stroke-linecap="round" stroke-linejoin="round"/>
<path d="M153.12 95.67C152.756 95.2727 152.317 94.9528 151.827 94.7294C151.337 94.506 150.808 94.3838 150.27 94.37" stroke="#263238" stroke-linecap="round" stroke-linejoin="round"/>
<path d="M149.001 109.16L148.121 101.67L152.531 107.33C152.531 107.33 152.101 109.28 149.001 109.16Z" fill="#FF5652"/>
<path d="M141.761 101.73C141.811 102.49 142.261 103.08 142.761 103.05C143.261 103.02 143.611 102.37 143.551 101.6C143.491 100.83 143.061 100.25 142.551 100.29C142.041 100.33 141.701 101 141.761 101.73Z" fill="#263238"/>
<path d="M150.479 100.48C150.539 101.25 150.979 101.84 151.479 101.8C151.979 101.76 152.329 101.12 152.269 100.35C152.209 99.58 151.769 99 151.269 99.04C150.769 99.08 150.429 99.72 150.479 100.48Z" fill="#263238"/>
<path d="M129.351 103.6C129.351 103.6 124.241 96.75 128.461 92.31C131.101 89.54 138.201 87.73 143.111 87.52C143.001 88.68 143.111 98.84 129.351 103.6Z" fill="#263238"/>
<path d="M151.379 92.33C148.24 92.0128 145.294 90.6662 142.999 88.5L142.609 88.09C144.579 88.0086 146.551 88.1495 148.489 88.51C149.559 89.662 150.501 90.926 151.299 92.28L151.379 92.33Z" fill="#263238"/>
<path opacity="0.2" d="M144.44 125.48C142.267 124.819 140.339 123.528 138.9 121.77C140.623 122.63 142.492 123.156 144.41 123.32C144.376 124.04 144.386 124.761 144.44 125.48Z" fill="black"/>
<path opacity="0.2" d="M120.439 172.63L119.189 166.18V156.92C119.189 156.92 120.629 166.69 120.439 172.63Z" fill="black"/>
<path d="M304.217 142.672L231.324 146.798L234.5 202.899L307.393 198.772L304.217 142.672Z" fill="#8E4D30"/>
<path opacity="0.3" d="M304.217 142.672L231.324 146.798L234.5 202.899L307.393 198.772L304.217 142.672Z" fill="black"/>
<path d="M277.725 144.177L204.832 148.303L208.008 204.403L280.901 200.277L277.725 144.177Z" fill="#8E4D30"/>
<path opacity="0.3" d="M277.725 144.177L204.832 148.303L208.008 204.403L280.901 200.277L277.725 144.177Z" fill="white"/>
<path opacity="0.3" d="M286.744 149.025L271.184 149.958L271.499 155.208L287.059 154.275L286.744 149.025Z" fill="black"/>
<path opacity="0.5" d="M224.918 154.187L209.383 155.066L209.863 163.552L225.398 162.673L224.918 154.187Z" fill="white"/>
<path opacity="0.3" d="M230.344 176.317L206.502 177.666L206.877 184.286L230.719 182.936L230.344 176.317Z" fill="black"/>
<path d="M325.279 96.43L321.279 101.53C322.388 102.304 323.662 102.807 324.999 103L325.279 96.43Z" fill="#A02724"/>
<path d="M394.32 409.21L382.7 408.55L380.34 398.64L379.05 393.21L378.57 391.21L387.51 390.6L388.15 390.55L390.05 396.3L394.32 409.21Z" fill="#B55B52"/>
<path d="M327.5 410.84C327.72 411.63 316.71 410.22 316.71 410.22L316.32 400.97L316.02 393.83V393.44H316.11L327.29 394.55C327.29 394.55 327.29 397.55 327.29 400.96C327.31 405.34 327.37 410.41 327.5 410.84Z" fill="#B55B52"/>
<path d="M350.819 123.25C350.819 123.25 335.119 127.5 336.279 124.42C336.864 122.556 337.097 120.599 336.969 118.65C336.969 117.37 336.809 116.46 336.809 116.46C331.129 116.79 327.309 112.68 325.609 107.62C323.419 101.13 324.219 93.88 326.879 87.72C327.089 87.22 327.689 85.1 328.219 84.84L334.379 82C334.379 82 340.379 85.93 343.499 88.37C346.619 90.81 349.129 102.15 349.129 110.97C349.129 119.79 350.819 123.25 350.819 123.25Z" fill="#B55B52"/>
<path d="M324.81 94.56C324.533 94.6358 324.287 94.7977 324.107 95.0223C323.927 95.2469 323.823 95.5227 323.81 95.81C323.769 96.0769 323.81 96.35 323.928 96.5929C324.046 96.8358 324.235 97.0371 324.47 97.17L324.81 94.56Z" fill="#263238"/>
<path d="M324.809 89.48C325.462 89.4654 326.105 89.6427 326.659 89.99" stroke="#263238" stroke-linecap="round" stroke-linejoin="round"/>
<path d="M330.269 105.71C330.269 105.71 334.829 112.83 342.089 114.46C349.349 116.09 351.639 113.57 352.609 109.46C353.45 105.585 355.31 102.005 357.999 99.09C360.509 96.5 358.999 89.47 355.809 83.69C355.809 83.69 359.229 80.82 353.719 78.06C348.209 75.3 346.179 79.89 341.399 77.21C336.619 74.53 342.999 73.64 338.489 82C333.979 90.36 331.489 84.28 330.819 88C330.149 91.72 326.659 98.18 330.269 105.71Z" fill="#263238"/>
<path d="M330.819 89.73C330.369 89.58 315.909 84.35 315.769 81.98C315.629 79.61 326.979 83.92 327.409 84.09L330.339 88.72L330.819 89.73Z" fill="#8E4D30"/>
<path d="M360 95.46C359.86 95.89 359 98.74 358.63 98.74L357.42 98.67C356.293 98.5767 355.173 98.4467 354.06 98.28C352.83 98.09 351.62 97.85 350.43 97.57H350.38C349.17 97.28 347.98 96.96 346.82 96.57C343.973 95.7103 341.178 94.6852 338.45 93.5C336.91 92.83 335.55 92.18 334.45 91.62C332.2 90.5 330.86 89.71 330.86 89.71L330.66 89.38L329.84 88.09L328.09 85.32L327.49 84.39V84.32C327.462 84.2356 327.462 84.1444 327.49 84.06C327.55 83 329.72 80.06 330.11 79.56C331.716 77.4133 333.762 75.6337 336.11 74.34C339.33 72.56 342.96 73.34 346.38 73.94C347.511 74.1749 348.614 74.5303 349.67 75L350.34 75.29L350.47 75.35C350.59 75.42 350.72 75.47 350.84 75.53L351.06 75.64C353.601 76.8301 355.913 78.4583 357.89 80.45C362.39 85.5 360.56 93.83 360 95.46Z" fill="#8E4D30"/>
<path d="M355.109 128.62C355.109 128.62 354.389 123.62 352.819 122.62C351.249 121.62 335.649 121.77 333.219 123.48C330.789 125.19 331.219 130.78 331.219 130.78L355.109 128.62Z" fill="#8E4D30"/>
<path d="M327.42 97.81C327.42 97.81 330.08 94.37 332.93 96.5C335.78 98.63 333.52 103.68 330.17 105.1C330.17 105.1 325.84 106.51 325.28 102.1C324.72 97.69 327.42 97.81 327.42 97.81Z" fill="#B55B52"/>
<path d="M316.75 217.53C316.75 217.53 310.8 274.46 309.14 300.64C307.48 326.82 313.58 393.77 313.58 393.77H328.05C328.05 393.77 329.71 327.26 332.21 307.31C334.71 287.36 343.01 260.31 343.01 260.31C343.01 260.31 348.01 303.12 353.01 320.58C358.01 338.04 374.25 391.38 374.25 391.38L390.91 388.18C390.91 388.18 370.91 319.75 370.91 298.55C370.91 277.35 371.1 234.55 366.12 217.55L316.75 217.53Z" fill="#8E4D30"/>
<path opacity="0.3" d="M390.88 388.2L374.23 391.41C374.23 391.41 358 338.07 353 320.61C350.25 311.01 347.51 293.72 345.6 280.11C344 269 343 260.34 343 260.34C343 260.34 334.69 287.34 332.19 307.34C329.69 327.34 328.04 393.8 328.04 393.8H313.58C313.58 393.8 307.48 326.86 309.14 300.68C310.8 274.5 316.75 217.56 316.75 217.56H366.07C371.07 234.56 370.87 277.41 370.87 298.56C370.87 319.71 390.88 388.2 390.88 388.2Z" fill="black"/>
<path opacity="0.3" d="M345.59 280.11C344 269 343 260.34 343 260.34L344 244.8L345.59 280.11Z" fill="black"/>
<path d="M312.01 390.99H329.35L328.5 398.13H312.69L312.01 390.99Z" fill="#263238"/>
<path d="M372.139 389.95L390.889 382.98L393.259 393.12L374.959 398.13L372.139 389.95Z" fill="#263238"/>
<path opacity="0.2" d="M387.509 390.6L379.049 393.21L380.339 398.64L390.049 396.3L387.509 390.6Z" fill="black"/>
<path opacity="0.2" d="M327.29 401H316.29L315.99 393.86L316.06 393.48L327.24 394.59C327.24 394.59 327.27 397.55 327.29 401Z" fill="black"/>
<path d="M311 414.39C311.07 414.58 304.08 410.51 306 408.61C307.92 406.71 311 414.39 311 414.39Z" stroke="#8E4D30" stroke-miterlimit="10"/>
<path d="M311.999 414.1C311.949 414.3 308.099 407.19 310.719 406.56C313.339 405.93 311.999 414.1 311.999 414.1Z" stroke="#8E4D30" stroke-miterlimit="10"/>
<path d="M381.09 410.07C381.09 410.07 378.8 402.7 376.58 403.91C374.36 405.12 381.09 410.07 381.09 410.07Z" stroke="#8E4D30" stroke-miterlimit="10"/>
<path d="M380.469 410.71C380.469 410.71 375.299 405 373.789 407C372.279 409 380.469 410.71 380.469 410.71Z" stroke="#8E4D30" stroke-miterlimit="10"/>
<path d="M394.749 408.53H382.329C382.329 408.53 375.149 412.85 371.999 413.25C368.849 413.65 366.999 413.84 367.089 416.1C367.179 418.36 369.089 418.56 375.539 418.46C381.989 418.36 394.789 419.15 396.179 417.87C397.569 416.59 396.689 414.18 394.749 408.53Z" fill="#263238"/>
<path d="M327.5 410.07L315.5 410.16C315.5 410.16 308.32 414.48 305.18 414.88C302.04 415.28 300.18 415.47 300.26 417.73C300.34 419.99 302.26 420.19 308.72 420.09C315.18 419.99 326.57 420.92 327.96 419.64C329.35 418.36 328.58 416.26 327.5 410.07Z" fill="#263238"/>
<path opacity="0.3" d="M327.409 84.09C327.719 85.68 328.039 86.9 330.669 89.67C327.329 88.43 315.889 84.01 315.769 81.98C315.649 79.95 324.529 83 327.409 84.09Z" fill="black"/>
<path opacity="0.3" d="M327.41 84.341C327.382 84.2563 327.382 84.1647 327.41 84.08C327.41 84.08 327.41 84.1904 327.41 84.4012V84.341Z" fill="black"/>
<path opacity="0.3" d="M330.821 89.7309L330.51 89.6105C330.526 89.5684 330.546 89.528 330.57 89.49L330.821 89.7309Z" fill="black"/>
<path d="M360 95.46C359.86 95.89 359 98.74 358.63 98.74L357.42 98.67C356.293 98.5767 355.173 98.4467 354.06 98.28C352.83 98.09 351.62 97.85 350.43 97.57H350.38C349.17 97.28 347.98 96.96 346.82 96.57C343.973 95.7103 341.178 94.6852 338.45 93.5C336.91 92.83 335.55 92.18 334.45 91.62C332.2 90.5 330.86 89.71 330.86 89.71L330.66 89.38L329.84 88.09L328.09 85.32L327.49 84.39V84.32C327.462 84.2356 327.462 84.1444 327.49 84.06C327.55 83 329.72 80.06 330.11 79.56C331.716 77.4133 333.762 75.6337 336.11 74.34C339.33 72.56 342.96 73.34 346.38 73.94C347.511 74.1749 348.614 74.5303 349.67 75L350.34 75.29L350.47 75.35C350.59 75.42 350.72 75.47 350.84 75.53L351.06 75.64C353.601 76.8301 355.913 78.4583 357.89 80.45C362.39 85.5 360.56 93.83 360 95.46Z" fill="#8E4D30"/>
<path opacity="0.2" d="M340.329 115.5C339.264 116.608 338.143 117.659 336.969 118.65C336.969 117.37 336.809 116.46 336.809 116.46C338.015 116.276 339.196 115.954 340.329 115.5Z" fill="black"/>
<path d="M316.75 218.09V166.87L307.4 163.06C307.4 163.06 309.19 135.73 322.5 131.42C335.81 127.11 359.5 125.3 366.02 131.42C370.14 135.31 370.69 141.55 370.84 146.9C371.16 157.8 368.31 168.46 367.68 179.3C367.18 188.12 366.88 196.94 366.68 205.77C366.68 206.45 366.42 218.09 366.4 218.09H316.75Z" fill="#263238"/>
<path d="M321.87 168.62C321.87 168.62 314.95 191.48 308.11 192.91C301.27 194.34 277.91 181.59 277.91 181.59H267.48L266 172.42C266 172.42 275.71 168.82 282.18 173.13C282.18 173.13 297.29 179.72 302.32 181.64L309.61 164L321.87 168.62Z" fill="#B55B52"/>
</g>
<defs>
<clipPath id="clip0_58176_5310">
<rect width="500" height="500" fill="white"/>
</clipPath>
</defs>
</svg>
