<svg width="500" height="420" viewBox="0 0 500 420" fill="none" xmlns="http://www.w3.org/2000/svg">
<g clip-path="url(#clip0_58256_4913)">
<path d="M325.486 415.304L231.821 246.169C231.795 245.755 231.667 245.354 231.449 245.001C231.23 244.649 230.929 244.355 230.571 244.147C230.16 243.911 229.691 243.798 229.218 243.82C229.203 243.819 229.187 243.82 229.172 243.819C229.157 243.82 229.142 243.819 229.127 243.82C228.486 243.79 227.858 244.009 227.375 244.432C226.892 244.854 226.591 245.448 226.535 246.088L127.264 415.304C127.098 415.59 126.991 415.907 126.947 416.236C126.904 416.564 126.926 416.898 127.011 417.218C127.097 417.538 127.245 417.838 127.446 418.1C127.647 418.363 127.898 418.584 128.185 418.749C128.471 418.915 128.787 419.022 129.115 419.066C129.443 419.109 129.776 419.087 130.096 419.001C130.415 418.915 130.714 418.767 130.977 418.566C131.239 418.364 131.459 418.112 131.624 417.825L229.105 251.661L321.125 417.825C321.29 418.112 321.51 418.364 321.773 418.566C322.035 418.767 322.334 418.915 322.654 419.001C322.973 419.087 323.306 419.109 323.634 419.066C323.962 419.022 324.278 418.915 324.565 418.749C324.851 418.584 325.102 418.363 325.304 418.1C325.505 417.838 325.653 417.538 325.738 417.218C325.824 416.898 325.845 416.564 325.802 416.236C325.759 415.907 325.651 415.59 325.486 415.304Z" fill="#3F3D56"/>
<path d="M213.65 386.285L224.237 383.852L219.907 341.796L204.281 345.386L213.65 386.285Z" fill="#FFB6B6"/>
<path d="M221.837 365.968L206.77 369.43L201.953 360.001L201.68 359.666C199.543 357.039 198.357 353.765 198.315 350.376L185.792 317.2L184.768 316.712C183.976 316.335 183.273 315.793 182.707 315.122C182.141 314.451 181.724 313.666 181.484 312.821C181.245 311.976 181.188 311.089 181.318 310.221C181.448 309.352 181.761 308.521 182.237 307.783L180.912 304.271L143.503 304.339L143.466 304.329L97.5293 291.423L102.353 262.626L115.275 270.767C119.533 270.49 192.472 266.005 199.211 282.377C205.211 296.956 213.858 321.863 220.055 340.19C220.364 341.013 220.748 341.806 221.203 342.558C222.167 344.045 222.733 345.755 222.846 347.525C222.919 348.295 223.065 349.056 223.284 349.798C225.859 357.51 221.935 365.765 221.895 365.847L221.837 365.968Z" fill="#2F2E41"/>
<path d="M210.074 382.768L213.516 381.977L225.701 373.416L234.158 377.234L234.159 377.234C238.229 376.299 242.504 377.022 246.042 379.243C249.581 381.464 252.093 385.002 253.027 389.079L253.142 389.579L213.71 398.64L210.074 382.768Z" fill="#2F2E41"/>
<path d="M53.7589 383.713C54.8352 371.979 61.6981 360.23 72.7053 356.069C68.7021 368.24 69.1263 381.437 73.9028 393.325C75.7616 397.903 78.3049 402.801 76.846 407.522C75.9383 410.459 73.5612 412.761 70.8689 414.239C68.1764 415.717 65.1601 416.477 62.1813 417.223L61.6067 417.731C56.4996 407.115 52.6825 395.447 53.7589 383.713Z" fill="#F0F0F0"/>
<path d="M72.8226 356.286C66.5747 363.768 62.8394 373.031 62.1473 382.76C61.9612 384.852 62.1054 386.96 62.5747 389.006C63.0962 390.985 64.1373 392.788 65.5899 394.228C66.9173 395.598 68.4335 396.845 69.4054 398.514C69.8902 399.376 70.1877 400.33 70.2783 401.315C70.3689 402.3 70.2506 403.293 69.9312 404.229C69.1958 406.582 67.6602 408.53 66.0924 410.383C64.3517 412.439 62.5111 414.548 61.8289 417.223C61.7462 417.547 61.2489 417.4 61.3315 417.076C62.5184 412.423 66.9031 409.66 68.901 405.439C69.8333 403.469 70.1786 401.206 69.1807 399.191C68.3081 397.428 66.7457 396.141 65.3897 394.766C63.9521 393.382 62.8747 391.667 62.2516 389.77C61.6797 387.754 61.4546 385.655 61.5859 383.563C61.8065 378.849 62.7658 374.198 64.4287 369.783C66.2986 364.732 69.0173 360.04 72.4671 355.908C72.6808 355.652 73.0348 356.032 72.8226 356.286Z" fill="white"/>
<path d="M62.1854 379.614C60.5714 379.276 59.1299 378.375 58.1183 377.07C57.1066 375.766 56.5908 374.145 56.6629 372.495C56.6665 372.427 56.6959 372.364 56.7451 372.318C56.7943 372.272 56.8594 372.247 56.9267 372.249C56.9939 372.25 57.058 372.277 57.1056 372.325C57.1531 372.372 57.1803 372.437 57.1815 372.504C57.1115 374.04 57.5922 375.551 58.5367 376.763C59.4812 377.976 60.8273 378.81 62.3321 379.116C62.659 379.183 62.5105 379.68 62.1854 379.614Z" fill="white"/>
<path d="M64.8247 393.623C67.6617 391.8 69.7086 388.973 70.557 385.706C70.6408 385.382 71.1381 385.529 71.0544 385.853C70.1651 389.251 68.0291 392.188 65.0727 394.079C64.7907 394.259 64.5443 393.802 64.8247 393.623Z" fill="white"/>
<path d="M66.7955 365.209C67.3928 365.47 68.0455 365.578 68.6949 365.524C69.3444 365.47 69.9703 365.255 70.5164 364.899C70.7959 364.716 71.0421 365.173 70.7644 365.355C70.1592 365.746 69.4677 365.982 68.7502 366.044C68.0328 366.105 67.3113 365.989 66.6488 365.707C66.5842 365.685 66.53 365.64 66.4975 365.58C66.4649 365.52 66.4563 365.45 66.4735 365.384C66.4932 365.318 66.5382 365.263 66.5985 365.23C66.6588 365.197 66.7296 365.19 66.7955 365.209Z" fill="white"/>
<path d="M107.297 375.853C107.125 375.972 106.954 376.092 106.783 376.216C104.489 377.835 102.329 379.638 100.327 381.607C100.169 381.757 100.012 381.911 99.8595 382.065C95.0849 386.861 91.2408 392.503 88.5226 398.704C87.4432 401.173 86.5529 403.72 85.8594 406.324C84.9019 409.921 84.1494 413.896 82.1213 416.878C81.9132 417.191 81.6859 417.491 81.4407 417.777L62.2686 418.394C62.2243 418.373 62.1799 418.357 62.1355 418.336L61.3711 418.396C61.3975 418.259 61.4278 418.118 61.4542 417.981C61.4692 417.902 61.4884 417.822 61.5034 417.743C61.5148 417.69 61.5263 417.637 61.5336 417.588C61.5373 417.571 61.5412 417.553 61.545 417.54C61.5522 417.491 61.5641 417.447 61.5714 417.403C61.7387 416.612 61.9119 415.822 62.0908 415.031C62.0907 415.027 62.0907 415.027 62.0948 415.022C63.401 408.984 65.4177 403.122 68.1028 397.559C68.1852 397.394 68.2672 397.225 68.3583 397.06C69.6053 394.595 71.0512 392.237 72.6817 390.009C73.5785 388.792 74.5362 387.621 75.5511 386.5C78.1792 383.611 81.2448 381.153 84.6354 379.218C91.3951 375.36 99.3113 373.711 106.731 375.696C106.921 375.747 107.107 375.798 107.297 375.853Z" fill="#F0F0F0"/>
<path d="M107.262 376.098C97.7761 378.304 89.2253 383.448 82.8242 390.798C81.4182 392.356 80.2661 394.127 79.4104 396.044C78.6371 397.938 78.3845 400.006 78.6788 402.031C78.9153 403.925 79.3762 405.835 79.1489 407.754C79.018 408.734 78.6817 409.676 78.162 410.517C77.6422 411.358 76.9508 412.08 76.1331 412.634C74.1316 414.069 71.7346 414.699 69.3691 415.233C66.7427 415.825 64.0053 416.399 61.8528 418.123C61.592 418.332 61.2836 417.915 61.544 417.706C65.2891 414.706 70.4507 415.145 74.5835 412.979C76.5119 411.968 78.148 410.37 78.5628 408.159C78.9256 406.225 78.4519 404.255 78.1959 402.34C77.8799 400.368 78.0507 398.349 78.6935 396.458C79.4489 394.504 80.531 392.692 81.8933 391.101C84.9033 387.47 88.4647 384.336 92.4468 381.813C96.9757 378.908 101.967 376.8 107.206 375.581C107.53 375.506 107.584 376.023 107.262 376.098Z" fill="white"/>
<path d="M84.7464 388.31C83.6609 387.067 83.0518 385.478 83.0281 383.827C83.0043 382.175 83.5674 380.569 84.6167 379.296C84.8299 379.039 85.2387 379.358 85.0252 379.616C84.0459 380.8 83.5215 382.296 83.5468 383.834C83.5721 385.371 84.1453 386.849 85.163 388.001C85.3839 388.251 84.966 388.559 84.7464 388.31Z" fill="white"/>
<path d="M78.4333 401.087C81.7943 401.342 85.1279 400.319 87.7694 398.222C88.0309 398.014 88.3394 398.432 88.0782 398.639C85.3254 400.816 81.8541 401.874 78.3571 401.6C78.0238 401.574 78.1018 401.061 78.4333 401.087Z" fill="white"/>
<path d="M97.0854 379.588C97.4054 380.156 97.8613 380.636 98.4124 380.985C98.9634 381.333 99.5922 381.539 100.242 381.584C100.576 381.606 100.497 382.12 100.166 382.098C99.4481 382.045 98.7539 381.817 98.1442 381.433C97.5346 381.049 97.028 380.522 96.6688 379.897C96.63 379.841 96.614 379.772 96.624 379.705C96.634 379.637 96.6693 379.576 96.7227 379.534C96.7781 379.493 96.8472 379.476 96.9151 379.486C96.983 379.496 97.0442 379.533 97.0854 379.588Z" fill="white"/>
<path d="M367.432 383.713C366.356 371.979 359.493 360.23 348.486 356.069C352.489 368.24 352.065 381.437 347.288 393.325C345.43 397.903 342.886 402.801 344.345 407.522C345.253 410.459 347.63 412.761 350.322 414.239C353.015 415.717 356.031 416.477 359.01 417.223L359.584 417.731C364.692 407.115 368.509 395.447 367.432 383.713Z" fill="#F0F0F0"/>
<path d="M348.368 356.286C354.616 363.768 358.351 373.031 359.043 382.76C359.23 384.852 359.085 386.96 358.616 389.006C358.095 390.985 357.053 392.788 355.601 394.228C354.273 395.598 352.757 396.845 351.785 398.514C351.3 399.376 351.003 400.33 350.912 401.315C350.822 402.3 350.94 403.293 351.26 404.229C351.995 406.582 353.53 408.53 355.098 410.383C356.839 412.439 358.68 414.548 359.362 417.223C359.444 417.547 359.942 417.4 359.859 417.076C358.672 412.423 354.288 409.66 352.29 405.439C351.357 403.469 351.012 401.206 352.01 399.191C352.883 397.428 354.445 396.141 355.801 394.766C357.239 393.382 358.316 391.667 358.939 389.77C359.511 387.754 359.736 385.655 359.605 383.563C359.384 378.849 358.425 374.198 356.762 369.783C354.892 364.732 352.173 360.04 348.724 355.908C348.51 355.652 348.156 356.032 348.368 356.286Z" fill="white"/>
<path d="M359.006 379.614C360.62 379.276 362.061 378.375 363.073 377.07C364.085 375.766 364.6 374.145 364.528 372.495C364.525 372.427 364.495 372.364 364.446 372.318C364.397 372.272 364.332 372.247 364.265 372.248C364.197 372.25 364.133 372.277 364.086 372.325C364.038 372.372 364.011 372.437 364.01 372.504C364.08 374.04 363.599 375.551 362.654 376.763C361.71 377.976 360.364 378.81 358.859 379.116C358.532 379.183 358.681 379.68 359.006 379.614Z" fill="white"/>
<path d="M356.366 393.623C353.529 391.8 351.482 388.973 350.634 385.706C350.55 385.382 350.053 385.529 350.136 385.853C351.026 389.251 353.162 392.188 356.118 394.079C356.4 394.259 356.647 393.802 356.366 393.623Z" fill="white"/>
<path d="M354.395 365.209C353.798 365.47 353.145 365.578 352.496 365.524C351.847 365.47 351.221 365.255 350.675 364.899C350.395 364.716 350.149 365.173 350.427 365.355C351.032 365.746 351.723 365.982 352.441 366.044C353.158 366.105 353.88 365.989 354.542 365.707C354.607 365.685 354.661 365.64 354.693 365.58C354.726 365.52 354.735 365.45 354.717 365.384C354.698 365.318 354.653 365.263 354.592 365.23C354.532 365.197 354.461 365.19 354.395 365.209Z" fill="white"/>
<path d="M313.895 375.853C314.066 375.972 314.237 376.092 314.408 376.216C316.703 377.835 318.862 379.638 320.865 381.607C321.022 381.757 321.179 381.911 321.332 382.065C326.106 386.861 329.951 392.503 332.669 398.704C333.748 401.173 334.638 403.72 335.332 406.324C336.289 409.921 337.042 413.896 339.07 416.878C339.278 417.191 339.505 417.491 339.751 417.777L358.923 418.394C358.967 418.373 359.011 418.357 359.056 418.336L359.82 418.396C359.794 418.259 359.763 418.118 359.737 417.981C359.722 417.902 359.703 417.822 359.688 417.743C359.676 417.69 359.665 417.637 359.658 417.588C359.654 417.571 359.65 417.553 359.646 417.54C359.639 417.491 359.627 417.447 359.62 417.403C359.453 416.613 359.279 415.822 359.1 415.031C359.101 415.027 359.101 415.027 359.096 415.022C357.79 408.984 355.774 403.122 353.088 397.559C353.006 397.394 352.924 397.225 352.833 397.06C351.586 394.595 350.14 392.237 348.51 390.009C347.613 388.792 346.655 387.621 345.64 386.5C343.012 383.611 339.947 381.153 336.556 379.218C329.796 375.36 321.88 373.711 314.46 375.696C314.27 375.747 314.084 375.798 313.895 375.853Z" fill="#F0F0F0"/>
<path d="M313.929 376.098C323.415 378.304 331.966 383.448 338.367 390.798C339.773 392.356 340.925 394.127 341.781 396.044C342.554 397.938 342.807 400.006 342.512 402.031C342.276 403.925 341.815 405.835 342.042 407.754C342.173 408.734 342.509 409.676 343.029 410.517C343.549 411.358 344.24 412.08 345.058 412.634C347.059 414.069 349.456 414.699 351.822 415.233C354.448 415.825 357.186 416.399 359.338 418.123C359.599 418.332 359.907 417.915 359.647 417.706C355.902 414.706 350.74 415.144 346.608 412.979C344.679 411.968 343.043 410.37 342.628 408.159C342.265 406.225 342.739 404.255 342.995 402.34C343.311 400.368 343.14 398.349 342.498 396.458C341.742 394.504 340.66 392.692 339.298 391.101C336.288 387.47 332.726 384.336 328.744 381.813C324.215 378.908 319.224 376.8 313.985 375.581C313.661 375.506 313.607 376.023 313.929 376.098Z" fill="white"/>
<path d="M336.444 388.31C337.53 387.067 338.139 385.478 338.162 383.827C338.186 382.175 337.623 380.569 336.574 379.296C336.361 379.039 335.952 379.358 336.165 379.616C337.145 380.8 337.669 382.296 337.644 383.834C337.618 385.371 337.045 386.849 336.027 388.001C335.807 388.251 336.224 388.559 336.444 388.31Z" fill="white"/>
<path d="M342.758 401.087C339.397 401.342 336.063 400.319 333.422 398.222C333.16 398.014 332.852 398.432 333.113 398.639C335.866 400.816 339.337 401.874 342.834 401.6C343.167 401.574 343.089 401.061 342.758 401.087Z" fill="white"/>
<path d="M324.106 379.588C323.786 380.156 323.33 380.636 322.779 380.985C322.228 381.333 321.599 381.539 320.949 381.584C320.615 381.606 320.694 382.12 321.025 382.098C321.743 382.045 322.437 381.817 323.047 381.433C323.657 381.049 324.163 380.522 324.522 379.897C324.561 379.841 324.577 379.772 324.567 379.705C324.557 379.637 324.522 379.576 324.469 379.534C324.413 379.493 324.344 379.476 324.276 379.486C324.208 379.496 324.147 379.533 324.106 379.588Z" fill="white"/>
<path d="M500 419.333C499.999 419.51 499.929 419.679 499.804 419.804C499.68 419.929 499.51 420 499.334 420H0.665788C0.48921 420 0.319862 419.93 0.195003 419.805C0.0701442 419.68 0 419.51 0 419.333C0 419.156 0.0701442 418.987 0.195003 418.862C0.319862 418.737 0.48921 418.666 0.665788 418.666H499.334C499.51 418.667 499.68 418.737 499.804 418.862C499.929 418.987 499.999 419.156 500 419.333Z" fill="#3F3D56"/>
<path d="M321.207 161.381C322.598 161.381 323.725 160.252 323.725 158.86C323.725 157.467 322.598 156.338 321.207 156.338C319.817 156.338 318.689 157.467 318.689 158.86C318.689 160.252 319.817 161.381 321.207 161.381Z" fill="#3F3D56"/>
<path d="M289.68 178.283L323.622 156.925C323.929 156.732 324.272 156.603 324.63 156.546C324.989 156.489 325.355 156.506 325.706 156.595C326.058 156.684 326.388 156.843 326.676 157.063C326.965 157.283 327.206 157.559 327.384 157.875C327.563 158.191 327.676 158.54 327.716 158.901C327.757 159.262 327.724 159.628 327.619 159.975C327.515 160.323 327.341 160.646 327.108 160.925C326.876 161.203 326.589 161.432 326.266 161.596L290.532 179.788C290.334 179.889 290.104 179.91 289.891 179.845C289.678 179.781 289.498 179.637 289.388 179.443C289.278 179.249 289.247 179.02 289.302 178.804C289.356 178.588 289.492 178.401 289.68 178.283Z" fill="#E4E4E4"/>
<path d="M221.586 224.27C221.318 223.872 221.179 223.402 221.186 222.922C221.193 222.442 221.346 221.976 221.625 221.586C222.199 220.816 222.964 220.208 223.844 219.824C225.66 218.898 227.616 218.279 229.633 217.991C231.167 217.773 232.84 217.704 234.029 216.71C235.211 215.723 235.87 213.878 237.4 213.724C238.88 213.575 240.018 215.198 241.502 215.299C243.331 215.423 244.528 213.279 246.308 212.839C247.5 212.544 248.725 213.064 249.842 213.572L256.549 216.619L259.987 218.181C261.187 218.727 262.542 219.461 262.768 220.762C263.08 222.55 261.095 223.811 259.398 224.445C247.279 228.925 233.962 228.927 221.842 224.45" fill="#8E4D30"/>
<path d="M231.689 257.201C280.356 257.201 319.808 251.556 319.808 244.593C319.808 237.63 280.356 231.985 231.689 231.985C183.022 231.985 143.57 237.63 143.57 244.593C143.57 251.556 183.022 257.201 231.689 257.201Z" fill="#3F3D56"/>
<path d="M410.444 322.762H350.02C347.239 322.762 344.984 325.02 344.984 327.805C344.984 330.591 347.239 332.849 350.02 332.849H410.444C413.225 332.849 415.479 330.591 415.479 327.805C415.479 325.02 413.225 322.762 410.444 322.762Z" fill="#3F3D56"/>
<path d="M439.727 232.848L419.77 327.8L424.968 352.102L434.781 397.967V418.582C434.782 418.61 434.78 418.639 434.775 418.666C434.772 419.122 434.689 419.573 434.529 420H426.641C426.481 419.573 426.398 419.122 426.394 418.666C426.39 418.639 426.388 418.61 426.389 418.582V398.852L417.482 357.224L415.68 348.819L412.194 332.529L411.188 327.811V327.805L412.183 323.076L412.95 319.428L431.514 231.122C431.626 230.582 431.844 230.069 432.155 229.613C432.466 229.157 432.863 228.766 433.325 228.464C433.786 228.162 434.303 227.954 434.844 227.852C435.386 227.749 435.943 227.755 436.483 227.868C437.022 227.982 437.534 228.201 437.989 228.512C438.444 228.824 438.834 229.223 439.135 229.685C439.436 230.147 439.644 230.665 439.745 231.208C439.847 231.75 439.84 232.308 439.727 232.848Z" fill="#3F3D56"/>
<path d="M354.217 327.805V418.582C354.218 418.61 354.216 418.639 354.211 418.666C354.208 419.122 354.124 419.573 353.965 420H346.076C345.917 419.573 345.833 419.122 345.83 418.666C345.825 418.639 345.824 418.61 345.824 418.582V327.805C345.824 326.691 346.267 325.622 347.053 324.834C347.84 324.046 348.908 323.603 350.021 323.603C351.133 323.603 352.201 324.046 352.988 324.834C353.775 325.622 354.217 326.691 354.217 327.805Z" fill="#3F3D56"/>
<path d="M360.09 312.676H400.373C404.38 312.676 408.222 314.27 411.055 317.107C413.888 319.945 415.479 323.793 415.479 327.805H344.984C344.984 323.793 346.576 319.945 349.409 317.107C352.242 314.27 356.084 312.676 360.09 312.676Z" fill="#3F3D56"/>
<path d="M420.515 357.224H350.02C348.907 357.224 347.84 356.781 347.053 355.993C346.266 355.205 345.824 354.136 345.824 353.021C345.824 351.907 346.266 350.838 347.053 350.05C347.84 349.261 348.907 348.819 350.02 348.819H420.515C421.628 348.819 422.696 349.261 423.482 350.05C424.269 350.838 424.712 351.907 424.712 353.021C424.712 354.136 424.269 355.205 423.482 355.993C422.696 356.781 421.628 357.224 420.515 357.224Z" fill="#3F3D56"/>
<path d="M92.6054 333.001H163.711C166.492 333.001 168.746 330.743 168.746 327.958V326.43C168.746 323.645 166.492 321.387 163.711 321.387H92.6054C89.8244 321.387 87.57 323.645 87.57 326.43V327.958C87.57 330.743 89.8244 333.001 92.6054 333.001Z" fill="#3F3D56"/>
<path d="M91.8737 327.262L90.5867 332.574L85.8647 352.029L83.8283 360.435L74.3728 399.424V416.341C74.3753 417.169 74.1298 417.979 73.668 418.666C73.3049 419.222 72.8112 419.68 72.2302 420H68.1234C67.5424 419.68 67.0487 419.222 66.6857 418.666C66.2238 417.979 65.9782 417.169 65.9806 416.341V398.415L76.4878 355.1L83.2689 327.127L60.274 217.719C60.1602 217.179 60.1538 216.622 60.2551 216.079C60.3564 215.537 60.5635 215.02 60.8646 214.557C61.1656 214.095 61.5546 213.697 62.0095 213.385C62.4643 213.074 62.976 212.855 63.5153 212.741C64.0546 212.628 64.6109 212.622 65.1524 212.724C65.694 212.826 66.2101 213.034 66.6713 213.336C67.1326 213.638 67.5299 214.028 67.8405 214.484C68.1511 214.94 68.3689 215.453 68.4816 215.993L89.7365 317.097L90.7156 321.759L91.8567 327.195L91.8737 327.262Z" fill="#3F3D56"/>
<path d="M167.146 327.195V416.341C167.149 417.169 166.903 417.979 166.441 418.666C166.078 419.222 165.584 419.68 165.003 420H160.891C160.313 419.678 159.821 419.221 159.459 418.666C158.997 417.979 158.751 417.169 158.754 416.341V327.195C158.754 326.08 159.196 325.011 159.983 324.223C160.77 323.435 161.837 322.992 162.95 322.992C164.063 322.992 165.13 323.435 165.917 324.223C166.704 325.011 167.146 326.08 167.146 327.195Z" fill="#3F3D56"/>
<path d="M168.746 327.194H87.57V324.902C87.57 322.915 87.9607 320.948 88.7198 319.112C89.479 317.276 90.5917 315.608 91.9944 314.204C93.3971 312.799 95.0624 311.684 96.8952 310.924C98.7279 310.164 100.692 309.772 102.676 309.772H153.64C157.646 309.772 161.489 311.366 164.322 314.204C167.155 317.041 168.746 320.889 168.746 324.902L168.746 327.194Z" fill="#3F3D56"/>
<path d="M162.948 360.433H81.7723C80.6594 360.433 79.5921 359.99 78.8052 359.202C78.0183 358.414 77.5762 357.345 77.5762 356.23C77.5762 355.116 78.0183 354.047 78.8052 353.259C79.5921 352.47 80.6594 352.028 81.7723 352.028H162.948C164.061 352.028 165.129 352.47 165.916 353.259C166.703 354.047 167.145 355.116 167.145 356.23C167.145 357.345 166.703 358.414 165.916 359.202C165.129 359.99 164.061 360.433 162.948 360.433Z" fill="#3F3D56"/>
<path d="M267.272 397.093L258.453 392.869L270.568 355.948L283.585 362.182L267.272 397.093Z" fill="#9E616A"/>
<path d="M327.042 393.749L317.559 396.093L303.818 359.756L317.816 356.296L327.042 393.749Z" fill="#9E616A"/>
<path d="M290.694 236.618C291.952 238.664 293.959 240.137 296.286 240.721C298.613 241.306 301.076 240.956 303.149 239.747C303.566 239.495 303.962 239.208 304.331 238.89L332.214 254.915L331.003 238.464L304.711 225.768C303.28 224.329 301.413 223.406 299.402 223.143C297.391 222.881 295.35 223.294 293.599 224.319C292.591 224.925 291.715 225.727 291.021 226.678C290.327 227.629 289.83 228.709 289.559 229.855C289.288 231.001 289.249 232.19 289.444 233.351C289.639 234.513 290.064 235.623 290.694 236.618Z" fill="#9E616A"/>
<path d="M320.227 248.881L325.155 251.889L347.291 265.408C348.745 266.319 350.364 266.935 352.055 267.219C353.747 267.503 355.478 267.45 357.149 267.064C358.82 266.677 360.399 265.965 361.795 264.967C363.191 263.969 364.377 262.706 365.285 261.249C366.924 258.544 367.504 255.327 366.913 252.219L357.074 202.991C356.711 201.059 355.935 199.228 354.8 197.623C353.665 196.018 352.197 194.678 350.498 193.694C348.798 192.71 346.906 192.105 344.951 191.92C342.996 191.736 341.024 191.977 339.171 192.626C336.056 193.722 333.474 195.966 331.952 198.901C330.43 201.836 330.082 205.242 330.978 208.425L341.265 243.361L325.496 235.998L320.227 248.881Z" fill="#E6E6E6"/>
<path d="M308.574 383.566L293.398 353.084L293.4 353.014L294.899 297.104C294.917 296.607 294.958 296.107 295.018 295.616C295.283 293.374 295.99 291.208 297.1 289.242C298.209 287.277 299.698 285.553 301.479 284.17C303.185 282.833 305.14 281.85 307.23 281.278C309.319 280.705 311.502 280.555 313.65 280.837L357.044 286.461L358.548 280.298L358.829 280.196L400.406 264.934L400.646 265.325C406.091 274.199 409.898 291.925 410.935 297.146L410.95 297.221C410.972 297.331 410.985 297.398 410.989 297.417C413.13 306.327 404.286 321.087 395.475 323.306C376.917 328.043 360.32 324.348 341.102 320.068C334.21 318.533 327.088 316.946 319.243 315.575L319.476 320.199C319.667 323.758 320.406 327.267 321.665 330.601C323.064 334.704 324.169 337.945 321.832 344.702L320.702 347.971C321.288 349.593 321.49 351.33 321.292 353.045C321.093 354.759 320.5 356.404 319.558 357.849L319.331 358.197L329.339 383.56L308.574 383.566Z" fill="#2F2E41"/>
<path d="M283.64 370.086L265.543 368.401L271.954 347.866C273.277 334.457 276.611 321.325 281.843 308.912L290.588 288.155C290.608 287.693 290.647 287.229 290.703 286.773C290.968 284.531 291.675 282.365 292.784 280.4C293.894 278.435 295.382 276.71 297.164 275.328C298.87 273.991 300.825 273.008 302.915 272.436C305.004 271.864 307.187 271.714 309.335 271.994L352.664 277.61L354.551 261.746L396.14 256.172L396.331 256.483C403.6 268.329 408.215 277.602 410.854 285.668C410.987 286.079 411.105 286.499 411.205 286.917C413.36 295.887 407.981 304.981 399.213 307.19C376.87 312.895 350.002 312.736 314.677 306.689L297.581 347.437C295.947 351.329 293.924 355.046 291.542 358.53L283.64 370.086Z" fill="#2F2E41"/>
<path d="M346.763 164.373C358.34 164.373 367.726 154.764 367.726 142.91C367.726 131.057 358.34 121.447 346.763 121.447C335.186 121.447 325.801 131.057 325.801 142.91C325.801 154.764 335.186 164.373 346.763 164.373Z" fill="#9E616A"/>
<path d="M352.815 278.36L349.807 267.568L349.068 262.244L344.745 262.389L336.26 242.775L332.965 237.603C332.293 236.894 331.684 236.212 331.138 235.558C327.704 231.671 324.951 227.231 322.995 222.425C321.624 218.972 320.819 215.32 320.611 211.61C319.996 200.651 324.609 189.056 334.713 176.165C334.547 175.709 334.437 175.234 334.384 174.752C334.203 173.186 334.647 171.612 335.619 170.372C336.592 169.132 338.013 168.327 339.575 168.132L349.321 167.036C350.079 166.95 350.846 167.015 351.578 167.229C352.31 167.443 352.993 167.801 353.586 168.281C354.205 168.778 354.719 169.393 355.098 170.091C355.478 170.789 355.714 171.556 355.795 172.347C355.925 173.569 355.685 174.803 355.105 175.888C360.073 176.519 364.753 178.573 368.585 181.802C372.416 185.031 375.237 189.298 376.707 194.093C382.539 204.996 387.187 216.494 390.572 228.39C391.239 230.72 390.942 233.12 390.654 235.442C390.389 237.586 390.115 239.804 390.576 242.014C391.045 244.262 392.175 246.517 393.37 248.905C394.74 251.639 396.155 254.467 396.538 257.349L396.565 257.551L352.815 278.36Z" fill="#E4E4E4"/>
<path opacity="0.2" d="M323.254 222.319C325.202 227.097 327.94 231.512 331.353 235.378C331.937 236.077 332.555 236.764 333.201 237.452L336.517 242.663C348.741 233.486 358.645 197.354 358.645 197.354L344.853 194.667L323.254 222.319Z" fill="black"/>
<path d="M314.904 166.378C316.112 168.456 316.463 170.923 315.881 173.256C315.3 175.589 313.833 177.602 311.792 178.868C311.374 179.119 310.935 179.334 310.48 179.513L311.457 211.696L297.541 202.923L298.747 173.706C298.155 171.762 298.222 169.676 298.938 167.774C299.655 165.872 300.979 164.261 302.705 163.192C303.711 162.583 304.828 162.181 305.991 162.012C307.154 161.843 308.339 161.908 309.477 162.205C310.614 162.502 311.68 163.025 312.612 163.741C313.544 164.458 314.324 165.355 314.904 166.378Z" fill="#9E616A"/>
<path d="M312.68 199.548L297.377 201.727L298.035 233.467C298.073 235.731 298.689 237.948 299.823 239.906C300.958 241.865 302.574 243.501 304.517 244.658C306.892 246.057 309.656 246.645 312.393 246.334C315.13 246.023 317.692 244.829 319.693 242.932L355.822 208.128C358.364 205.713 359.885 202.414 360.073 198.909C360.261 195.405 359.101 191.962 356.831 189.288C355.708 187.957 354.33 186.865 352.777 186.078C351.225 185.29 349.531 184.823 347.795 184.704C346.059 184.585 344.316 184.817 342.671 185.385C341.026 185.953 339.512 186.846 338.219 188.012C337.861 188.332 337.522 188.67 337.201 189.027L313.345 216.513L312.68 199.548Z" fill="#E6E6E6"/>
<path d="M184.687 406.573L195.549 406.572L200.716 364.611L184.686 364.612L184.687 406.573Z" fill="#FFB6B6"/>
<path d="M123.121 164.996C135.094 164.996 144.8 155.275 144.8 143.283C144.8 131.292 135.094 121.57 123.121 121.57C111.147 121.57 101.441 131.292 101.441 143.283C101.441 155.275 111.147 164.996 123.121 164.996Z" fill="#FFB6B6"/>
<path d="M199.095 393.647H183.713L179.792 388.382L178.731 383.422L177.817 382.537C176.578 381.345 175.776 379.77 175.543 378.065C175.31 376.36 175.658 374.627 176.531 373.145L165.384 321.054C162.464 320.797 129.538 317.849 106.65 313.792C100.792 312.753 96.2191 309.902 93.0569 305.316C85.287 294.046 88.6154 275.813 88.6499 275.63L88.6883 275.427L88.8936 275.403L142.355 269.393L142.427 269.428C144.201 270.269 185.955 290.122 192.779 296.956C195.86 300.042 202.734 318.377 204.273 337.87C204.549 341.361 203.557 344.918 202.597 348.357C201.7 351.575 200.772 354.902 200.955 358.048C201.238 362.902 201.506 367.993 201.752 373.18C201.791 374.007 202.413 374.863 203.015 375.69C203.643 376.554 204.236 377.37 204.274 378.225C204.639 386.509 199.233 393.471 199.179 393.54L199.095 393.647Z" fill="#2F2E41"/>
<path d="M202.597 201.115C201.433 200.796 200.212 200.737 199.022 200.941C197.832 201.146 196.702 201.609 195.71 202.299C194.718 202.988 193.889 203.887 193.282 204.932C192.675 205.977 192.303 207.143 192.194 208.347L174.182 213.986L174.933 225.785L200.259 217.464C202.291 217.514 204.271 216.814 205.822 215.499C207.374 214.184 208.391 212.345 208.679 210.33C208.967 208.315 208.507 206.263 207.386 204.565C206.265 202.867 204.561 201.639 202.597 201.115Z" fill="#FFB6B6"/>
<path d="M190.845 220.64L177.383 225.743L177.039 226.412C176.213 228.016 174.786 229.225 173.07 229.775C171.354 230.324 169.491 230.168 167.89 229.342L137.63 240.812C137.63 240.812 124.117 227.268 114.496 215.181L117.775 194.982C118.534 190.295 120.149 185.789 122.537 181.687C142.268 186.02 153.594 213.645 153.594 213.645L189.154 206.85L190.845 220.64Z" fill="#8E4D30"/>
<path d="M120.039 163.835C114.612 165.303 108.629 163.352 104.393 159.649C100.158 155.947 97.5081 150.701 95.9815 145.282C94.8634 141.313 94.3332 136.908 96.0976 133.182C97.862 129.456 102.61 126.942 106.274 128.824C104.014 126.187 105.143 121.825 107.782 119.569C110.422 117.313 114.046 116.667 117.498 116.313C122.508 115.8 127.683 115.742 132.45 117.368C137.217 118.993 141.548 122.547 143.04 127.365C144.564 128.075 146.28 128.259 147.92 127.889C149.559 127.518 151.03 126.613 152.101 125.316C152.377 126.806 152.155 128.345 151.47 129.696C150.784 131.047 149.674 132.135 148.309 132.79L155.613 130.418C156.869 133.081 154.668 136.377 151.854 137.23C149.039 138.082 146 137.15 143.329 135.918C140.658 134.686 138.07 133.128 135.169 132.648C132.267 132.167 128.859 133.101 127.517 135.722C126.814 137.094 126.778 138.702 126.37 140.189C125.962 141.677 124.928 143.219 123.392 143.341C122.422 143.418 121.473 142.9 120.505 143.006C119.306 143.137 118.388 144.225 118.069 145.39C117.828 146.578 117.825 147.801 118.06 148.99L119.915 163.194" fill="#2F2E41"/>
<path d="M93.1822 307.91C93.1781 307.91 93.174 307.91 93.17 307.909L92.9986 307.88L92.949 307.713C92.3257 305.613 91.5326 303.464 90.7656 301.385C89.6359 298.507 88.6821 295.562 87.9094 292.567C87.3013 289.704 86.8796 286.805 86.6471 283.887C86.4331 281.769 86.2118 279.578 85.8356 277.422C85.6685 276.465 86.3016 275.558 86.9139 274.681C87.4816 273.868 88.0179 273.1 87.9053 272.374C87.7903 271.631 86.9677 270.815 86.1722 270.026C85.3003 269.161 84.3987 268.266 84.271 267.325C82.5332 254.482 81.7243 241.53 81.8507 228.569C82.0303 210.638 82.8395 198.415 84.2555 192.241C88.0632 175.64 105.655 172.61 108.409 172.236C108.702 171.454 109.153 170.74 109.733 170.14C110.314 169.54 111.012 169.065 111.783 168.747C112.554 168.428 113.383 168.272 114.217 168.288C115.051 168.304 115.873 168.492 116.632 168.839L129.131 174.57C131.667 175.737 133.936 177.413 135.797 179.495C137.658 181.577 139.072 184.02 139.951 186.672L141.808 192.342L142.738 230.4L137.583 257.201L147.654 272.331C93.9808 301.844 93.3551 307.91 93.1822 307.91Z" fill="#8E4D30"/>
<path d="M178.844 402.345L182.375 402.344L196.163 396.729L203.553 402.344H203.554C207.73 402.344 211.735 404.005 214.688 406.963C217.641 409.921 219.3 413.932 219.301 418.114V418.627L178.845 418.628L178.844 402.345Z" fill="#2F2E41"/>
<path d="M207.108 228.274C206.067 227.662 204.905 227.286 203.703 227.172C202.501 227.059 201.288 227.211 200.151 227.617C199.014 228.024 197.98 228.675 197.121 229.525C196.263 230.375 195.601 231.404 195.182 232.538L176.324 233.274L173.783 242.072L200.592 243.446C202.541 244.025 204.634 243.867 206.475 243.003C208.315 242.139 209.776 240.629 210.579 238.759C211.382 236.889 211.472 234.788 210.833 232.856C210.193 230.923 208.868 229.293 207.108 228.274Z" fill="#FFB6B6"/>
<path d="M191.618 244.395L172.247 244.153L169.795 244.12L130.385 243.622C130.385 243.622 119.682 233.397 110.363 222.868L111.669 213.406C112.944 204.12 117.543 195.613 124.612 189.47C137.959 198.402 145.699 216.083 145.699 216.083L158.677 221.899C167.81 222.308 176.71 224.919 184.621 229.509L188.889 231.985L191.618 244.395Z" fill="#8E4D30"/>
<path d="M333.961 411.647L327.516 413.241L324.864 407.43L323.419 414.253L306.325 418.478C305.505 418.681 304.643 418.616 303.863 418.293C303.083 417.97 302.426 417.405 301.99 416.682C301.553 415.959 301.358 415.115 301.434 414.273C301.51 413.431 301.853 412.635 302.412 412.002L313.737 399.186L312.218 393.024L326.788 390.334L333.961 411.647Z" fill="#2F2E41"/>
<path d="M265.682 413.64L259.536 411.127L260.808 404.866L255.629 409.53L239.328 402.865C238.546 402.546 237.887 401.985 237.447 401.264C237.006 400.543 236.808 399.699 236.88 398.857C236.952 398.015 237.29 397.218 237.847 396.582C238.403 395.947 239.148 395.506 239.972 395.324L256.66 391.641L259.054 385.766L272.413 392.182L265.682 413.64Z" fill="#2F2E41"/>
<path d="M244.277 242.352H239.241C233.827 242.346 228.637 240.189 224.808 236.355C220.98 232.52 218.826 227.322 218.82 221.899V221.619H264.698V221.899C264.692 227.322 262.538 232.52 258.71 236.355C254.882 240.189 249.691 242.346 244.277 242.352Z" fill="#E4E4E4"/>
<path d="M239.242 214.334C239.242 215.727 236.725 216.856 236.725 216.856C236.725 216.856 234.207 215.727 234.207 214.334C234.207 212.942 236.725 211.813 236.725 211.813C236.725 211.813 239.242 212.942 239.242 214.334Z" fill="#3F3D56"/>
<path d="M254.348 214.334C254.348 215.727 251.83 216.856 251.83 216.856C251.83 216.856 249.312 215.727 249.312 214.334C249.312 212.942 251.83 211.813 251.83 211.813C251.83 211.813 254.348 212.942 254.348 214.334Z" fill="#3F3D56"/>
<path d="M244.278 219.377C244.278 220.77 241.76 221.899 241.76 221.899C241.76 221.899 239.242 220.77 239.242 219.377C239.242 217.985 241.76 216.856 241.76 216.856C241.76 216.856 244.278 217.985 244.278 219.377Z" fill="#3F3D56"/>
<path d="M226.654 209.011C228.045 209.011 229.172 207.882 229.172 206.489C229.172 205.097 228.045 203.968 226.654 203.968C225.264 203.968 224.137 205.097 224.137 206.489C224.137 207.882 225.264 209.011 226.654 209.011Z" fill="#3F3D56"/>
<path d="M190.038 201.07L229.746 206.563C230.105 206.613 230.451 206.735 230.762 206.922C231.072 207.109 231.342 207.357 231.554 207.651C231.767 207.946 231.917 208.28 231.997 208.635C232.077 208.989 232.084 209.356 232.018 209.713C231.952 210.07 231.815 210.41 231.614 210.713C231.413 211.015 231.153 211.274 230.85 211.473C230.547 211.672 230.206 211.807 229.849 211.871C229.492 211.935 229.126 211.925 228.773 211.843L189.724 202.772C189.507 202.722 189.318 202.59 189.196 202.403C189.074 202.217 189.029 201.99 189.069 201.771C189.109 201.552 189.233 201.357 189.413 201.226C189.594 201.096 189.817 201.04 190.038 201.07Z" fill="#E4E4E4"/>
<path d="M238.29 75.7667V0H233.255V75.7667C226.375 76.3954 219.978 79.5769 215.32 84.6867C210.662 89.7965 208.079 96.4655 208.078 103.385V110.95H225.702C225.702 113.625 226.763 116.19 228.652 118.082C230.54 119.973 233.102 121.036 235.773 121.036C238.444 121.036 241.005 119.973 242.894 118.082C244.782 116.19 245.843 113.625 245.843 110.95H263.467V103.385C263.466 96.4655 260.883 89.7965 256.225 84.6867C251.567 79.5769 245.17 76.3954 238.29 75.7667Z" fill="#F0F0F0"/>
<path d="M303.12 56.825V0H299.344V56.825C294.184 57.2966 289.386 59.6827 285.892 63.515C282.399 67.3474 280.462 72.3492 280.461 77.5385V83.2121H293.679C293.679 85.2184 294.475 87.1425 295.891 88.5612C297.307 89.9799 299.229 90.7769 301.232 90.7769C303.235 90.7769 305.156 89.9799 306.573 88.5612C307.989 87.1425 308.785 85.2184 308.785 83.2121H322.003V77.5385C322.002 72.3492 320.065 67.3474 316.571 63.515C313.078 59.6827 308.28 57.2966 303.12 56.825Z" fill="#F0F0F0"/>
<path d="M175.558 56.825V0H171.781V56.825C166.621 57.2966 161.823 59.6827 158.33 63.515C154.836 67.3474 152.899 72.3492 152.898 77.5385V83.2121H166.116C166.116 85.2184 166.912 87.1425 168.328 88.5612C169.745 89.9799 171.666 90.7769 173.669 90.7769C175.672 90.7769 177.594 89.9799 179.01 88.5612C180.427 87.1425 181.222 85.2184 181.222 83.2121H194.44V77.5385C194.44 72.3492 192.502 67.3474 189.009 63.515C185.515 59.6827 180.717 57.2966 175.558 56.825Z" fill="#F0F0F0"/>
<path d="M402.856 133.602C399.293 129.44 397.599 123.919 394.75 119.193C391.902 114.467 386.945 110.237 381.708 111.337C378.098 112.095 375.309 115.286 373.896 118.843C372.484 122.399 372.22 126.322 371.972 130.165C372.059 122.268 366.865 114.612 359.709 112.092C352.554 109.573 343.99 112.383 339.494 118.728C337.532 116.906 334.97 115.869 332.296 115.813C329.621 115.756 327.018 116.685 324.982 118.422C320.96 122.023 320.07 128.875 323.028 133.467C325.985 138.059 332.391 139.77 337.091 137.223L338.753 138.754C337.818 142.03 339.632 145.901 342.681 147.134C345.154 148.135 348.644 147.968 349.57 150.567C350.216 152.383 349.008 154.321 347.722 155.717C346.437 157.112 344.911 158.553 344.756 160.484C344.523 163.397 347.529 165.438 350.262 166.053C356.851 167.535 364.162 164.479 367.96 158.655C368.033 158.543 368.113 158.43 368.199 158.318C370.33 155.589 371.882 152.453 372.762 149.103C373.642 145.752 373.831 142.257 373.317 138.831C373.103 137.485 373.319 136.484 374.245 136.165C378.25 134.787 389.472 137.679 392.868 140.293C396.264 142.907 398.984 146.366 402.255 149.148C405.526 151.93 409.695 154.077 413.848 153.319C417.175 152.712 420.005 150.293 421.908 147.376C423.811 144.458 424.907 141.057 425.888 137.678C418.532 141.934 408.465 140.152 402.856 133.602Z" fill="#2F2E41"/>
</g>
<defs>
<clipPath id="clip0_58256_4913">
<rect width="500" height="420" fill="white"/>
</clipPath>
</defs>
</svg>
