<svg width="56" height="56" viewBox="0 0 56 56" fill="none" xmlns="http://www.w3.org/2000/svg">
<path d="M0 28C0 12.536 12.536 0 28 0V0C43.464 0 56 12.536 56 28V28C56 43.464 43.464 56 28 56V56C12.536 56 0 43.464 0 28V28Z" fill="#FFDBCE"/>
<path fill-rule="evenodd" clip-rule="evenodd" d="M16.6573 16L17.2667 16.2821L20.6281 17.8383C22.7001 16.9637 27.5505 15.8999 32.4345 17.8434L35.9381 16.2793L36.5343 16.0131L36.6359 16.658L38.1548 26.2998L38.1574 26.3162L38.1588 26.3328C38.3314 28.2536 38.006 31.1979 36.4666 33.8392C34.9137 36.5037 32.1404 38.8303 27.4947 39.4861L27.4612 39.4909L27.4275 39.491C25.2978 39.5025 22.1379 38.8644 19.5505 36.8942C16.9356 34.9032 14.9524 31.5853 15.1702 26.3568L15.1713 26.3314L15.1749 26.3064L16.5617 16.6647L16.6573 16ZM35.7496 17.4586L32.6476 18.8434L32.451 18.9312L32.2521 18.8487C27.448 16.8554 22.613 18.0238 20.8313 18.8413L20.6218 18.9374L20.4127 18.8406L17.4559 17.4717L16.1683 26.4235C15.9709 31.3236 17.8157 34.3164 20.1563 36.0986C22.5149 37.8945 25.4241 38.4948 27.3885 38.4912C31.7035 37.8728 34.204 35.7355 35.6026 33.3356C37.0141 30.9138 37.3186 28.1946 37.1643 26.4387L35.7496 17.4586ZM43.8613 24.2259H43.8686C44.4427 24.2259 45.2976 24.3903 46.0444 24.892C46.813 25.4083 47.4469 26.2712 47.5373 27.5976C47.5561 27.8731 47.348 28.1117 47.0725 28.1304C46.797 28.1492 46.5584 27.9411 46.5397 27.6656C46.4716 26.6675 46.0158 26.0775 45.4868 25.7221C44.9391 25.3542 44.2927 25.2274 43.8759 25.2259C43.1503 25.2495 42.5898 25.5979 42.1686 26.0576C41.7567 26.507 41.501 27.0407 41.3902 27.3968L40.9986 31.7053L40.9946 31.7493L40.9829 31.792C39.7268 36.3794 36.9074 39.1788 33.8998 40.8023C30.9066 42.418 27.7251 42.872 25.6882 42.7919L25.6757 42.7914L25.6633 42.7903C20.4828 42.3268 17.1087 39.8004 15.0136 36.8284C12.9307 33.8738 12.1147 30.4867 12.0007 28.2514C11.9866 27.9756 12.1988 27.7407 12.4745 27.7266C12.7503 27.7125 12.9853 27.9247 12.9994 28.2005C13.1055 30.2798 13.8744 33.4768 15.8309 36.2522C17.7735 39.0078 20.8896 41.3556 25.7399 41.7932C27.6221 41.8648 30.6149 41.439 33.4248 39.9223C36.2171 38.415 38.8269 35.8333 40.0067 31.5703L40.3989 27.2561L40.4032 27.2084L40.4166 27.1624C40.5559 26.6809 40.8841 25.9792 41.4313 25.382C41.9849 24.7778 42.7869 24.2575 43.8539 24.2261L43.8613 24.2259ZM18.0481 28.0936C18.4444 28.3577 19.6331 29.1502 20.7557 29.4144H23.1992C24.1898 29.1722 26.4351 28.437 27.4917 27.4332C27.888 27.0149 29.222 26.2313 31.3881 26.4426C31.9384 26.3765 33.4749 26.5614 35.2183 27.8294C35.1303 30.3829 33.4617 35.6748 27.4917 36.4145C24.63 36.7667 18.7349 35.5956 18.0481 28.0936Z" fill="#8E4D30"/>
</svg>
