<svg width="500" height="448" viewBox="0 0 500 448" fill="none" xmlns="http://www.w3.org/2000/svg">
<g clip-path="url(#clip0_58172_4485)">
<path d="M495.571 368.743C491.023 396.738 470.531 418.415 448.715 437.359C445.669 440.005 442.616 442.599 439.555 445.141C439.534 445.154 439.513 445.178 439.492 445.19C439.344 445.312 439.197 445.434 439.061 445.555C438.429 446.079 437.797 446.603 437.17 447.121L437.563 447.244L438.788 447.621C438.368 447.505 437.953 447.395 437.533 447.28C437.407 447.244 437.277 447.214 437.152 447.178C422.688 443.27 407.929 438.98 396.105 429.823C383.837 420.313 375.389 404.099 379.62 389.16C380.177 387.203 380.95 385.314 381.926 383.529C382.324 382.781 382.764 382.059 383.227 381.346C386.022 376.953 389.937 373.384 394.569 371.006C399.2 368.628 404.381 367.527 409.579 367.816C414.777 368.106 419.804 369.775 424.143 372.652C428.483 375.529 431.978 379.511 434.269 384.187C434.063 367.727 419.034 355.724 404.937 347.229C390.836 338.74 374.87 329.568 370.436 313.707C367.964 304.883 370.044 295.794 374.897 288.114C375.048 287.881 375.199 287.647 375.355 287.419C381.308 278.439 390.428 272.036 400.893 269.489C420.421 265.057 440.886 273.22 456.903 285.248C482.681 304.6 500.74 336.912 495.571 368.743Z" fill="#F2F2F2"/>
<path d="M454.152 337.816C458.657 343.267 462.342 349.345 465.093 355.86C467.458 361.695 468.938 367.85 469.483 374.122C470.67 387.006 468.227 400.029 463.354 411.952C459.564 421.005 454.645 429.541 448.715 437.359C445.669 440.005 442.616 442.599 439.555 445.141C439.534 445.154 439.513 445.178 439.492 445.19C439.344 445.312 439.197 445.434 439.06 445.555C438.429 446.079 437.797 446.603 437.17 447.121L437.563 447.244L438.788 447.621C438.367 447.505 437.953 447.395 437.532 447.28C437.407 447.244 437.277 447.214 437.152 447.178C437.171 436.888 434.724 426.744 430.017 417.595C425.309 408.445 418.478 400.558 410.096 394.594C401.709 388.737 392.056 384.945 381.925 383.529C382.324 382.781 382.764 382.059 383.226 381.346C387.146 381.955 391.005 382.908 394.757 384.196C408.165 388.763 419.747 397.527 427.788 409.191C435.02 419.791 439.079 432.235 439.488 445.062C439.993 444.48 440.498 443.887 440.986 443.301C450.295 432.264 458.259 419.922 463.006 406.212C467.156 394.586 468.385 382.118 466.584 369.905C464.465 356.607 457.659 344.872 448.661 335.025C439.025 324.487 427.454 315.53 415.344 308.021C402.939 300.313 389.638 294.153 375.737 289.678C375.424 289.575 375.161 289.355 375.005 289.064C374.849 288.773 374.81 288.433 374.897 288.114C374.952 287.831 375.117 287.581 375.355 287.419C375.479 287.347 375.618 287.303 375.761 287.292C375.904 287.281 376.048 287.303 376.181 287.355C377.898 287.909 379.604 288.474 381.301 289.073C395.439 294.069 408.901 300.801 421.379 309.117C433.429 317.127 444.999 326.541 454.152 337.816Z" fill="white"/>
<path d="M208.286 273.885C206.896 273.883 205.559 273.353 204.545 272.401C203.531 271.45 202.916 270.148 202.825 268.76L202.012 256.336C201.917 254.885 202.402 253.455 203.36 252.362C204.319 251.269 205.672 250.601 207.123 250.506L304.424 244.131C305.958 244.03 307.498 244.232 308.954 244.726C310.41 245.22 311.754 245.996 312.911 247.01C314.067 248.024 315.012 249.256 315.692 250.635C316.372 252.015 316.774 253.515 316.874 255.05C316.975 256.585 316.772 258.124 316.278 259.581C315.783 261.037 315.007 262.382 313.992 263.538C312.978 264.694 311.746 265.639 310.367 266.319C308.988 266.998 307.488 267.399 305.954 267.499L208.653 273.873C208.53 273.881 208.408 273.885 208.286 273.885Z" fill="#8E4D30"/>
<path d="M227.473 275.487C226.056 275.485 224.694 274.934 223.674 273.95C222.653 272.966 222.053 271.625 221.998 270.208L221.305 251.651C221.278 250.932 221.393 250.214 221.643 249.539C221.894 248.864 222.275 248.244 222.764 247.717C223.254 247.189 223.843 246.763 224.497 246.462C225.151 246.162 225.858 245.994 226.577 245.967L306.591 242.976C308.044 242.921 309.458 243.447 310.524 244.436C311.59 245.425 312.219 246.797 312.273 248.25L312.966 266.808C312.993 267.527 312.878 268.245 312.628 268.92C312.377 269.595 311.997 270.214 311.507 270.742C311.017 271.27 310.428 271.696 309.774 271.996C309.12 272.296 308.413 272.465 307.694 272.492L227.68 275.483C227.611 275.486 227.542 275.487 227.473 275.487Z" fill="#2F2E41"/>
<path d="M321.236 446.551H308.79C307.337 446.549 305.943 445.971 304.916 444.943C303.888 443.915 303.31 442.521 303.309 441.067V337.294C303.31 335.84 303.888 334.447 304.916 333.419C305.943 332.391 307.337 331.812 308.79 331.811H321.236C322.689 331.812 324.082 332.391 325.11 333.419C326.138 334.447 326.716 335.84 326.717 337.294V441.067C326.716 442.521 326.138 443.915 325.11 444.943C324.082 445.971 322.689 446.549 321.236 446.551Z" fill="#2F2E41"/>
<path d="M265.992 391.697L255.349 385.243C254.107 384.488 253.215 383.271 252.869 381.859C252.523 380.447 252.751 378.956 253.502 377.712L307.272 288.968C308.027 287.726 309.243 286.834 310.655 286.487C312.066 286.141 313.557 286.369 314.801 287.121L325.444 293.575C326.686 294.33 327.578 295.547 327.924 296.959C328.27 298.371 328.042 299.863 327.29 301.107L273.521 389.85C272.766 391.093 271.549 391.985 270.138 392.331C268.727 392.677 267.236 392.449 265.992 391.697Z" fill="#2F2E41"/>
<path d="M302.332 223.512C326.084 223.512 345.338 204.25 345.338 180.489C345.338 156.728 326.084 137.466 302.332 137.466C278.581 137.466 259.326 156.728 259.326 180.489C259.326 204.25 278.581 223.512 302.332 223.512Z" fill="#8E4D30"/>
<path d="M279.053 195.179C277.67 194.724 276.4 193.978 275.329 192.992C274.619 192.287 274.072 191.436 273.725 190.498C273.379 189.559 273.242 188.557 273.324 187.56C273.369 186.85 273.577 186.159 273.933 185.543C274.289 184.927 274.782 184.401 275.375 184.007C276.913 183.02 278.97 183.018 281.064 183.941L280.985 167.145L282.671 167.137L282.765 186.882L281.465 186.064C279.958 185.118 277.806 184.452 276.286 185.428C275.91 185.685 275.599 186.027 275.376 186.424C275.154 186.822 275.026 187.266 275.003 187.721C274.946 188.464 275.05 189.21 275.307 189.909C275.564 190.608 275.969 191.243 276.493 191.771C278.356 193.551 281.073 194.107 284.171 194.605L283.904 196.27C282.258 196.052 280.634 195.687 279.053 195.179Z" fill="#2F2E41"/>
<path d="M263.6 166.297L263.379 167.969L272.384 169.159L272.605 167.486L263.6 166.297Z" fill="#2F2E41"/>
<path d="M292.024 170.051L291.803 171.723L300.808 172.913L301.029 171.241L292.024 170.051Z" fill="#2F2E41"/>
<path d="M338.243 365.137H265.722C263.822 365.135 262 364.378 260.656 363.034C259.313 361.69 258.557 359.867 258.555 357.966L273.737 241.497C273.749 239.604 274.509 237.794 275.852 236.46C277.194 235.127 279.009 234.379 280.901 234.381H306.637C316.917 234.392 326.772 238.483 334.041 245.754C341.31 253.026 345.399 262.885 345.41 273.169V357.966C345.408 359.867 344.652 361.69 343.309 363.034C341.965 364.378 340.143 365.135 338.243 365.137Z" fill="#2F2E41"/>
<path d="M319.982 358.928C319.541 359.89 318.831 360.704 317.938 361.273C317.046 361.841 316.008 362.139 314.949 362.131L302.504 362.023C301.784 362.017 301.072 361.869 300.41 361.587C299.747 361.306 299.147 360.897 298.642 360.383C298.138 359.87 297.739 359.262 297.469 358.594C297.2 357.926 297.064 357.212 297.071 356.492L297.916 258.948C297.929 257.41 298.245 255.891 298.846 254.475C299.446 253.06 300.319 251.777 301.416 250.699C302.512 249.621 303.809 248.77 305.234 248.194C306.66 247.618 308.184 247.328 309.721 247.341C311.258 247.355 312.777 247.671 314.192 248.271C315.607 248.872 316.89 249.746 317.967 250.842C319.044 251.939 319.895 253.237 320.471 254.663C321.047 256.088 321.336 257.613 321.323 259.151L320.478 356.695C320.472 357.466 320.303 358.227 319.982 358.928Z" fill="#8E4D30"/>
<path d="M325.48 332.888C325.039 333.85 324.329 334.664 323.436 335.232C322.543 335.801 321.505 336.099 320.447 336.091L299.189 335.906C297.736 335.892 296.348 335.301 295.33 334.265C294.311 333.228 293.745 331.829 293.756 330.375L294.45 250.278C294.457 249.558 294.604 248.846 294.886 248.183C295.167 247.52 295.576 246.919 296.089 246.414C296.603 245.91 297.21 245.511 297.878 245.241C298.545 244.971 299.259 244.836 299.979 244.842L321.236 245.026C321.956 245.033 322.668 245.181 323.33 245.462C323.993 245.743 324.594 246.152 325.098 246.666C325.603 247.18 326.001 247.788 326.271 248.455C326.54 249.123 326.676 249.837 326.67 250.557L325.976 330.655C325.97 331.426 325.801 332.187 325.48 332.888Z" fill="#2F2E41"/>
<path d="M303.136 154.972C297.387 150.213 289.702 154.714 283.201 154.076C276.98 153.464 271.974 147.988 270.61 142.096C269.018 135.221 272.468 128.237 277.665 123.833C283.357 119.01 290.999 117.511 298.282 118.245C306.629 119.086 314.319 122.825 321.242 127.392C327.922 131.66 334.086 136.687 339.611 142.373C344.561 147.638 348.791 153.945 350.24 161.129C351.556 167.658 350.784 174.935 347.018 180.559C345.019 183.442 342.311 185.762 339.155 187.294C335.866 188.988 332.347 190.221 329.166 192.126C324.356 195.006 319.74 200.876 321.377 206.863C321.729 208.171 322.396 209.372 323.321 210.361C324.432 211.549 326.365 209.915 325.251 208.724C323.294 206.632 323.316 203.793 324.289 201.233C325.449 198.347 327.554 195.94 330.26 194.408C333.59 192.418 337.284 191.159 340.701 189.34C343.973 187.675 346.795 185.244 348.926 182.253C352.947 176.433 354.04 168.938 352.972 162.044C351.816 154.583 347.846 147.859 342.922 142.254C337.563 136.155 331.026 131.031 324.36 126.442C317.207 121.518 309.329 117.39 300.672 116.007C293.168 114.809 285.078 115.788 278.616 119.99C272.584 123.911 268.027 130.547 267.701 137.871C267.597 141.202 268.382 144.501 269.976 147.428C271.569 150.355 273.914 152.805 276.768 154.524C279.695 156.202 283.075 156.918 286.43 156.571C290.019 156.272 293.595 155.103 297.216 155.34C298.854 155.409 300.426 156.009 301.692 157.051C302.948 158.091 304.382 156.004 303.136 154.972Z" fill="#2F2E41"/>
<path d="M252.568 379.211C252.583 379.116 252.601 379.021 252.622 378.926C252.772 378.221 253.06 377.553 253.47 376.961C253.879 376.369 254.402 375.863 255.009 375.475L265.468 368.726C266.69 367.939 268.174 367.67 269.594 367.976C271.015 368.283 272.256 369.141 273.045 370.362L305.309 420.403C306.097 421.625 306.367 423.11 306.06 424.532C305.754 425.953 304.895 427.195 303.674 427.983L293.214 434.732C291.992 435.518 290.508 435.788 289.088 435.481C287.667 435.175 286.426 434.317 285.637 433.096L253.373 383.055C252.636 381.918 252.349 380.548 252.568 379.211Z" fill="#2F2E41"/>
<path d="M213.396 49.4128C212.593 47.504 211.248 45.8728 209.527 44.7211C207.806 43.5694 205.786 42.9477 203.715 42.9329H10.4752C7.69743 42.9344 5.03389 44.0389 3.06975 46.0039C1.1056 47.9688 0.00149255 50.6333 0 53.4121V297.975C0.00149255 300.753 1.1056 303.418 3.06975 305.383C5.03389 307.348 7.69743 308.452 10.4752 308.454H203.722C206.499 308.45 209.162 307.345 211.125 305.38C213.089 303.416 214.194 300.753 214.197 297.975V53.4121C214.202 52.0394 213.932 50.6796 213.403 49.4128H213.396ZM211.864 297.975C211.862 300.136 211.002 302.208 209.475 303.736C207.947 305.264 205.876 306.124 203.715 306.127H10.4752C8.31428 306.126 6.24199 305.267 4.71389 303.739C3.18579 302.211 2.32696 300.138 2.32623 297.976V53.4136C2.32917 51.2524 3.18867 49.1806 4.71625 47.6524C6.24383 46.1242 8.31483 45.2644 10.4752 45.2615H203.722C205.35 45.2676 206.938 45.7587 208.286 46.6721C209.633 47.5855 210.677 48.8797 211.286 50.3896C211.405 50.6905 211.507 50.9975 211.593 51.3093C211.777 51.9954 211.871 52.7029 211.871 53.4135L211.864 297.975Z" fill="#3F3D56"/>
<path d="M173.069 100.673H114.863C113.628 100.673 112.443 100.182 111.57 99.3088C110.697 98.4352 110.206 97.2503 110.206 96.0148C110.206 94.7793 110.697 93.5943 111.57 92.7207C112.443 91.8471 113.628 91.3562 114.863 91.3562H173.069C174.305 91.3562 175.489 91.8471 176.362 92.7207C177.236 93.5943 177.726 94.7793 177.726 96.0148C177.726 97.2503 177.236 98.4352 176.362 99.3088C175.489 100.182 174.305 100.673 173.069 100.673Z" fill="#3F3D56"/>
<path d="M173.07 125.13H114.863C114.251 125.13 113.645 125.011 113.079 124.777C112.513 124.543 111.999 124.2 111.566 123.767C111.133 123.335 110.79 122.821 110.555 122.255C110.321 121.69 110.2 121.083 110.2 120.471C110.2 119.859 110.321 119.252 110.555 118.687C110.79 118.121 111.133 117.607 111.566 117.175C111.999 116.742 112.513 116.399 113.079 116.165C113.645 115.932 114.251 115.812 114.863 115.813H173.07C173.682 115.812 174.288 115.932 174.854 116.165C175.419 116.399 175.934 116.742 176.367 117.175C176.8 117.607 177.143 118.121 177.378 118.687C177.612 119.252 177.733 119.859 177.733 120.471C177.733 121.083 177.612 121.69 177.378 122.255C177.143 122.821 176.8 123.335 176.367 123.767C175.934 124.2 175.419 124.543 174.854 124.777C174.288 125.011 173.682 125.13 173.07 125.13Z" fill="#3F3D56"/>
<path d="M84.9978 139.055H42.4606C41.0716 139.054 39.7399 138.501 38.7578 137.518C37.7756 136.536 37.2231 135.204 37.2217 133.814V83.5972C37.2231 82.2076 37.7756 80.8754 38.7578 79.8928C39.7399 78.9103 41.0716 78.3576 42.4606 78.3562H84.9978C86.3868 78.3576 87.7185 78.9103 88.7007 79.8928C89.6829 80.8754 90.2353 82.2076 90.2368 83.5972V133.814C90.2353 135.204 89.6829 136.536 88.7007 137.518C87.7185 138.501 86.3868 139.054 84.9978 139.055Z" fill="#8E4D30"/>
<path d="M172.666 175.207H41.1196C39.8846 175.207 38.7001 174.716 37.8268 173.843C36.9535 172.969 36.4629 171.784 36.4629 170.549C36.4629 169.313 36.9535 168.128 37.8268 167.254C38.7001 166.381 39.8846 165.89 41.1196 165.89H172.666C173.901 165.89 175.086 166.381 175.959 167.254C176.833 168.128 177.323 169.313 177.323 170.549C177.323 171.784 176.833 172.969 175.959 173.843C175.086 174.716 173.901 175.207 172.666 175.207Z" fill="#CCCCCC"/>
<path d="M172.666 199.663H41.1196C39.8846 199.663 38.7001 199.172 37.8268 198.299C36.9535 197.425 36.4629 196.24 36.4629 195.005C36.4629 193.769 36.9535 192.584 37.8268 191.711C38.7001 190.837 39.8846 190.346 41.1196 190.346H172.666C173.901 190.346 175.086 190.837 175.959 191.711C176.833 192.584 177.323 193.769 177.323 195.005C177.323 196.24 176.833 197.425 175.959 198.299C175.086 199.172 173.901 199.663 172.666 199.663Z" fill="#CCCCCC"/>
<path d="M172.666 224.119H41.1192C39.8853 224.118 38.7024 223.626 37.8305 222.753C36.9585 221.879 36.4687 220.695 36.4688 219.461C36.4687 218.227 36.9585 217.043 37.8305 216.169C38.7024 215.296 39.8853 214.804 41.1192 214.802H172.666C173.278 214.802 173.884 214.922 174.45 215.155C175.016 215.389 175.53 215.732 175.963 216.165C176.396 216.597 176.74 217.111 176.974 217.677C177.208 218.242 177.329 218.849 177.329 219.461C177.329 220.073 177.208 220.68 176.974 221.245C176.74 221.811 176.396 222.325 175.963 222.757C175.53 223.19 175.016 223.533 174.45 223.767C173.884 224 173.278 224.12 172.666 224.119Z" fill="#CCCCCC"/>
<path d="M172.666 248.576H41.1196C39.8846 248.576 38.7001 248.085 37.8268 247.211C36.9535 246.338 36.4629 245.153 36.4629 243.917C36.4629 242.682 36.9535 241.497 37.8268 240.623C38.7001 239.749 39.8846 239.259 41.1196 239.259H172.666C173.901 239.259 175.086 239.749 175.959 240.623C176.833 241.497 177.323 242.682 177.323 243.917C177.323 245.153 176.833 246.338 175.959 247.211C175.086 248.085 173.901 248.576 172.666 248.576Z" fill="#CCCCCC"/>
<path d="M172.666 273.032H41.1196C39.8846 273.032 38.7001 272.541 37.8268 271.668C36.9535 270.794 36.4629 269.609 36.4629 268.373C36.4629 267.138 36.9535 265.953 37.8268 265.079C38.7001 264.206 39.8846 263.715 41.1196 263.715H172.666C173.901 263.715 175.086 264.206 175.959 265.079C176.833 265.953 177.323 267.138 177.323 268.373C177.323 269.609 176.833 270.794 175.959 271.668C175.086 272.541 173.901 273.032 172.666 273.032Z" fill="#CCCCCC"/>
<path d="M214.841 89.9154C239.661 89.9154 259.782 69.7871 259.782 44.9577C259.782 20.1282 239.661 0 214.841 0C190.022 0 169.901 20.1282 169.901 44.9577C169.901 69.7871 190.022 89.9154 214.841 89.9154Z" fill="#8E4D30"/>
<path d="M210.387 62.1077C209.376 62.1094 208.392 61.7822 207.583 61.1754L207.533 61.1378L196.972 53.0554C196.483 52.6802 196.072 52.2124 195.764 51.6785C195.455 51.1447 195.255 50.5553 195.174 49.944C195.093 49.3327 195.134 48.7115 195.293 48.1158C195.452 47.5202 195.727 46.9618 196.102 46.4724C196.477 45.9831 196.945 45.5724 197.479 45.2639C198.012 44.9554 198.602 44.755 199.213 44.6743C199.824 44.5935 200.445 44.634 201.04 44.7933C201.636 44.9526 202.194 45.2277 202.683 45.6029L209.524 50.8509L225.689 29.753C226.064 29.2639 226.532 28.8534 227.065 28.545C227.598 28.2366 228.187 28.0363 228.798 27.9556C229.409 27.8749 230.03 27.9153 230.625 28.0746C231.22 28.2339 231.778 28.5088 232.267 28.8838L232.268 28.8849L232.168 29.0242L232.271 28.8849C233.257 29.6433 233.903 30.7622 234.065 31.9961C234.228 33.23 233.895 34.4781 233.139 35.4664L214.125 60.271C213.685 60.8425 213.119 61.305 212.472 61.6226C211.824 61.9401 211.113 62.1042 210.392 62.1021L210.387 62.1077Z" fill="white"/>
<path d="M499.169 448H193.419C193.198 448 192.987 447.912 192.831 447.757C192.675 447.601 192.588 447.389 192.588 447.169C192.588 446.948 192.675 446.737 192.831 446.581C192.987 446.425 193.198 446.338 193.419 446.338H499.169C499.39 446.338 499.601 446.425 499.757 446.581C499.913 446.737 500 446.948 500 447.169C500 447.389 499.913 447.601 499.757 447.757C499.601 447.912 499.39 448 499.169 448Z" fill="#3F3D56"/>
</g>
<defs>
<clipPath id="clip0_58172_4485">
<rect width="500" height="448" fill="white"/>
</clipPath>
</defs>
</svg>
